<svg width="40" height="39" viewBox="0 0 40 39" fill="none" xmlns="http://www.w3.org/2000/svg">
<path d="M16.0005 23.4556C15.3191 23.4556 14.7647 24.01 14.7647 24.6913C14.7647 25.3727 15.3191 25.9271 16.0005 25.9271C16.6818 25.9271 17.2362 25.3727 17.2362 24.6913C17.2362 24.01 16.6818 23.4556 16.0005 23.4556ZM16.0005 25.2767C15.6777 25.2767 15.4151 25.0141 15.4151 24.6913C15.4151 24.3686 15.6777 24.106 16.0005 24.106C16.3232 24.106 16.5858 24.3686 16.5858 24.6913C16.5858 25.0141 16.3232 25.2767 16.0005 25.2767Z" fill="#111827"/>
<path d="M39.2874 17.4254C39.0183 15.1521 37.8337 13.5644 37.2873 12.9393L33.5952 8.84752C32.7596 7.92148 31.3267 7.84812 30.4008 8.68349C30.0975 8.95705 29.874 9.30748 29.7546 9.69694C29.7334 9.76602 29.7154 9.83691 29.7007 9.90924C29.6501 9.88257 29.5963 9.8572 29.5384 9.83366C29.2533 9.71776 28.9387 9.65961 28.6312 9.66781C27.5488 9.69369 26.589 10.5285 26.4132 11.5442C26.411 11.5434 26.4091 11.5426 26.4069 11.5419C25.622 11.2466 24.7499 11.4063 24.1208 11.9567V1.8712C24.1208 0.839406 23.2814 0 22.2496 0H9.75077C8.71897 0 7.87957 0.839406 7.87957 1.8712V15.371L1.81836 22.5646C1.2356 23.2561 0.872807 24.0967 0.769523 24.9954L0.154895 30.343C0.0513515 30.866 0.0239044 31.3912 0.0639691 31.9059C-0.166273 33.4717 0.230081 35.0635 1.17108 36.3121C2.11754 37.5679 3.51525 38.3361 5.10652 38.4752C5.29241 38.4915 5.47738 38.4995 5.66053 38.4995C6.4055 38.4995 7.12198 38.3661 7.75885 38.1063C7.92509 38.0385 8.00496 37.8486 7.93706 37.6824C7.86929 37.516 7.67963 37.4362 7.51313 37.504C6.81499 37.7889 6.00186 37.9009 5.16324 37.8273C3.75785 37.7045 2.52469 37.0274 1.69062 35.9207C1.38883 35.5202 1.15157 35.0792 0.979212 34.6143C1.51761 35.4482 2.27104 36.1498 3.19461 36.6234C4.0279 37.0508 4.9313 37.2576 5.82808 37.2576C7.40764 37.2576 8.96691 36.6157 10.0881 35.4058L11.916 32.9465C12.4104 32.2797 12.6826 31.4554 12.6826 30.6253V27.8431H22.2496C23.2814 27.8431 24.1208 27.0037 24.1208 25.972V24.9912C25.1682 25.2755 28.0571 26.0593 28.4048 26.1518C28.9458 26.3377 29.5037 26.4672 30.0684 26.5379L30.102 26.5419C30.1434 26.5469 30.1848 26.5518 30.2265 26.5554C30.5122 26.5855 30.7989 26.6006 31.0854 26.6006C31.5584 26.6006 32.0309 26.5596 32.4972 26.4779C34.6473 26.1046 36.5309 24.9222 37.8006 23.1484C38.7403 21.8356 39.1158 20.4764 39.2596 19.4713C39.3513 20.0109 39.3825 20.6043 39.3069 21.2392C38.9048 24.6166 35.8608 26.2254 35.5151 26.3978C34.5478 26.88 33.4464 27.1314 32.3168 27.1206C32.3159 27.1206 32.315 27.1206 32.3141 27.1206C32.1357 27.1206 31.9904 27.2645 31.9889 27.4431C31.9874 27.6227 32.1318 27.7695 32.3113 27.771C32.333 27.7712 32.3545 27.7713 32.3762 27.7713C33.5809 27.7713 34.7652 27.4981 35.805 26.9799C36.1829 26.7915 39.5102 25.0323 39.9526 21.3161C40.1425 19.7212 39.7293 18.3638 39.2874 17.4254ZM11.3821 30.6251C11.3821 31.1781 11.2006 31.7274 10.8713 32.1718L9.11077 34.5466C7.74611 35.9969 5.56284 36.3757 3.78842 35.4657C2.00385 34.5505 1.03645 32.5389 1.43566 30.5736L2.062 25.1438C2.13601 24.5 2.39578 23.898 2.81321 23.4026L7.8797 17.3895V19.7291L3.8917 25.2671C3.68189 25.5586 3.7481 25.9651 4.03961 26.175C4.33111 26.3848 4.73761 26.3186 4.94743 26.0271L9.77587 19.3199C9.98439 19.0762 10.3458 19.0329 10.6063 19.2232C10.8708 19.4165 10.9374 19.7826 10.7578 20.0568L8.93881 23.4547C8.29439 24.592 8.28294 25.8339 8.36685 27.0066L8.50928 29.0008C8.57524 29.9237 8.20073 30.8407 7.50767 31.4536L6.01513 32.7734C5.74612 33.0114 5.72076 33.4224 5.95881 33.6915C6.08732 33.8368 6.26631 33.9111 6.44622 33.9111C6.59932 33.9111 6.75307 33.8572 6.87691 33.748L8.36945 32.4282C9.36404 31.5486 9.9014 30.2327 9.80683 28.9082L9.73074 27.8419C9.73763 27.8421 9.74426 27.843 9.75129 27.843H11.3824V30.6251H11.3821ZM22.8202 25.9719C22.8202 26.2863 22.5643 26.5422 22.2498 26.5422H9.7509C9.71344 26.5422 9.67701 26.538 9.6415 26.5311C9.60326 25.6805 9.65854 24.8191 10.0735 24.0907L10.8174 22.6991C10.8614 22.7213 10.9103 22.735 10.963 22.735H17.4311C17.6107 22.735 17.7563 22.5894 17.7563 22.4098C17.7563 22.2302 17.6107 22.0846 17.4311 22.0846H11.2882V21.8184L11.8631 20.7428C12.4006 19.892 12.189 18.7689 11.3735 18.1732C11.3457 18.1529 11.3167 18.1356 11.2882 18.117V3.37948H20.7124V6.40982C20.7124 6.58946 20.8579 6.73502 21.0375 6.73502C21.2172 6.73502 21.3628 6.58946 21.3628 6.40982V3.05428C21.3628 2.87464 21.2172 2.72908 21.0375 2.72908H10.963C10.7833 2.72908 10.6378 2.87464 10.6378 3.05428V17.8467C10.1376 17.7415 9.61041 17.8392 9.1805 18.1261V1.8712C9.1805 1.55667 9.43636 1.3008 9.7509 1.3008H22.2498C22.5643 1.3008 22.8202 1.55667 22.8202 1.8712V12.3339L20.2638 9.50078C20.0227 9.23347 19.7179 9.02547 19.3824 8.89916C18.5862 8.59972 17.7001 8.76752 17.0695 9.33675C16.6209 9.74143 16.3568 10.2966 16.3258 10.8999C16.2948 11.5034 16.5006 12.0826 16.9054 12.5313L22.8203 19.0864V19.8626L21.1933 19.5496C20.0168 19.199 18.7671 19.8575 18.3935 21.0324C18.0154 22.2204 18.6749 23.4949 19.864 23.8736L22.8204 24.6472V25.9719H22.8202ZM36.7429 22.3912C35.6731 23.8854 34.0863 24.8817 32.2737 25.1964C31.6414 25.3071 30.9963 25.3289 30.3574 25.2611L30.3428 25.2598C30.3143 25.2574 30.2864 25.254 30.2581 25.2505L30.2246 25.2464C29.7472 25.1867 29.2704 25.0751 28.8078 24.9146L28.759 24.8998C28.5397 24.8425 24.1336 23.6467 24.0834 23.6331L20.2446 22.6295C19.7479 22.463 19.474 21.9269 19.6332 21.4268C19.7937 20.9218 20.3349 20.6412 20.8392 20.8015L22.8204 21.1852V21.1985L24.1212 21.4436V21.4372L24.2509 21.4623C24.6908 21.5467 25.1278 21.3388 25.3401 20.9444C25.5491 20.5552 25.4855 20.0823 25.1825 19.7624L17.8713 11.6597C17.6993 11.4692 17.6119 11.223 17.625 10.9667C17.6382 10.7103 17.7504 10.4743 17.941 10.3025C18.2092 10.0608 18.5855 9.98923 18.9245 10.1166C19.0684 10.1708 19.1942 10.2567 19.2984 10.3721L23.901 15.473C24.0406 15.6317 24.2295 15.7263 24.4343 15.7396C24.6362 15.7527 24.8389 15.6819 24.9899 15.5456C25.1421 15.4084 25.2339 15.2125 25.2417 15.0081C25.2495 14.8041 25.1762 14.6088 25.0352 14.4563L24.8964 14.3023C24.5414 13.9088 24.5726 13.2999 24.966 12.9449C25.2342 12.703 25.6112 12.6317 25.9496 12.7592C26.0934 12.8133 26.2192 12.8991 26.3234 13.0146L26.4347 13.1381C26.7058 13.4388 27.163 13.4942 27.4984 13.2672C27.8331 13.0404 27.9512 12.5955 27.7717 12.2293C27.7293 12.1441 27.6801 12.0094 27.6866 11.8512C27.704 11.4169 28.1878 10.9794 28.663 10.968C28.7951 10.9646 28.9282 10.9893 29.0494 11.0385C29.1367 11.074 29.2076 11.1329 29.3355 11.2427C29.849 11.6833 30.2861 11.5476 30.501 11.4274C31.0241 11.135 30.9768 10.575 30.9614 10.3909C30.9591 10.365 30.956 10.3394 30.956 10.3205C30.9617 10.2338 30.9762 10.1522 30.9989 10.0781C31.0494 9.91353 31.1441 9.76524 31.2726 9.6492H31.2728C31.666 9.29422 32.275 9.32531 32.6301 9.7188L36.3152 13.8028C36.8246 14.3854 38.0126 15.9874 38.0424 18.2722C38.0488 18.8035 37.9754 20.6691 36.7429 22.3912Z" fill="#111827"/>
<path d="M17.4747 14.2941C17.2576 14.2271 17.045 14.1381 16.8429 14.0293C16.0165 13.5851 15.4128 12.8457 15.1427 11.9474C14.8725 11.0491 14.9684 10.0992 15.4126 9.27284C15.8567 8.44657 16.5962 7.84274 17.4945 7.57256C18.3927 7.30239 19.3426 7.39813 20.1691 7.84248C20.932 8.25262 21.5142 8.92657 21.8086 9.74035C21.8695 9.90919 22.0555 9.99673 22.225 9.9356C22.3938 9.87446 22.4813 9.68805 22.4201 9.51921C22.0712 8.55467 21.3813 7.75572 20.477 7.26961C19.4975 6.74317 18.3719 6.62961 17.3072 6.94987C16.2425 7.27013 15.3661 7.9857 14.8397 8.96507C14.3133 9.94444 14.1996 11.0702 14.5198 12.1349C14.84 13.1996 15.5557 14.0759 16.535 14.6023C16.7741 14.7309 17.0258 14.8362 17.2833 14.9157C17.3151 14.9256 17.3474 14.9301 17.3791 14.9301C17.5181 14.9301 17.6467 14.8404 17.6898 14.7007C17.7426 14.529 17.6463 14.3469 17.4747 14.2941Z" fill="#111827"/>
</svg>
