<svg width="39" height="40" viewBox="0 0 39 40" fill="none" xmlns="http://www.w3.org/2000/svg">
<path d="M18.6875 15.625C23.0018 15.625 26.5 12.1272 26.5 7.8125C26.5 3.49778 23.0018 0 18.6875 0C14.3729 0 10.875 3.49778 10.875 7.8125C10.875 12.1272 14.3729 15.625 18.6875 15.625ZM18.6875 1.25C22.306 1.25 25.25 4.19387 25.25 7.8125C25.25 11.4311 22.306 14.375 18.6875 14.375C15.069 14.375 12.125 11.4311 12.125 7.8125C12.125 4.19387 15.069 1.25 18.6875 1.25Z" fill="black"/>
<path d="M34.284 28.4368C33.9959 27.5451 33.702 26.6952 33.3999 25.8856L32.5527 27.2176C32.7334 27.7291 32.9128 28.2586 33.0907 28.8095L35.8376 37.6034C35.9057 37.8204 35.8825 37.9781 35.758 38.1478C35.5056 38.4911 34.9193 38.7502 34.3941 38.7502H31.1846C31.1846 38.6846 31.1773 38.6181 31.1553 38.5525L28.6553 31.0525C28.5634 30.7766 28.2973 30.6094 28.0196 30.6289C27.8536 30.7995 27.6665 30.9454 27.4654 31.069C27.4288 31.1886 27.4267 31.3201 27.4694 31.448L29.9035 38.7502H7.15871L9.59281 31.448C9.70206 31.1206 9.52506 30.7665 9.19759 30.6573C8.86893 30.5477 8.51612 30.7253 8.40687 31.0525L5.90687 38.5525C5.8849 38.6181 5.87759 38.6846 5.87759 38.7502H2.92471C2.42696 38.7502 1.94631 38.5626 1.70065 38.2723C1.53096 38.0718 1.46962 37.8158 1.51387 37.4905L3.89853 28.7664L3.90525 28.742L3.91071 28.7173C4.93856 24.2544 6.5749 20.9039 8.774 18.7594C10.3594 17.2135 12.25 16.2524 14.504 15.848C13.9886 15.5786 13.5024 15.2612 13.0511 14.9014C7.86 16.3528 4.4454 20.8266 2.69278 28.4368L0.289219 37.2299C-0.0113789 39.0261 1.46871 40.0002 2.92471 40.0002H34.3941C35.8504 40.0002 37.5457 38.8751 37.0305 37.2299L34.284 28.4368Z" fill="black"/>
<path d="M38.1293 12.0465C37.8543 11.8367 37.4625 11.8898 37.2534 12.1637C34.6057 15.6285 33.7009 16.8857 33.692 16.8978C33.534 17.1179 33.5416 17.4047 33.6868 17.6158C33.8962 18.7927 33.851 19.8239 33.5443 20.6802C33.1912 21.6687 32.6053 22.5457 31.9852 23.4738C31.7951 23.7582 31.6052 24.0423 31.4227 24.3292L29.339 27.6059C29.2835 27.6937 29.1986 27.7542 29.0997 27.7761C29.0079 27.7972 28.913 27.7804 28.834 27.7295C28.6624 27.6199 28.6148 27.3852 28.7277 27.2067L30.9873 23.6282C31.1716 23.3365 31.0843 22.9504 30.7923 22.7661C30.5011 22.5821 30.1148 22.669 29.9301 22.9611L27.6706 26.5393C27.6056 26.6421 27.5562 26.7498 27.5165 26.86L26.2818 28.8159C26.2265 28.9035 26.1417 28.9636 26.0434 28.9856C25.9503 29.0063 25.8561 28.9895 25.7767 28.9386C25.6079 28.8308 25.5155 28.5858 25.5667 28.4204L29.2819 22.5366C29.4663 22.2448 29.379 21.8588 29.0869 21.6745C28.7955 21.4904 28.4095 21.5774 28.2248 21.8695L24.5938 27.6199C24.5737 27.6431 24.5532 27.6666 24.5361 27.6934C24.5209 27.7176 24.513 27.7447 24.4992 27.7697L23.7952 28.8846C23.7402 28.9718 23.6557 29.0319 23.5578 29.0536C23.4638 29.0753 23.3695 29.0582 23.2907 29.0078C23.1195 28.898 23.0719 28.6633 23.1848 28.4845L24.3015 26.716C24.3048 26.7105 24.31 26.7062 24.3134 26.7007C24.317 26.6949 24.3189 26.6888 24.3222 26.683L27.6139 21.4694C27.7982 21.1777 27.7109 20.7916 27.4188 20.6073C27.1274 20.4232 26.7414 20.5102 26.5567 20.8023L23.248 26.0431C23.1952 26.116 23.104 26.1474 23.0521 26.159C22.9178 26.1886 22.7698 26.1651 22.6645 26.0977C22.4933 25.9881 22.4457 25.7537 22.5586 25.5749L25.9683 20.1747C26.319 19.6191 26.099 19.2527 25.9879 19.1211C25.8771 18.9898 25.5554 18.7109 24.9512 18.9613L22.1476 20.1275C22.0572 20.1678 21.9565 20.1612 21.846 20.108C21.6886 20.0316 21.5561 19.8733 21.5167 19.7143C21.4752 19.5468 21.3889 19.1983 22.7942 18.6544C23.9823 18.1953 24.6842 17.5866 25.4325 16.7526C26.3544 15.7228 27.4991 14.6247 29.4666 14.6956C29.5999 14.6991 29.7241 14.6609 29.8273 14.5939C30.0247 14.5665 30.2066 14.4511 30.3022 14.2592C30.3073 14.2489 30.8319 13.2003 32.627 9.99281C32.7957 9.69159 32.688 9.31087 32.3868 9.14228C32.0859 8.9735 31.7047 9.08137 31.5363 9.38243C30.1898 11.7882 29.5591 12.9759 29.3137 13.4477C26.724 13.4463 25.2832 15.045 24.5017 15.9184C23.8458 16.6493 23.3078 17.1159 22.3435 17.4885C21.6782 17.7461 19.9106 18.43 20.3034 20.0151C20.4331 20.5377 20.8057 20.9927 21.3007 21.2326C21.7472 21.4496 22.2309 21.4617 22.6447 21.2741L24.2047 20.6262L21.5018 24.9075C21.0227 25.6656 21.2424 26.6717 21.9907 27.1502C22.125 27.2363 22.2717 27.3016 22.4247 27.3471L22.1277 27.8173C21.6495 28.5751 21.8686 29.5813 22.6169 30.0607C22.8775 30.227 23.1738 30.3131 23.4763 30.3131C23.5938 30.3131 23.7125 30.3 23.83 30.2737C24.2023 30.1907 24.5209 29.9783 24.7528 29.6798C24.8554 29.7967 24.9683 29.9057 25.1029 29.9917C25.3635 30.1583 25.6598 30.2447 25.9626 30.2447C26.0794 30.2447 26.1975 30.2316 26.3144 30.2057C26.7401 30.1111 27.1039 29.8547 27.3386 29.4833L27.9074 28.5821C27.9834 28.6557 28.0673 28.7231 28.1598 28.7823C28.4204 28.9492 28.7168 29.0353 29.0195 29.0353C29.1361 29.0353 29.2539 29.0225 29.3707 28.9966C29.7968 28.9019 30.1606 28.6453 30.3958 28.2736L32.4436 25.0537C32.6316 24.7561 32.8278 24.4626 33.0243 24.1684C33.6597 23.2177 34.3164 22.2348 34.7214 21.101C35.1062 20.0259 35.1663 18.764 34.9088 17.351C35.2982 16.8205 36.2949 15.4767 38.2465 12.9226C38.4561 12.6484 38.4036 12.2561 38.1293 12.0465Z" fill="black"/>
</svg>
