<svg width="41" height="40" viewBox="0 0 41 40" fill="none" xmlns="http://www.w3.org/2000/svg">
<path d="M18.0712 13.648C18.1284 13.6481 18.1852 13.6385 18.2392 13.6197C18.4346 13.5532 18.6358 13.4937 18.8371 13.4438C18.905 13.4284 18.9692 13.3996 19.0259 13.359C19.0825 13.3185 19.1305 13.267 19.1671 13.2077C19.2036 13.1484 19.2279 13.0823 19.2386 13.0135C19.2493 12.9446 19.2461 12.8743 19.2293 12.8067C19.2124 12.7391 19.1823 12.6755 19.1405 12.6197C19.0988 12.5639 19.0464 12.517 18.9863 12.4817C18.9262 12.4465 18.8597 12.4235 18.7906 12.4143C18.7215 12.4051 18.6513 12.4097 18.5841 12.4279C18.3545 12.4846 18.1259 12.552 17.9003 12.6233C17.7782 12.6599 17.6737 12.7398 17.6063 12.848C17.5389 12.9562 17.5133 13.0853 17.5342 13.211C17.5552 13.3367 17.6213 13.4505 17.7202 13.5309C17.8191 13.6114 17.9439 13.653 18.0712 13.648Z" fill="#111827"/>
<path d="M15.2013 14.1397C13.9398 15.1816 13.0035 16.5634 12.5033 18.1212C12.4822 18.1866 12.4742 18.2556 12.4797 18.3241C12.4853 18.3926 12.5043 18.4594 12.5357 18.5205C12.5671 18.5817 12.6103 18.636 12.6627 18.6805C12.7151 18.7249 12.7758 18.7586 12.8413 18.7796C12.893 18.7965 12.9471 18.8051 13.0015 18.805C13.1123 18.8049 13.2203 18.7697 13.3098 18.7044C13.3993 18.6391 13.4658 18.5471 13.4997 18.4416C13.9389 17.0738 14.761 15.8605 15.8685 14.9455C15.9725 14.8562 16.0373 14.7295 16.0489 14.5929C16.0605 14.4563 16.0181 14.3205 15.9307 14.2148C15.8433 14.1092 15.718 14.042 15.5816 14.0277C15.4452 14.0135 15.3087 14.0533 15.2013 14.1387V14.1397Z" fill="#111827"/>
<path d="M36.8517 39.4754V37.7288C36.8509 36.9946 36.5589 36.2907 36.0397 35.7715C35.5205 35.2523 34.8166 34.9603 34.0824 34.9595H33.7786V33.7073C33.7778 32.9816 33.4896 32.2859 32.9769 31.7724C32.4643 31.2588 31.7691 30.9693 31.0435 30.9673H10.2391V20.1997C10.2391 17.5678 11.2846 15.0437 13.1456 13.1827C15.0066 11.3217 17.5307 10.2762 20.1626 10.2762C22.7945 10.2762 25.3186 11.3217 27.1796 13.1827C29.0407 15.0437 30.0862 17.5678 30.0862 20.1997V28.8935C30.0862 29.0323 30.1414 29.1655 30.2395 29.2637C30.3377 29.3619 30.4709 29.417 30.6098 29.417C30.7486 29.417 30.8818 29.3619 30.98 29.2637C31.0782 29.1655 31.1333 29.0323 31.1333 28.8935V20.1997C31.1333 17.2901 29.9775 14.4997 27.9201 12.4423C25.8627 10.3848 23.0722 9.229 20.1626 9.229C17.253 9.229 14.4626 10.3848 12.4052 12.4423C10.3477 14.4997 9.1919 17.2901 9.1919 20.1997V30.9721C8.4826 30.9967 7.8105 31.2955 7.3171 31.8057C6.8237 32.3158 6.5475 32.9975 6.54666 33.7073V34.9595H6.24287C5.50864 34.9603 4.80471 35.2523 4.28554 35.7715C3.76636 36.2907 3.47435 36.9946 3.47357 37.7288V39.4754C3.47357 39.6144 3.5287 39.7476 3.62686 39.846C3.72503 39.9443 3.8582 39.9997 3.99715 40H36.3301C36.4687 39.9992 36.6013 39.9436 36.6991 39.8453C36.7968 39.747 36.8517 39.614 36.8517 39.4754ZM7.59382 33.7073C7.59408 33.2584 7.77251 32.8279 8.08993 32.5105C8.40734 32.1931 8.83777 32.0147 9.28666 32.0144H31.0396C31.4883 32.0149 31.9185 32.1935 32.2357 32.5109C32.5529 32.8283 32.7312 33.2585 32.7314 33.7073V34.9595H7.59382V33.7073ZM35.8045 38.9518H4.52073V37.7288C4.52124 37.2723 4.70285 36.8345 5.0257 36.5117C5.34856 36.1888 5.78629 36.0072 6.24287 36.0067H34.0824C34.539 36.0072 34.9767 36.1888 35.2995 36.5117C35.6224 36.8345 35.804 37.2723 35.8045 37.7288V38.9518Z" fill="#111827"/>
<path d="M16.7262 28.5899C16.7262 28.7287 16.7814 28.8619 16.8795 28.9601C16.9777 29.0583 17.1109 29.1135 17.2498 29.1135H24.0749C24.2137 29.1135 24.3469 29.0583 24.4451 28.9601C24.5433 28.8619 24.5984 28.7287 24.5984 28.5899C24.5984 28.451 24.5433 28.3178 24.4451 28.2197C24.3469 28.1215 24.2137 28.0663 24.0749 28.0663H22.5119V25.3253C22.5119 25.0175 22.4513 24.7126 22.3335 24.4282C22.2157 24.1437 22.043 23.8853 21.8253 23.6676C21.6076 23.4499 21.3491 23.2772 21.0647 23.1594C20.7803 23.0416 20.4754 22.981 20.1676 22.981C19.8597 22.981 19.5548 23.0416 19.2704 23.1594C18.986 23.2772 18.7275 23.4499 18.5098 23.6676C18.2921 23.8853 18.1194 24.1437 18.0016 24.4282C17.8838 24.7126 17.8232 25.0175 17.8232 25.3253V28.0663H17.2547C17.1855 28.0657 17.1169 28.0787 17.0528 28.1048C16.9887 28.1308 16.9304 28.1692 16.8813 28.2179C16.8321 28.2666 16.7931 28.3245 16.7665 28.3884C16.7399 28.4522 16.7262 28.5207 16.7262 28.5899ZM18.8654 25.3253C18.8654 25.155 18.899 24.9863 18.9642 24.8289C19.0294 24.6715 19.1249 24.5285 19.2454 24.4081C19.3658 24.2876 19.5089 24.1921 19.6662 24.1269C19.8236 24.0617 19.9923 24.0281 20.1627 24.0281C20.333 24.0281 20.5017 24.0617 20.6591 24.1269C20.8165 24.1921 20.9595 24.2876 21.0799 24.4081C21.2004 24.5285 21.296 24.6715 21.3611 24.8289C21.4263 24.9863 21.4599 25.155 21.4599 25.3253V28.0663H18.8654V25.3253Z" fill="#111827"/>
<path d="M26.4007 28.0659C26.2618 28.0659 26.1286 28.1211 26.0304 28.2193C25.9322 28.3175 25.8771 28.4506 25.8771 28.5895C25.8771 28.7284 25.9322 28.8615 26.0304 28.9597C26.1286 29.0579 26.2618 29.1131 26.4007 29.1131H26.5569C26.6958 29.1131 26.829 29.0579 26.9272 28.9597C27.0254 28.8615 27.0805 28.7284 27.0805 28.5895C27.0805 28.4506 27.0254 28.3175 26.9272 28.2193C26.829 28.1211 26.6958 28.0659 26.5569 28.0659H26.4007Z" fill="#111827"/>
<path d="M20.6862 3.99717V0.523578C20.6862 0.384717 20.631 0.251542 20.5328 0.153352C20.4347 0.0551625 20.3015 0 20.1626 0C20.0238 0 19.8906 0.0551625 19.7924 0.153352C19.6942 0.251542 19.639 0.384717 19.639 0.523578V3.99717C19.639 4.13603 19.6942 4.2692 19.7924 4.36739C19.8906 4.46558 20.0238 4.52075 20.1626 4.52075C20.3015 4.52075 20.4347 4.46558 20.5328 4.36739C20.631 4.2692 20.6862 4.13603 20.6862 3.99717Z" fill="#111827"/>
<path d="M8.79731 9.19172C8.90142 9.19192 9.00323 9.16108 9.08972 9.10313C9.17622 9.04519 9.24347 8.96277 9.2829 8.86641C9.32232 8.77005 9.33212 8.66413 9.31105 8.56217C9.28998 8.46021 9.23899 8.36686 9.16459 8.29402L6.68248 5.86075C6.58326 5.76347 6.44945 5.70959 6.3105 5.71096C6.17155 5.71234 6.03884 5.76885 5.94156 5.86808C5.84428 5.9673 5.7904 6.1011 5.79177 6.24005C5.79315 6.379 5.84966 6.51172 5.94889 6.609L8.431 9.04129C8.52876 9.13737 8.66024 9.19136 8.79731 9.19172Z" fill="#111827"/>
<path d="M4.54419 21.026C4.54419 20.8872 4.48903 20.754 4.39084 20.6558C4.29265 20.5576 4.15947 20.5024 4.02061 20.5024H0.523578C0.384717 20.5024 0.251542 20.5576 0.153352 20.6558C0.0551625 20.754 0 20.8872 0 21.026C0 21.1649 0.0551625 21.2981 0.153352 21.3962C0.251542 21.4944 0.384717 21.5496 0.523578 21.5496H4.02061C4.08937 21.5496 4.15745 21.5361 4.22098 21.5097C4.2845 21.4834 4.34222 21.4449 4.39084 21.3962C4.43946 21.3476 4.47802 21.2899 4.50433 21.2264C4.53065 21.1629 4.54419 21.0948 4.54419 21.026Z" fill="#111827"/>
<path d="M31.528 9.19187C31.665 9.19198 31.7965 9.13831 31.8943 9.04241L34.3764 6.61012C34.4756 6.51297 34.5322 6.38038 34.5337 6.24152C34.5351 6.10266 34.4814 5.96891 34.3842 5.86969C34.2871 5.77046 34.1545 5.7139 34.0156 5.71243C33.8768 5.71097 33.743 5.76472 33.6438 5.86187L31.1607 8.29417C31.0864 8.36694 31.0354 8.46021 31.0143 8.56208C30.9932 8.66394 31.0029 8.76979 31.0422 8.8661C31.0815 8.96242 31.1486 9.04485 31.235 9.10287C31.3213 9.16089 31.423 9.19187 31.527 9.19187H31.528Z" fill="#111827"/>
<path d="M40.3253 21.026C40.3253 20.8872 40.2701 20.754 40.1719 20.6558C40.0737 20.5576 39.9405 20.5024 39.8017 20.5024H36.3056C36.1668 20.5024 36.0336 20.5576 35.9354 20.6558C35.8372 20.754 35.782 20.8872 35.782 21.026C35.782 21.1649 35.8372 21.2981 35.9354 21.3962C36.0336 21.4944 36.1668 21.5496 36.3056 21.5496H39.8017C39.9405 21.5496 40.0737 21.4944 40.1719 21.3962C40.2701 21.2981 40.3253 21.1649 40.3253 21.026Z" fill="#111827"/>
</svg>
