<svg width="40" height="40" viewBox="0 0 40 40" fill="none" xmlns="http://www.w3.org/2000/svg">
<rect width="40" height="40" fill="#F5F5F5"/>
<g clip-path="url(#clip0_101_2944)">
<rect width="375" height="812" transform="translate(-49 -260)" fill="url(#paint0_linear_101_2944)"/>
<rect x="-16.5" y="-16.5" width="319" height="73" rx="5.5" fill="#FFFBEB"/>
<mask id="path-2-inside-1_101_2944" fill="white">
<path d="M20.8657 37.8974H7.35163C7.14275 37.8974 6.94875 37.7882 6.84075 37.6092C6.73259 37.4301 6.72595 37.2076 6.82323 37.0224C7.29875 36.1176 7.69771 35.03 8.00883 33.789C9.07707 29.5294 8.41059 24.8724 6.13203 20.6758C4.97539 18.5458 4.46139 16.1279 4.64539 13.6846C5.11395 7.46745 10.1577 2.45737 16.3778 2.03065C19.9332 1.78865 23.3171 2.98577 25.9088 5.40553C28.4647 7.79201 29.9306 11.1659 29.9306 14.6611C29.9306 15.2582 29.8806 15.8766 29.778 16.5445L32.0545 20.0023C32.3619 20.4692 32.388 21.0648 32.1228 21.5564C31.8579 22.0479 31.3463 22.3535 30.7877 22.3535H30.4454C30.4008 22.6389 30.1536 22.8576 29.8556 22.8576C29.526 22.8576 29.2587 22.5903 29.2587 22.2606C29.2587 21.6533 29.7525 21.1595 30.3598 21.1595H30.7877C30.9617 21.1595 31.0444 21.041 31.0718 20.9897C31.0992 20.9388 31.1529 20.8046 31.0573 20.6591L28.6531 17.0072C28.57 16.8813 28.5379 16.7283 28.563 16.5795C28.6799 15.8874 28.7365 15.26 28.7365 14.6611C28.7365 11.4953 27.4089 8.43985 25.0938 6.27817C22.7469 4.08657 19.6824 3.00313 16.4594 3.22185C10.8274 3.60809 6.26019 8.14465 5.83611 13.7741C5.66915 15.9885 6.13435 18.1778 7.18139 20.1059C9.60315 24.5665 10.3081 29.5289 9.16683 34.0791C8.92643 35.039 8.63475 35.9176 8.29611 36.7035H20.2688V35.4466C20.2688 35.1168 20.536 34.8495 20.8657 34.8495C21.1955 34.8495 21.4628 35.1168 21.4628 35.4466V37.3005C21.4628 37.6302 21.1955 37.8974 20.8657 37.8974Z"/>
</mask>
<path d="M20.8657 37.8974H7.35163C7.14275 37.8974 6.94875 37.7882 6.84075 37.6092C6.73259 37.4301 6.72595 37.2076 6.82323 37.0224C7.29875 36.1176 7.69771 35.03 8.00883 33.789C9.07707 29.5294 8.41059 24.8724 6.13203 20.6758C4.97539 18.5458 4.46139 16.1279 4.64539 13.6846C5.11395 7.46745 10.1577 2.45737 16.3778 2.03065C19.9332 1.78865 23.3171 2.98577 25.9088 5.40553C28.4647 7.79201 29.9306 11.1659 29.9306 14.6611C29.9306 15.2582 29.8806 15.8766 29.778 16.5445L32.0545 20.0023C32.3619 20.4692 32.388 21.0648 32.1228 21.5564C31.8579 22.0479 31.3463 22.3535 30.7877 22.3535H30.4454C30.4008 22.6389 30.1536 22.8576 29.8556 22.8576C29.526 22.8576 29.2587 22.5903 29.2587 22.2606C29.2587 21.6533 29.7525 21.1595 30.3598 21.1595H30.7877C30.9617 21.1595 31.0444 21.041 31.0718 20.9897C31.0992 20.9388 31.1529 20.8046 31.0573 20.6591L28.6531 17.0072C28.57 16.8813 28.5379 16.7283 28.563 16.5795C28.6799 15.8874 28.7365 15.26 28.7365 14.6611C28.7365 11.4953 27.4089 8.43985 25.0938 6.27817C22.7469 4.08657 19.6824 3.00313 16.4594 3.22185C10.8274 3.60809 6.26019 8.14465 5.83611 13.7741C5.66915 15.9885 6.13435 18.1778 7.18139 20.1059C9.60315 24.5665 10.3081 29.5289 9.16683 34.0791C8.92643 35.039 8.63475 35.9176 8.29611 36.7035H20.2688V35.4466C20.2688 35.1168 20.536 34.8495 20.8657 34.8495C21.1955 34.8495 21.4628 35.1168 21.4628 35.4466V37.3005C21.4628 37.6302 21.1955 37.8974 20.8657 37.8974Z" fill="black" stroke="black" stroke-width="2" mask="url(#path-2-inside-1_101_2944)"/>
<path d="M25.5563 37.8976H5.73612C5.40636 37.8976 5.13916 37.6303 5.13916 37.3006C5.13916 36.9709 5.40636 36.7036 5.73612 36.7036H25.5563C25.886 36.7036 26.1533 36.9709 26.1533 37.3006C26.1532 37.6303 25.886 37.8976 25.5563 37.8976Z" fill="black"/>
<path d="M28.6395 30.0925C28.5376 30.0925 28.4342 30.0664 28.3398 30.0114C26.8725 29.1583 26.7137 27.6622 26.8809 26.6766L23.2816 24.8623C22.9871 24.7141 22.8688 24.355 23.0171 24.0606C23.1657 23.7663 23.5248 23.6483 23.8188 23.7962L27.8431 25.8246C28.1106 25.9593 28.2368 26.2714 28.1381 26.554C28.1167 26.6183 27.6013 28.2008 28.9401 28.9797C29.2251 29.1453 29.3219 29.5105 29.1561 29.7954C29.0453 29.9862 28.8452 30.0925 28.6395 30.0925Z" fill="black"/>
<path d="M31.0611 38.0002C30.9706 38.0002 30.879 37.9797 30.7927 37.9363L29.3144 37.191C28.3275 36.6938 27.2735 36.3487 26.1819 36.1654L25.3787 36.0311C24.8039 35.935 24.25 35.7531 23.7313 35.4919L19.4149 33.3161C19.1203 33.1679 19.0021 32.8088 19.1504 32.5145C19.299 32.2201 19.6583 32.1017 19.9521 32.25L24.2688 34.4257C24.6802 34.6333 25.1201 34.7774 25.5759 34.8539L26.3788 34.9882C27.5891 35.1911 28.7577 35.5735 29.8519 36.1249L31.3303 36.8701C31.6247 37.0184 31.7428 37.3776 31.5946 37.6718C31.4896 37.8804 31.2793 38.0002 31.0611 38.0002Z" fill="black"/>
<mask id="path-6-inside-2_101_2944" fill="white">
<path d="M34.7941 30.5934C34.7039 30.5934 34.6122 30.5729 34.5259 30.5295L31.4783 28.9937C31.3435 28.9256 31.2395 28.8094 31.187 28.6676L30.1517 25.8688C29.8917 25.1655 29.3796 24.5923 28.7101 24.2546L24.6946 22.2309C24.2448 22.0038 23.703 22.1316 23.4622 22.5214C23.3272 22.7397 23.2909 22.9949 23.3598 23.2393C23.429 23.4841 23.5921 23.6818 23.8189 23.7962C24.1135 23.9444 24.2317 24.3036 24.0834 24.5978C23.9353 24.8926 23.5767 25.0106 23.2817 24.8623C22.7601 24.5993 22.3697 24.1264 22.2109 23.5639C22.0521 23.0019 22.1379 22.3933 22.4465 21.8938C23.0101 20.9815 24.2344 20.6621 25.232 21.1648L29.2474 23.1885C30.1877 23.6624 30.9066 24.4674 31.2716 25.4546L32.2256 28.0334L35.0633 29.4634C35.3578 29.6117 35.4761 29.9708 35.3278 30.2651C35.2227 30.4735 35.0124 30.5934 34.7941 30.5934Z"/>
</mask>
<path d="M34.7941 30.5934C34.7039 30.5934 34.6122 30.5729 34.5259 30.5295L31.4783 28.9937C31.3435 28.9256 31.2395 28.8094 31.187 28.6676L30.1517 25.8688C29.8917 25.1655 29.3796 24.5923 28.7101 24.2546L24.6946 22.2309C24.2448 22.0038 23.703 22.1316 23.4622 22.5214C23.3272 22.7397 23.2909 22.9949 23.3598 23.2393C23.429 23.4841 23.5921 23.6818 23.8189 23.7962C24.1135 23.9444 24.2317 24.3036 24.0834 24.5978C23.9353 24.8926 23.5767 25.0106 23.2817 24.8623C22.7601 24.5993 22.3697 24.1264 22.2109 23.5639C22.0521 23.0019 22.1379 22.3933 22.4465 21.8938C23.0101 20.9815 24.2344 20.6621 25.232 21.1648L29.2474 23.1885C30.1877 23.6624 30.9066 24.4674 31.2716 25.4546L32.2256 28.0334L35.0633 29.4634C35.3578 29.6117 35.4761 29.9708 35.3278 30.2651C35.2227 30.4735 35.0124 30.5934 34.7941 30.5934Z" fill="black" stroke="black" stroke-width="2" mask="url(#path-6-inside-2_101_2944)"/>
<mask id="path-7-inside-3_101_2944" fill="white">
<path d="M24.7577 27.998C24.4867 27.998 24.2174 27.9346 23.9683 27.8091L21.3458 26.4874C20.9263 26.2761 20.6143 25.9142 20.4674 25.4679C20.3203 25.022 20.3554 24.5454 20.567 24.1261C20.7784 23.7068 21.1404 23.3948 21.5863 23.2474C22.0324 23.1005 22.5088 23.1359 22.9283 23.3472L25.5508 24.669C25.9703 24.8803 26.2823 25.2422 26.4293 25.6885C26.5764 26.1343 26.5412 26.611 26.3297 27.0303C26.1182 27.4496 25.7563 27.7617 25.3103 27.9091C25.1291 27.9687 24.9431 27.998 24.7577 27.998ZM22.1375 24.3527C22.078 24.3527 22.0183 24.362 21.9603 24.3811C21.8171 24.4287 21.701 24.5285 21.6331 24.6633C21.5652 24.7981 21.5538 24.9511 21.6011 25.0938C21.6483 25.237 21.7486 25.3531 21.8831 25.4212L24.5056 26.743C24.6407 26.8106 24.7936 26.8223 24.9363 26.7751C25.0795 26.7275 25.1957 26.6278 25.2635 26.493C25.4035 26.215 25.2913 25.875 25.0136 25.7351L22.3911 24.4133C22.311 24.3732 22.2245 24.3527 22.1375 24.3527Z"/>
</mask>
<path d="M24.7577 27.998C24.4867 27.998 24.2174 27.9346 23.9683 27.8091L21.3458 26.4874C20.9263 26.2761 20.6143 25.9142 20.4674 25.4679C20.3203 25.022 20.3554 24.5454 20.567 24.1261C20.7784 23.7068 21.1404 23.3948 21.5863 23.2474C22.0324 23.1005 22.5088 23.1359 22.9283 23.3472L25.5508 24.669C25.9703 24.8803 26.2823 25.2422 26.4293 25.6885C26.5764 26.1343 26.5412 26.611 26.3297 27.0303C26.1182 27.4496 25.7563 27.7617 25.3103 27.9091C25.1291 27.9687 24.9431 27.998 24.7577 27.998ZM22.1375 24.3527C22.078 24.3527 22.0183 24.362 21.9603 24.3811C21.8171 24.4287 21.701 24.5285 21.6331 24.6633C21.5652 24.7981 21.5538 24.9511 21.6011 25.0938C21.6483 25.237 21.7486 25.3531 21.8831 25.4212L24.5056 26.743C24.6407 26.8106 24.7936 26.8223 24.9363 26.7751C25.0795 26.7275 25.1957 26.6278 25.2635 26.493C25.4035 26.215 25.2913 25.875 25.0136 25.7351L22.3911 24.4133C22.311 24.3732 22.2245 24.3527 22.1375 24.3527Z" fill="black" stroke="black" stroke-width="2" mask="url(#path-7-inside-3_101_2944)"/>
<mask id="path-8-inside-4_101_2944" fill="white">
<path d="M24.1214 30.2773C23.8556 30.2773 23.586 30.2171 23.3329 30.0893L19.8905 28.3543C19.0248 27.9183 18.6756 26.8587 19.1116 25.993C19.5484 25.1278 20.6083 24.7776 21.473 25.2146L24.9155 26.9496C25.7811 27.3857 26.1304 28.4453 25.6944 29.311C25.3853 29.9233 24.7646 30.2773 24.1214 30.2773ZM20.1778 26.5307C20.038 26.8083 20.15 27.1483 20.4277 27.2882L23.8702 29.0231C24.148 29.1635 24.4882 29.0511 24.6281 28.7731C24.768 28.4956 24.6559 28.1557 24.3781 28.0158L20.9357 26.2808C20.6584 26.1403 20.318 26.2523 20.1778 26.5307Z"/>
</mask>
<path d="M24.1214 30.2773C23.8556 30.2773 23.586 30.2171 23.3329 30.0893L19.8905 28.3543C19.0248 27.9183 18.6756 26.8587 19.1116 25.993C19.5484 25.1278 20.6083 24.7776 21.473 25.2146L24.9155 26.9496C25.7811 27.3857 26.1304 28.4453 25.6944 29.311C25.3853 29.9233 24.7646 30.2773 24.1214 30.2773ZM20.1778 26.5307C20.038 26.8083 20.15 27.1483 20.4277 27.2882L23.8702 29.0231C24.148 29.1635 24.4882 29.0511 24.6281 28.7731C24.768 28.4956 24.6559 28.1557 24.3781 28.0158L20.9357 26.2808C20.6584 26.1403 20.318 26.2523 20.1778 26.5307Z" fill="black" stroke="black" stroke-width="2" mask="url(#path-8-inside-4_101_2944)"/>
<mask id="path-9-inside-5_101_2944" fill="white">
<path d="M22.6674 32.1456C22.3964 32.1456 22.1271 32.0821 21.878 31.9567L19.2555 30.635C18.8359 30.4237 18.5239 30.0618 18.3771 29.6155C18.2299 29.1696 18.2651 28.6929 18.4767 28.2736C18.6882 27.8543 19.05 27.5423 19.4959 27.3949C19.9418 27.2479 20.4183 27.2834 20.838 27.4947L23.4605 28.8164C23.88 29.0277 24.192 29.3897 24.339 29.8359C24.4861 30.2818 24.4509 30.7585 24.2394 31.1778C24.0279 31.5971 23.6659 31.9091 23.22 32.0565C23.0389 32.1162 22.8528 32.1456 22.6674 32.1456ZM20.0472 28.5003C19.9877 28.5003 19.928 28.5095 19.8699 28.5287C19.7267 28.5763 19.6107 28.6761 19.5427 28.8108C19.4029 29.0888 19.515 29.4288 19.7927 29.5687L22.4152 30.8905C22.5499 30.9582 22.703 30.9698 22.8459 30.9227C22.9891 30.8751 23.1053 30.7753 23.1731 30.6406C23.2411 30.5058 23.2524 30.3528 23.2051 30.21C23.1579 30.0669 23.0577 29.9507 22.9231 29.8827L20.3006 28.5609C20.2207 28.5207 20.1342 28.5003 20.0472 28.5003Z"/>
</mask>
<path d="M22.6674 32.1456C22.3964 32.1456 22.1271 32.0821 21.878 31.9567L19.2555 30.635C18.8359 30.4237 18.5239 30.0618 18.3771 29.6155C18.2299 29.1696 18.2651 28.6929 18.4767 28.2736C18.6882 27.8543 19.05 27.5423 19.4959 27.3949C19.9418 27.2479 20.4183 27.2834 20.838 27.4947L23.4605 28.8164C23.88 29.0277 24.192 29.3897 24.339 29.8359C24.4861 30.2818 24.4509 30.7585 24.2394 31.1778C24.0279 31.5971 23.6659 31.9091 23.22 32.0565C23.0389 32.1162 22.8528 32.1456 22.6674 32.1456ZM20.0472 28.5003C19.9877 28.5003 19.928 28.5095 19.8699 28.5287C19.7267 28.5763 19.6107 28.6761 19.5427 28.8108C19.4029 29.0888 19.515 29.4288 19.7927 29.5687L22.4152 30.8905C22.5499 30.9582 22.703 30.9698 22.8459 30.9227C22.9891 30.8751 23.1053 30.7753 23.1731 30.6406C23.2411 30.5058 23.2524 30.3528 23.2051 30.21C23.1579 30.0669 23.0577 29.9507 22.9231 29.8827L20.3006 28.5609C20.2207 28.5207 20.1342 28.5003 20.0472 28.5003Z" fill="black" stroke="black" stroke-width="2" mask="url(#path-9-inside-5_101_2944)"/>
<mask id="path-10-inside-6_101_2944" fill="white">
<path d="M21.2635 34.039C20.9925 34.039 20.7232 33.9756 20.4741 33.8502L19.1151 33.165C18.696 32.9542 18.384 32.5922 18.2368 32.146C18.0897 31.7001 18.1251 31.2234 18.3364 30.8042C18.548 30.3849 18.9099 30.0729 19.3557 29.9255C19.8016 29.7781 20.2785 29.8135 20.6978 30.0253L22.0566 30.7099C22.4761 30.9212 22.7881 31.2831 22.935 31.7294C23.0821 32.1753 23.047 32.6519 22.8354 33.0713C22.624 33.4906 22.262 33.8026 21.8161 33.95C21.635 34.0097 21.4488 34.039 21.2635 34.039ZM19.4026 31.3414C19.335 31.4762 19.3236 31.6292 19.3707 31.772C19.418 31.9151 19.5178 32.0313 19.6524 32.0989L21.0117 32.7841C21.146 32.8517 21.2993 32.8638 21.4423 32.8162C21.5854 32.7686 21.7016 32.6689 21.7695 32.5341C21.8373 32.3994 21.8488 32.2464 21.8014 32.1036C21.7543 31.9605 21.654 31.8442 21.5194 31.7762L20.1606 31.0915C20.0259 31.0239 19.8731 31.0122 19.7299 31.0594C19.5866 31.1068 19.4704 31.2066 19.4026 31.3414Z"/>
</mask>
<path d="M21.2635 34.039C20.9925 34.039 20.7232 33.9756 20.4741 33.8502L19.1151 33.165C18.696 32.9542 18.384 32.5922 18.2368 32.146C18.0897 31.7001 18.1251 31.2234 18.3364 30.8042C18.548 30.3849 18.9099 30.0729 19.3557 29.9255C19.8016 29.7781 20.2785 29.8135 20.6978 30.0253L22.0566 30.7099C22.4761 30.9212 22.7881 31.2831 22.935 31.7294C23.0821 32.1753 23.047 32.6519 22.8354 33.0713C22.624 33.4906 22.262 33.8026 21.8161 33.95C21.635 34.0097 21.4488 34.039 21.2635 34.039ZM19.4026 31.3414C19.335 31.4762 19.3236 31.6292 19.3707 31.772C19.418 31.9151 19.5178 32.0313 19.6524 32.0989L21.0117 32.7841C21.146 32.8517 21.2993 32.8638 21.4423 32.8162C21.5854 32.7686 21.7016 32.6689 21.7695 32.5341C21.8373 32.3994 21.8488 32.2464 21.8014 32.1036C21.7543 31.9605 21.654 31.8442 21.5194 31.7762L20.1606 31.0915C20.0259 31.0239 19.8731 31.0122 19.7299 31.0594C19.5866 31.1068 19.4704 31.2066 19.4026 31.3414Z" fill="black" stroke="black" stroke-width="2" mask="url(#path-10-inside-6_101_2944)"/>
<mask id="path-11-inside-7_101_2944" fill="white">
<path d="M21.7784 20.2935C21.6184 20.2935 21.4589 20.2296 21.3416 20.1037C21.1189 19.8635 21.1287 19.4908 21.3666 19.2656C21.9711 18.6938 23.6287 17.8991 25.5759 18.9815C25.8641 19.142 25.9676 19.5053 25.8074 19.7935C25.647 20.0818 25.2834 20.1848 24.9956 20.0253C23.3432 19.107 22.2302 20.0939 22.1835 20.1368C22.0685 20.2413 21.9232 20.2935 21.7784 20.2935Z"/>
</mask>
<path d="M21.7784 20.2935C21.6184 20.2935 21.4589 20.2296 21.3416 20.1037C21.1189 19.8635 21.1287 19.4908 21.3666 19.2656C21.9711 18.6938 23.6287 17.8991 25.5759 18.9815C25.8641 19.142 25.9676 19.5053 25.8074 19.7935C25.647 20.0818 25.2834 20.1848 24.9956 20.0253C23.3432 19.107 22.2302 20.0939 22.1835 20.1368C22.0685 20.2413 21.9232 20.2935 21.7784 20.2935Z" fill="black" stroke="black" stroke-width="2" mask="url(#path-11-inside-7_101_2944)"/>
<path d="M17.2195 27.5095C16.9164 27.5095 16.6569 27.2795 16.6263 26.9717C16.3426 24.1192 18.0094 23.1076 18.9306 22.9714C19.2554 22.9187 19.5602 23.1482 19.6084 23.4742C19.6565 23.7984 19.4347 24.1001 19.1119 24.1515C18.9485 24.1809 17.5798 24.498 17.8142 26.8533C17.8468 27.1817 17.6073 27.4741 17.2794 27.5068C17.2592 27.5085 17.2394 27.5095 17.2195 27.5095Z" fill="black"/>
<mask id="path-13-inside-8_101_2944" fill="white">
<path d="M17.585 34.5833C17.4945 34.5833 17.4029 34.5627 17.3166 34.5194C16.3339 34.0235 15.7119 33.3566 15.4677 32.5377C15.1259 31.3908 15.6893 30.3955 15.7133 30.3539C15.8784 30.068 16.2431 29.9702 16.529 30.1357C16.8133 30.2999 16.9112 30.6623 16.7494 30.9473C16.7394 30.9655 16.418 31.5658 16.6155 32.2083C16.7652 32.6953 17.1819 33.1141 17.8543 33.4531C18.1487 33.6019 18.2667 33.9611 18.1182 34.2554C18.0134 34.4635 17.8033 34.5833 17.585 34.5833Z"/>
</mask>
<path d="M17.585 34.5833C17.4945 34.5833 17.4029 34.5627 17.3166 34.5194C16.3339 34.0235 15.7119 33.3566 15.4677 32.5377C15.1259 31.3908 15.6893 30.3955 15.7133 30.3539C15.8784 30.068 16.2431 29.9702 16.529 30.1357C16.8133 30.2999 16.9112 30.6623 16.7494 30.9473C16.7394 30.9655 16.418 31.5658 16.6155 32.2083C16.7652 32.6953 17.1819 33.1141 17.8543 33.4531C18.1487 33.6019 18.2667 33.9611 18.1182 34.2554C18.0134 34.4635 17.8033 34.5833 17.585 34.5833Z" fill="black" stroke="black" stroke-width="2" mask="url(#path-13-inside-8_101_2944)"/>
<rect x="-16.5" y="-16.5" width="319" height="73" rx="5.5" stroke="#FDE68A"/>
</g>
<defs>
<linearGradient id="paint0_linear_101_2944" x1="187.5" y1="0" x2="187.5" y2="812" gradientUnits="userSpaceOnUse">
<stop offset="0.585635" stop-color="#FDFCF8"/>
<stop offset="1" stop-color="white"/>
</linearGradient>
<clipPath id="clip0_101_2944">
<rect width="375" height="812" fill="white" transform="translate(-49 -260)"/>
</clipPath>
</defs>
</svg>
