<svg width="31" height="36" viewBox="0 0 31 36" fill="none" xmlns="http://www.w3.org/2000/svg">
<mask id="path-1-inside-1_1440_15296" fill="white">
<path d="M16.2568 35.8974H2.74275C2.53387 35.8974 2.33987 35.7882 2.23187 35.6092C2.12371 35.4301 2.11707 35.2076 2.21435 35.0224C2.68987 34.1176 3.08883 33.03 3.39995 31.789C4.46819 27.5294 3.80171 22.8724 1.52315 18.6758C0.366506 16.5458 -0.147494 14.1279 0.036506 11.6846C0.505066 5.46745 5.54883 0.457371 11.7689 0.0306506C15.3243 -0.211349 18.7082 0.985771 21.2999 3.40553C23.8558 5.79201 25.3217 9.16593 25.3217 12.6611C25.3217 13.2582 25.2717 13.8766 25.1691 14.5445L27.4456 18.0023C27.753 18.4692 27.7791 19.0648 27.5139 19.5564C27.249 20.0479 26.7374 20.3535 26.1788 20.3535H25.8365C25.7919 20.6389 25.5447 20.8576 25.2467 20.8576C24.9171 20.8576 24.6498 20.5903 24.6498 20.2606C24.6498 19.6533 25.1436 19.1595 25.7509 19.1595H26.1788C26.3528 19.1595 26.4355 19.041 26.4629 18.9897C26.4903 18.9388 26.544 18.8046 26.4484 18.6591L24.0442 15.0072C23.9611 14.8813 23.929 14.7283 23.9541 14.5795C24.071 13.8874 24.1276 13.26 24.1276 12.6611C24.1276 9.49529 22.8 6.43985 20.4849 4.27817C18.138 2.08657 15.0735 1.00313 11.8505 1.22185C6.21851 1.60809 1.65131 6.14465 1.22723 11.7741C1.06027 13.9885 1.52547 16.1778 2.57251 18.1059C4.99427 22.5665 5.69923 27.5289 4.55795 32.0791C4.31755 33.039 4.02587 33.9176 3.68723 34.7035H15.6599V33.4466C15.6599 33.1168 15.9271 32.8495 16.2568 32.8495C16.5866 32.8495 16.8539 33.1168 16.8539 33.4466V35.3005C16.8539 35.6302 16.5866 35.8974 16.2568 35.8974Z"/>
<path d="M20.9474 35.8974H1.12723C0.797466 35.8974 0.530266 35.6302 0.530266 35.3004C0.530266 34.9707 0.797466 34.7034 1.12723 34.7034H20.9474C21.2771 34.7034 21.5444 34.9707 21.5444 35.3004C21.5443 35.6302 21.2771 35.8974 20.9474 35.8974Z"/>
<path d="M24.0305 28.0923C23.9286 28.0923 23.8252 28.0662 23.7308 28.0111C22.2635 27.1581 22.1047 25.6619 22.2719 24.6764L18.6726 22.8621C18.3781 22.7138 18.2598 22.3547 18.4081 22.0604C18.5567 21.7661 18.9158 21.6481 19.2098 21.7959L23.2341 23.8243C23.5016 23.959 23.6278 24.2711 23.5291 24.5538C23.5077 24.6181 22.9923 26.2006 24.3311 26.9795C24.6161 27.1451 24.7129 27.5102 24.5471 27.7952C24.4363 27.9859 24.2362 28.0923 24.0305 28.0923Z"/>
<path d="M26.452 36C26.3615 36 26.2699 35.9794 26.1836 35.9361L24.7054 35.1908C23.7185 34.6936 22.6644 34.3485 21.5728 34.1652L20.7696 34.0309C20.1948 33.9348 19.641 33.7529 19.1223 33.4917L14.8059 31.3159C14.5113 31.1677 14.3931 30.8086 14.5414 30.5143C14.6899 30.2199 15.0492 30.1015 15.3431 30.2498L19.6598 32.4255C20.0711 32.633 20.5111 32.7772 20.9669 32.8537L21.7698 32.988C22.9801 33.1909 24.1487 33.5733 25.2428 34.1247L26.7213 34.8699C27.0156 35.0182 27.1338 35.3774 26.9855 35.6716C26.8806 35.8802 26.6703 36 26.452 36Z"/>
<path d="M30.1851 28.5932C30.0948 28.5932 30.0031 28.5727 29.9168 28.5293L26.8692 26.9935C26.7344 26.9254 26.6304 26.8092 26.5779 26.6674L25.5426 23.8686C25.2826 23.1653 24.7705 22.5921 24.101 22.2544L20.0855 20.2307C19.6357 20.0035 19.0939 20.1314 18.8531 20.5212C18.7181 20.7395 18.6818 20.9947 18.7507 21.2391C18.8199 21.4839 18.9829 21.6816 19.2098 21.7959C19.5043 21.9442 19.6227 22.3034 19.4743 22.5976C19.3263 22.8924 18.9675 23.0104 18.6726 22.8621C18.1509 22.599 17.7606 22.1262 17.6019 21.5637C17.443 21.0017 17.5288 20.3931 17.8374 19.8935C18.4011 18.9813 19.6253 18.6619 20.6229 19.1646L24.6383 21.1883C25.5787 21.6622 26.2975 22.4671 26.6625 23.4544L27.6165 26.0331L30.4543 27.4631C30.7487 27.6115 30.8671 27.9706 30.7187 28.2649C30.6136 28.4733 30.4033 28.5932 30.1851 28.5932Z"/>
<path d="M20.1487 25.9982C19.8777 25.9982 19.6083 25.9347 19.3593 25.8093L16.7367 24.4875C16.3172 24.2762 16.0052 23.9143 15.8583 23.4681C15.7112 23.0222 15.7463 22.5455 15.9579 22.1262C16.1694 21.707 16.5314 21.395 16.9772 21.2475C17.4234 21.1006 17.8998 21.1361 18.3193 21.3474L20.9418 22.6691C21.3613 22.8804 21.6733 23.2423 21.8203 23.6886C21.9674 24.1345 21.9322 24.6111 21.7207 25.0305C21.5091 25.4498 21.1472 25.7618 20.7013 25.9092C20.5201 25.9688 20.3341 25.9982 20.1487 25.9982ZM17.5285 22.3528C17.469 22.3528 17.4093 22.3622 17.3512 22.3813C17.2081 22.4289 17.0919 22.5286 17.024 22.6634C16.9562 22.7982 16.9447 22.9512 16.9921 23.0939C17.0392 23.2371 17.1395 23.3533 17.2741 23.4214L19.8966 24.7431C20.0316 24.8107 20.1846 24.8224 20.3273 24.7753C20.4705 24.7277 20.5867 24.6279 20.6545 24.4931C20.7944 24.2151 20.6823 23.8751 20.4046 23.7352L17.782 22.4134C17.7019 22.3734 17.6155 22.3528 17.5285 22.3528Z"/>
<path d="M19.5125 28.2774C19.2467 28.2774 18.9771 28.2173 18.724 28.0895L15.2816 26.3545C14.4159 25.9184 14.0667 24.8588 14.5027 23.9931C14.9395 23.1279 15.9994 22.7778 16.8641 23.2147L20.3066 24.9498C21.1722 25.3859 21.5215 26.4455 21.0855 27.3111C20.7764 27.9235 20.1557 28.2774 19.5125 28.2774ZM15.5689 24.5309C15.4291 24.8084 15.5411 25.1484 15.8188 25.2883L19.2613 27.0233C19.5391 27.1637 19.8793 27.0513 20.0192 26.7733C20.1591 26.4958 20.047 26.1559 19.7692 26.0159L16.3268 24.281C16.0495 24.1405 15.7091 24.2525 15.5689 24.5309Z"/>
<path d="M18.0583 30.1458C17.7873 30.1458 17.5179 30.0823 17.2689 29.957L14.6463 28.6352C14.2268 28.4239 13.9148 28.062 13.7679 27.6157C13.6208 27.1699 13.6559 26.6931 13.8675 26.2738C14.0791 25.8546 14.4409 25.5425 14.8868 25.3951C15.3327 25.2482 15.8092 25.2836 16.2289 25.4949L18.8514 26.8167C19.2709 27.0279 19.5829 27.3899 19.7299 27.8362C19.877 28.282 19.8418 28.7587 19.6303 29.178C19.4187 29.5973 19.0568 29.9094 18.6109 30.0567C18.4298 30.1164 18.2437 30.1458 18.0583 30.1458ZM15.4381 26.5005C15.3786 26.5005 15.3189 26.5098 15.2608 26.529C15.1176 26.5766 15.0015 26.6763 14.9336 26.811C14.7938 27.089 14.9059 27.429 15.1836 27.569L17.8061 28.8907C17.9407 28.9584 18.0939 28.97 18.2368 28.923C18.38 28.8754 18.4962 28.7755 18.564 28.6408C18.6319 28.506 18.6433 28.353 18.5959 28.2102C18.5488 28.0671 18.4486 27.951 18.314 27.8829L15.6915 26.5611C15.6116 26.521 15.5251 26.5005 15.4381 26.5005Z"/>
<path d="M16.6544 32.0389C16.3835 32.0389 16.1142 31.9755 15.8651 31.85L14.506 31.1649C14.0869 30.954 13.775 30.5921 13.6278 30.1458C13.4807 29.6999 13.516 29.2233 13.7274 28.804C13.9389 28.3847 14.3008 28.0727 14.7467 27.9254C15.1925 27.7779 15.6695 27.8134 16.0887 28.0251L17.4475 28.7098C17.8671 28.9211 18.1791 29.283 18.3259 29.7293C18.4731 30.1751 18.4379 30.6518 18.2263 31.0711C18.0149 31.4904 17.6529 31.8025 17.2071 31.9498C17.0259 32.0095 16.8398 32.0389 16.6544 32.0389ZM14.7935 29.3413C14.7259 29.4761 14.7145 29.6291 14.7616 29.7719C14.809 29.915 14.9087 30.0311 15.0433 30.0987L16.4027 30.7839C16.537 30.8515 16.6903 30.8637 16.8332 30.8161C16.9763 30.7685 17.0925 30.6687 17.1604 30.5339C17.2283 30.3992 17.2397 30.2462 17.1923 30.1034C17.1452 29.9603 17.045 29.8441 16.9103 29.776L15.5515 29.0914C15.4168 29.0238 15.264 29.0121 15.1208 29.0592C14.9775 29.1066 14.8614 29.2065 14.7935 29.3413Z"/>
<path d="M17.1694 18.2938C17.0094 18.2938 16.8499 18.2299 16.7326 18.1039C16.5099 17.8637 16.5197 17.4911 16.7575 17.2659C17.362 16.694 19.0196 15.8993 20.9668 16.9818C21.2551 17.1423 21.3586 17.5055 21.1983 17.7938C21.0379 18.082 20.6743 18.1851 20.3866 18.0255C18.7342 17.1072 17.6211 18.0941 17.5744 18.1371C17.4595 18.2415 17.3141 18.2938 17.1694 18.2938Z"/>
<path d="M12.6107 25.5095C12.3076 25.5095 12.0481 25.2794 12.0175 24.9716C11.7338 22.1191 13.4006 21.1075 14.3218 20.9714C14.6467 20.9186 14.9514 21.1482 14.9996 21.4742C15.0477 21.7983 14.8259 22.1001 14.5031 22.1515C14.3397 22.1808 12.971 22.4979 13.2054 24.8533C13.238 25.1816 12.9985 25.4741 12.6707 25.5067C12.6504 25.5084 12.6306 25.5095 12.6107 25.5095Z"/>
<path d="M12.9762 32.5832C12.8857 32.5832 12.7941 32.5627 12.7078 32.5193C11.7251 32.0235 11.1031 31.3565 10.8589 30.5376C10.5171 29.3907 11.0805 28.3955 11.1045 28.3539C11.2696 28.0679 11.6343 27.9701 11.9202 28.1356C12.2045 28.2998 12.3024 28.6622 12.1406 28.9472C12.1306 28.9654 11.8092 29.5657 12.0067 30.2083C12.1564 30.6952 12.5731 31.114 13.2455 31.4531C13.5399 31.6019 13.6579 31.961 13.5094 32.2553C13.4046 32.4634 13.1945 32.5832 12.9762 32.5832Z"/>
</mask>
<path d="M16.2568 35.8974H2.74275C2.53387 35.8974 2.33987 35.7882 2.23187 35.6092C2.12371 35.4301 2.11707 35.2076 2.21435 35.0224C2.68987 34.1176 3.08883 33.03 3.39995 31.789C4.46819 27.5294 3.80171 22.8724 1.52315 18.6758C0.366506 16.5458 -0.147494 14.1279 0.036506 11.6846C0.505066 5.46745 5.54883 0.457371 11.7689 0.0306506C15.3243 -0.211349 18.7082 0.985771 21.2999 3.40553C23.8558 5.79201 25.3217 9.16593 25.3217 12.6611C25.3217 13.2582 25.2717 13.8766 25.1691 14.5445L27.4456 18.0023C27.753 18.4692 27.7791 19.0648 27.5139 19.5564C27.249 20.0479 26.7374 20.3535 26.1788 20.3535H25.8365C25.7919 20.6389 25.5447 20.8576 25.2467 20.8576C24.9171 20.8576 24.6498 20.5903 24.6498 20.2606C24.6498 19.6533 25.1436 19.1595 25.7509 19.1595H26.1788C26.3528 19.1595 26.4355 19.041 26.4629 18.9897C26.4903 18.9388 26.544 18.8046 26.4484 18.6591L24.0442 15.0072C23.9611 14.8813 23.929 14.7283 23.9541 14.5795C24.071 13.8874 24.1276 13.26 24.1276 12.6611C24.1276 9.49529 22.8 6.43985 20.4849 4.27817C18.138 2.08657 15.0735 1.00313 11.8505 1.22185C6.21851 1.60809 1.65131 6.14465 1.22723 11.7741C1.06027 13.9885 1.52547 16.1778 2.57251 18.1059C4.99427 22.5665 5.69923 27.5289 4.55795 32.0791C4.31755 33.039 4.02587 33.9176 3.68723 34.7035H15.6599V33.4466C15.6599 33.1168 15.9271 32.8495 16.2568 32.8495C16.5866 32.8495 16.8539 33.1168 16.8539 33.4466V35.3005C16.8539 35.6302 16.5866 35.8974 16.2568 35.8974Z" fill="black"/>
<path d="M20.9474 35.8974H1.12723C0.797466 35.8974 0.530266 35.6302 0.530266 35.3004C0.530266 34.9707 0.797466 34.7034 1.12723 34.7034H20.9474C21.2771 34.7034 21.5444 34.9707 21.5444 35.3004C21.5443 35.6302 21.2771 35.8974 20.9474 35.8974Z" fill="black"/>
<path d="M24.0305 28.0923C23.9286 28.0923 23.8252 28.0662 23.7308 28.0111C22.2635 27.1581 22.1047 25.6619 22.2719 24.6764L18.6726 22.8621C18.3781 22.7138 18.2598 22.3547 18.4081 22.0604C18.5567 21.7661 18.9158 21.6481 19.2098 21.7959L23.2341 23.8243C23.5016 23.959 23.6278 24.2711 23.5291 24.5538C23.5077 24.6181 22.9923 26.2006 24.3311 26.9795C24.6161 27.1451 24.7129 27.5102 24.5471 27.7952C24.4363 27.9859 24.2362 28.0923 24.0305 28.0923Z" fill="black"/>
<path d="M26.452 36C26.3615 36 26.2699 35.9794 26.1836 35.9361L24.7054 35.1908C23.7185 34.6936 22.6644 34.3485 21.5728 34.1652L20.7696 34.0309C20.1948 33.9348 19.641 33.7529 19.1223 33.4917L14.8059 31.3159C14.5113 31.1677 14.3931 30.8086 14.5414 30.5143C14.6899 30.2199 15.0492 30.1015 15.3431 30.2498L19.6598 32.4255C20.0711 32.633 20.5111 32.7772 20.9669 32.8537L21.7698 32.988C22.9801 33.1909 24.1487 33.5733 25.2428 34.1247L26.7213 34.8699C27.0156 35.0182 27.1338 35.3774 26.9855 35.6716C26.8806 35.8802 26.6703 36 26.452 36Z" fill="black"/>
<path d="M30.1851 28.5932C30.0948 28.5932 30.0031 28.5727 29.9168 28.5293L26.8692 26.9935C26.7344 26.9254 26.6304 26.8092 26.5779 26.6674L25.5426 23.8686C25.2826 23.1653 24.7705 22.5921 24.101 22.2544L20.0855 20.2307C19.6357 20.0035 19.0939 20.1314 18.8531 20.5212C18.7181 20.7395 18.6818 20.9947 18.7507 21.2391C18.8199 21.4839 18.9829 21.6816 19.2098 21.7959C19.5043 21.9442 19.6227 22.3034 19.4743 22.5976C19.3263 22.8924 18.9675 23.0104 18.6726 22.8621C18.1509 22.599 17.7606 22.1262 17.6019 21.5637C17.443 21.0017 17.5288 20.3931 17.8374 19.8935C18.4011 18.9813 19.6253 18.6619 20.6229 19.1646L24.6383 21.1883C25.5787 21.6622 26.2975 22.4671 26.6625 23.4544L27.6165 26.0331L30.4543 27.4631C30.7487 27.6115 30.8671 27.9706 30.7187 28.2649C30.6136 28.4733 30.4033 28.5932 30.1851 28.5932Z" fill="black"/>
<path d="M20.1487 25.9982C19.8777 25.9982 19.6083 25.9347 19.3593 25.8093L16.7367 24.4875C16.3172 24.2762 16.0052 23.9143 15.8583 23.4681C15.7112 23.0222 15.7463 22.5455 15.9579 22.1262C16.1694 21.707 16.5314 21.395 16.9772 21.2475C17.4234 21.1006 17.8998 21.1361 18.3193 21.3474L20.9418 22.6691C21.3613 22.8804 21.6733 23.2423 21.8203 23.6886C21.9674 24.1345 21.9322 24.6111 21.7207 25.0305C21.5091 25.4498 21.1472 25.7618 20.7013 25.9092C20.5201 25.9688 20.3341 25.9982 20.1487 25.9982ZM17.5285 22.3528C17.469 22.3528 17.4093 22.3622 17.3512 22.3813C17.2081 22.4289 17.0919 22.5286 17.024 22.6634C16.9562 22.7982 16.9447 22.9512 16.9921 23.0939C17.0392 23.2371 17.1395 23.3533 17.2741 23.4214L19.8966 24.7431C20.0316 24.8107 20.1846 24.8224 20.3273 24.7753C20.4705 24.7277 20.5867 24.6279 20.6545 24.4931C20.7944 24.2151 20.6823 23.8751 20.4046 23.7352L17.782 22.4134C17.7019 22.3734 17.6155 22.3528 17.5285 22.3528Z" fill="black"/>
<path d="M19.5125 28.2774C19.2467 28.2774 18.9771 28.2173 18.724 28.0895L15.2816 26.3545C14.4159 25.9184 14.0667 24.8588 14.5027 23.9931C14.9395 23.1279 15.9994 22.7778 16.8641 23.2147L20.3066 24.9498C21.1722 25.3859 21.5215 26.4455 21.0855 27.3111C20.7764 27.9235 20.1557 28.2774 19.5125 28.2774ZM15.5689 24.5309C15.4291 24.8084 15.5411 25.1484 15.8188 25.2883L19.2613 27.0233C19.5391 27.1637 19.8793 27.0513 20.0192 26.7733C20.1591 26.4958 20.047 26.1559 19.7692 26.0159L16.3268 24.281C16.0495 24.1405 15.7091 24.2525 15.5689 24.5309Z" fill="black"/>
<path d="M18.0583 30.1458C17.7873 30.1458 17.5179 30.0823 17.2689 29.957L14.6463 28.6352C14.2268 28.4239 13.9148 28.062 13.7679 27.6157C13.6208 27.1699 13.6559 26.6931 13.8675 26.2738C14.0791 25.8546 14.4409 25.5425 14.8868 25.3951C15.3327 25.2482 15.8092 25.2836 16.2289 25.4949L18.8514 26.8167C19.2709 27.0279 19.5829 27.3899 19.7299 27.8362C19.877 28.282 19.8418 28.7587 19.6303 29.178C19.4187 29.5973 19.0568 29.9094 18.6109 30.0567C18.4298 30.1164 18.2437 30.1458 18.0583 30.1458ZM15.4381 26.5005C15.3786 26.5005 15.3189 26.5098 15.2608 26.529C15.1176 26.5766 15.0015 26.6763 14.9336 26.811C14.7938 27.089 14.9059 27.429 15.1836 27.569L17.8061 28.8907C17.9407 28.9584 18.0939 28.97 18.2368 28.923C18.38 28.8754 18.4962 28.7755 18.564 28.6408C18.6319 28.506 18.6433 28.353 18.5959 28.2102C18.5488 28.0671 18.4486 27.951 18.314 27.8829L15.6915 26.5611C15.6116 26.521 15.5251 26.5005 15.4381 26.5005Z" fill="black"/>
<path d="M16.6544 32.0389C16.3835 32.0389 16.1142 31.9755 15.8651 31.85L14.506 31.1649C14.0869 30.954 13.775 30.5921 13.6278 30.1458C13.4807 29.6999 13.516 29.2233 13.7274 28.804C13.9389 28.3847 14.3008 28.0727 14.7467 27.9254C15.1925 27.7779 15.6695 27.8134 16.0887 28.0251L17.4475 28.7098C17.8671 28.9211 18.1791 29.283 18.3259 29.7293C18.4731 30.1751 18.4379 30.6518 18.2263 31.0711C18.0149 31.4904 17.6529 31.8025 17.2071 31.9498C17.0259 32.0095 16.8398 32.0389 16.6544 32.0389ZM14.7935 29.3413C14.7259 29.4761 14.7145 29.6291 14.7616 29.7719C14.809 29.915 14.9087 30.0311 15.0433 30.0987L16.4027 30.7839C16.537 30.8515 16.6903 30.8637 16.8332 30.8161C16.9763 30.7685 17.0925 30.6687 17.1604 30.5339C17.2283 30.3992 17.2397 30.2462 17.1923 30.1034C17.1452 29.9603 17.045 29.8441 16.9103 29.776L15.5515 29.0914C15.4168 29.0238 15.264 29.0121 15.1208 29.0592C14.9775 29.1066 14.8614 29.2065 14.7935 29.3413Z" fill="black"/>
<path d="M17.1694 18.2938C17.0094 18.2938 16.8499 18.2299 16.7326 18.1039C16.5099 17.8637 16.5197 17.4911 16.7575 17.2659C17.362 16.694 19.0196 15.8993 20.9668 16.9818C21.2551 17.1423 21.3586 17.5055 21.1983 17.7938C21.0379 18.082 20.6743 18.1851 20.3866 18.0255C18.7342 17.1072 17.6211 18.0941 17.5744 18.1371C17.4595 18.2415 17.3141 18.2938 17.1694 18.2938Z" fill="black"/>
<path d="M12.6107 25.5095C12.3076 25.5095 12.0481 25.2794 12.0175 24.9716C11.7338 22.1191 13.4006 21.1075 14.3218 20.9714C14.6467 20.9186 14.9514 21.1482 14.9996 21.4742C15.0477 21.7983 14.8259 22.1001 14.5031 22.1515C14.3397 22.1808 12.971 22.4979 13.2054 24.8533C13.238 25.1816 12.9985 25.4741 12.6707 25.5067C12.6504 25.5084 12.6306 25.5095 12.6107 25.5095Z" fill="black"/>
<path d="M12.9762 32.5832C12.8857 32.5832 12.7941 32.5627 12.7078 32.5193C11.7251 32.0235 11.1031 31.3565 10.8589 30.5376C10.5171 29.3907 11.0805 28.3955 11.1045 28.3539C11.2696 28.0679 11.6343 27.9701 11.9202 28.1356C12.2045 28.2998 12.3024 28.6622 12.1406 28.9472C12.1306 28.9654 11.8092 29.5657 12.0067 30.2083C12.1564 30.6952 12.5731 31.114 13.2455 31.4531C13.5399 31.6019 13.6579 31.961 13.5094 32.2553C13.4046 32.4634 13.1945 32.5832 12.9762 32.5832Z" fill="black"/>
<path d="M2.23187 35.6092L3.08815 35.0927L3.0879 35.0923L2.23187 35.6092ZM2.21435 35.0224L1.32915 34.5572L1.32905 34.5574L2.21435 35.0224ZM3.39995 31.789L2.42998 31.5457L2.42996 31.5458L3.39995 31.789ZM1.52315 18.6758L2.40197 18.1986L2.40194 18.1986L1.52315 18.6758ZM0.036506 11.6846L-0.960666 11.6094L-0.960671 11.6095L0.036506 11.6846ZM11.7689 0.0306506L11.701 -0.967041L11.7005 -0.967004L11.7689 0.0306506ZM21.2999 3.40553L21.9824 2.67462L21.9824 2.67459L21.2999 3.40553ZM25.1691 14.5445L24.1807 14.3927L24.1223 14.773L24.3339 15.0944L25.1691 14.5445ZM27.4456 18.0023L28.2809 17.4525L28.2809 17.4524L27.4456 18.0023ZM27.5139 19.5564L26.6338 19.0817L26.6337 19.0819L27.5139 19.5564ZM25.8365 20.3535V19.3535H24.9805L24.8485 20.1992L25.8365 20.3535ZM26.4629 18.9897L25.5827 18.515L25.5806 18.519L26.4629 18.9897ZM26.4484 18.6591L27.2842 18.11L27.2837 18.1092L26.4484 18.6591ZM24.0442 15.0072L24.8794 14.4573L24.879 14.4567L24.0442 15.0072ZM23.9541 14.5795L22.9681 14.4129L22.9681 14.413L23.9541 14.5795ZM20.4849 4.27817L19.8024 5.00904L19.8024 5.00908L20.4849 4.27817ZM11.8505 1.22185L11.7828 0.224145L11.7821 0.224194L11.8505 1.22185ZM1.22723 11.7741L2.2244 11.8493L2.2244 11.8492L1.22723 11.7741ZM2.57251 18.1059L3.45134 17.6287L3.45129 17.6286L2.57251 18.1059ZM4.55795 32.0791L3.58799 31.8358L3.58791 31.8362L4.55795 32.0791ZM3.68723 34.7035L2.76885 34.3078L2.16746 35.7035H3.68723V34.7035ZM15.6599 34.7035V35.7035H16.6599V34.7035H15.6599ZM21.5444 35.3004L22.5444 35.3007V35.3004H21.5444ZM23.7308 28.0111L24.2345 27.1472L24.2334 27.1466L23.7308 28.0111ZM22.2719 24.6764L23.2579 24.8437L23.3814 24.1158L22.7221 23.7834L22.2719 24.6764ZM18.4081 22.0604L17.5154 21.6098L17.5151 21.6104L18.4081 22.0604ZM23.2341 23.8243L22.784 24.7173L22.7843 24.7175L23.2341 23.8243ZM23.5291 24.5538L22.5849 24.2242L22.5805 24.2375L23.5291 24.5538ZM24.3311 26.9795L23.8283 27.8438L23.8287 27.8441L24.3311 26.9795ZM24.5471 27.7952L23.6828 27.2922L23.6824 27.2929L24.5471 27.7952ZM26.1836 35.9361L25.7334 36.829L25.7348 36.8297L26.1836 35.9361ZM24.7054 35.1908L25.1556 34.2979L25.1553 34.2977L24.7054 35.1908ZM21.5728 34.1652L21.7384 33.179L21.7378 33.1789L21.5728 34.1652ZM20.7696 34.0309L20.9346 33.0446L20.9345 33.0446L20.7696 34.0309ZM19.1223 33.4917L18.6721 34.3847L18.6725 34.3848L19.1223 33.4917ZM14.8059 31.3159L15.256 30.423L15.2554 30.4227L14.8059 31.3159ZM14.5414 30.5143L13.6487 30.0636L13.6484 30.0642L14.5414 30.5143ZM15.3431 30.2498L14.8925 31.1425L14.893 31.1428L15.3431 30.2498ZM19.6598 32.4255L20.1102 31.5327L20.1099 31.5325L19.6598 32.4255ZM20.9669 32.8537L20.8014 33.8399L20.8019 33.84L20.9669 32.8537ZM21.7698 32.988L21.9351 32.0018L21.9348 32.0017L21.7698 32.988ZM25.2428 34.1247L25.693 33.2317L25.6928 33.2316L25.2428 34.1247ZM26.7213 34.8699L26.2712 35.7629L26.2715 35.763L26.7213 34.8699ZM26.9855 35.6716L26.0925 35.2217L26.0923 35.2221L26.9855 35.6716ZM29.9168 28.5293L29.4668 29.4223L29.468 29.4229L29.9168 28.5293ZM26.8692 26.9935L26.4184 27.8861L26.4192 27.8865L26.8692 26.9935ZM26.5779 26.6674L25.6401 27.0143L25.6401 27.0144L26.5779 26.6674ZM25.5426 23.8686L24.6046 24.2153L24.6047 24.2155L25.5426 23.8686ZM24.101 22.2544L24.5513 21.3615L24.5511 21.3614L24.101 22.2544ZM20.0855 20.2307L19.6348 21.1233L19.6355 21.1236L20.0855 20.2307ZM18.8531 20.5212L19.7035 21.0474L19.7039 21.0467L18.8531 20.5212ZM18.7507 21.2391L17.7883 21.5106L17.7885 21.5111L18.7507 21.2391ZM19.4743 22.5976L18.5814 22.1475L18.5807 22.1488L19.4743 22.5976ZM17.6019 21.5637L18.5643 21.2921L18.5642 21.2916L17.6019 21.5637ZM17.8374 19.8935L16.9867 19.3679L16.9866 19.368L17.8374 19.8935ZM20.6229 19.1646L21.073 18.2716L21.0729 18.2716L20.6229 19.1646ZM24.6383 21.1883L25.0884 20.2953L25.0884 20.2952L24.6383 21.1883ZM26.6625 23.4544L25.7245 23.8011L25.7246 23.8014L26.6625 23.4544ZM27.6165 26.0331L26.6786 26.3801L26.8151 26.7491L27.1665 26.9262L27.6165 26.0331ZM30.4543 27.4631L30.0043 28.3562L30.0044 28.3562L30.4543 27.4631ZM30.7187 28.2649L31.6116 28.7153L31.6118 28.7149L30.7187 28.2649ZM19.3593 25.8093L18.9092 26.7023L18.9095 26.7024L19.3593 25.8093ZM16.7367 24.4875L17.1868 23.5945L17.1865 23.5944L16.7367 24.4875ZM15.8583 23.4681L16.8082 23.1554L16.808 23.1548L15.8583 23.4681ZM15.9579 22.1262L16.8507 22.5768L16.8508 22.5765L15.9579 22.1262ZM16.9772 21.2475L16.6645 20.2977L16.6632 20.2981L16.9772 21.2475ZM18.3193 21.3474L18.7694 20.4544L18.7691 20.4542L18.3193 21.3474ZM20.9418 22.6691L20.4917 23.5621L20.492 23.5623L20.9418 22.6691ZM21.8203 23.6886L20.8704 24.0014L20.8706 24.002L21.8203 23.6886ZM21.7207 25.0305L22.6135 25.4809L22.6135 25.4808L21.7207 25.0305ZM20.7013 25.9092L21.0138 26.8591L21.0151 26.8587L20.7013 25.9092ZM17.3512 22.3813L17.0385 21.4314L17.0356 21.4324L17.3512 22.3813ZM17.024 22.6634L16.131 22.2135L16.1308 22.2139L17.024 22.6634ZM16.9921 23.0939L17.942 22.7814L17.9412 22.779L16.9921 23.0939ZM17.2741 23.4214L16.8227 24.3137L16.824 24.3144L17.2741 23.4214ZM19.8966 24.7431L19.4465 25.6361L19.449 25.6373L19.8966 24.7431ZM20.3273 24.7753L20.6408 25.7249L20.6427 25.7242L20.3273 24.7753ZM20.6545 24.4931L19.7613 24.0436L19.7612 24.0436L20.6545 24.4931ZM20.4046 23.7352L19.9545 24.6282L19.9546 24.6282L20.4046 23.7352ZM17.782 22.4134L18.2321 21.5204L18.2296 21.5192L17.782 22.4134ZM18.724 28.0895L19.175 27.1969L19.1741 27.1965L18.724 28.0895ZM15.2816 26.3545L15.7317 25.4615L15.7315 25.4614L15.2816 26.3545ZM14.5027 23.9931L13.6101 23.5425L13.6097 23.5432L14.5027 23.9931ZM16.8641 23.2147L16.4131 24.1072L16.414 24.1077L16.8641 23.2147ZM20.3066 24.9498L19.8565 25.8428L19.8567 25.8428L20.3066 24.9498ZM21.0855 27.3111L21.9782 27.7617L21.9786 27.761L21.0855 27.3111ZM15.5689 24.5309L16.462 24.9807L16.4621 24.9806L15.5689 24.5309ZM15.8188 25.2883L16.2689 24.3953L16.2688 24.3953L15.8188 25.2883ZM19.2613 27.0233L19.7124 26.1308L19.7114 26.1303L19.2613 27.0233ZM20.0192 26.7733L19.1263 26.3231L19.126 26.3237L20.0192 26.7733ZM19.7692 26.0159L19.3192 26.9089L19.3193 26.909L19.7692 26.0159ZM16.3268 24.281L15.8749 25.173L15.8768 25.174L16.3268 24.281ZM17.2689 29.957L16.8188 30.85L16.8193 30.8502L17.2689 29.957ZM14.6463 28.6352L15.0964 27.7422L15.0961 27.7421L14.6463 28.6352ZM13.7679 27.6157L14.7178 27.3031L14.7176 27.3023L13.7679 27.6157ZM13.8675 26.2738L14.7603 26.7244L14.7604 26.7243L13.8675 26.2738ZM14.8868 25.3951L14.5738 24.4454L14.5731 24.4456L14.8868 25.3951ZM16.2289 25.4949L16.679 24.6019L16.6786 24.6017L16.2289 25.4949ZM18.8514 26.8167L18.4013 27.7096L18.4016 27.7098L18.8514 26.8167ZM19.7299 27.8362L18.78 28.149L18.7802 28.1495L19.7299 27.8362ZM19.6303 29.178L18.7374 28.7276L18.7374 28.7276L19.6303 29.178ZM18.6109 30.0567L18.9239 31.0065L18.9247 31.0062L18.6109 30.0567ZM15.2608 26.529L14.947 25.5795L14.9454 25.58L15.2608 26.529ZM14.9336 26.811L14.0407 26.3609L14.0403 26.3617L14.9336 26.811ZM15.1836 27.569L15.6337 26.676L15.6335 26.6759L15.1836 27.569ZM17.8061 28.8907L17.356 29.7837L17.357 29.7842L17.8061 28.8907ZM18.2368 28.923L18.5494 29.8729L18.5523 29.8719L18.2368 28.923ZM18.564 28.6408L17.671 28.1908L17.6709 28.1911L18.564 28.6408ZM18.5959 28.2102L17.6461 28.523L17.6468 28.525L18.5959 28.2102ZM18.314 27.8829L18.7655 26.9906L18.7641 26.9899L18.314 27.8829ZM15.6915 26.5611L16.1415 25.6681L16.1408 25.6678L15.6915 26.5611ZM15.8651 31.85L15.4149 32.743L15.4153 32.7432L15.8651 31.85ZM14.506 31.1649L14.9562 30.2719L14.9555 30.2716L14.506 31.1649ZM13.6278 30.1458L14.5775 29.8326L14.5774 29.8325L13.6278 30.1458ZM13.7274 28.804L12.8346 28.3536L12.8344 28.3539L13.7274 28.804ZM14.7467 27.9254L15.0605 28.8748L15.0606 28.8748L14.7467 27.9254ZM16.0887 28.0251L15.6379 28.9177L15.6388 28.9182L16.0887 28.0251ZM17.4475 28.7098L16.9976 29.6028L16.9977 29.6029L17.4475 28.7098ZM18.3259 29.7293L17.3761 30.0419L17.3763 30.0427L18.3259 29.7293ZM18.2263 31.0711L17.3336 30.6206L17.3335 30.6209L18.2263 31.0711ZM17.2071 31.9498L17.52 32.8996L17.5209 32.8993L17.2071 31.9498ZM14.7935 29.3413L13.9003 28.8917L13.8996 28.893L14.7935 29.3413ZM14.7616 29.7719L13.812 30.0852L13.8123 30.086L14.7616 29.7719ZM15.0433 30.0987L15.4934 29.2058L15.4922 29.2052L15.0433 30.0987ZM16.4027 30.7839L15.9526 31.6769L15.9531 31.6772L16.4027 30.7839ZM16.8332 30.8161L16.5176 29.8672L16.5173 29.8673L16.8332 30.8161ZM17.1604 30.5339L18.0535 30.9839L18.0536 30.9837L17.1604 30.5339ZM17.1923 30.1034L16.2425 30.4162L16.2432 30.4182L17.1923 30.1034ZM16.9103 29.776L17.3616 28.8836L17.3603 28.883L16.9103 29.776ZM15.5515 29.0914L16.0015 28.1983L16 28.1976L15.5515 29.0914ZM15.1208 29.0592L14.8083 28.1093L14.8065 28.1099L15.1208 29.0592ZM16.7326 18.1039L15.9992 18.7838L16.0008 18.7855L16.7326 18.1039ZM16.7575 17.2659L16.0703 16.5394L16.07 16.5397L16.7575 17.2659ZM20.9668 16.9818L21.4533 16.1081L21.4527 16.1077L20.9668 16.9818ZM21.1983 17.7938L22.0722 18.28L22.0724 18.2797L21.1983 17.7938ZM20.3866 18.0255L19.9008 18.8996L19.9017 18.9001L20.3866 18.0255ZM17.5744 18.1371L18.247 18.8771L18.2513 18.8732L17.5744 18.1371ZM12.0175 24.9716L13.0127 24.8728L13.0126 24.8726L12.0175 24.9716ZM14.3218 20.9714L14.468 21.9607L14.482 21.9585L14.3218 20.9714ZM14.9996 21.4742L14.0104 21.6206L14.0104 21.6209L14.9996 21.4742ZM14.5031 22.1515L14.346 21.1639L14.3362 21.1654L14.3263 21.1672L14.5031 22.1515ZM13.2054 24.8533L14.2005 24.7544L14.2005 24.7543L13.2054 24.8533ZM12.6707 25.5067L12.7534 26.5033L12.7616 26.5026L12.7697 26.5018L12.6707 25.5067ZM12.7078 32.5193L12.2573 33.4121L12.2589 33.4129L12.7078 32.5193ZM10.8589 30.5376L9.90057 30.8233L9.90062 30.8234L10.8589 30.5376ZM11.1045 28.3539L10.2385 27.8538L10.2383 27.8541L11.1045 28.3539ZM11.9202 28.1356L11.4191 29.001L11.4202 29.0016L11.9202 28.1356ZM12.1406 28.9472L11.2709 28.4534L11.2646 28.4648L12.1406 28.9472ZM12.0067 30.2083L12.9626 29.9144L12.9626 29.9144L12.0067 30.2083ZM13.2455 31.4531L13.6965 30.5605L13.6957 30.5602L13.2455 31.4531ZM13.5094 32.2553L12.6167 31.8047L12.6163 31.8055L13.5094 32.2553ZM16.2568 34.8974H2.74275V36.8974H16.2568V34.8974ZM2.74275 34.8974C2.88337 34.8974 3.01467 34.9709 3.08815 35.0927L1.37559 36.1257C1.66506 36.6056 2.18436 36.8974 2.74275 36.8974V34.8974ZM3.0879 35.0923C3.16063 35.2127 3.16517 35.3627 3.09965 35.4874L1.32905 34.5574C1.06896 35.0525 1.08678 35.6474 1.37583 36.1261L3.0879 35.0923ZM3.09954 35.4876C3.61988 34.4975 4.04405 33.3321 4.36993 32.0321L2.42996 31.5458C2.1336 32.728 1.75985 33.7377 1.32915 34.5572L3.09954 35.4876ZM4.36991 32.0322C5.50467 27.5074 4.78873 22.5946 2.40197 18.1986L0.644327 19.1529C2.81468 23.1503 3.43171 27.5514 2.42998 31.5457L4.36991 32.0322ZM2.40194 18.1986C1.3381 16.2395 0.863943 14.0137 1.03368 11.7597L-0.960671 11.6095C-1.15893 14.2422 -0.605089 16.8521 0.644354 19.153L2.40194 18.1986ZM1.03368 11.7597C1.46489 6.03814 6.11308 1.42101 11.8373 1.02831L11.7005 -0.967004C4.98457 -0.50627 -0.454759 4.89676 -0.960666 11.6094L1.03368 11.7597ZM11.8368 1.02834C15.1178 0.805015 18.2296 1.90699 20.6175 4.13648L21.9824 2.67459C19.1868 0.0645495 15.5307 -1.22771 11.701 -0.967041L11.8368 1.02834ZM20.6175 4.13644C22.9708 6.33387 24.3217 9.44315 24.3217 12.6611H26.3217C26.3217 8.88872 24.7407 5.25015 21.9824 2.67462L20.6175 4.13644ZM24.3217 12.6611C24.3217 13.2014 24.2765 13.7687 24.1807 14.3927L26.1576 14.6963C26.2669 13.9844 26.3217 13.315 26.3217 12.6611H24.3217ZM24.3339 15.0944L26.6104 18.5522L28.2809 17.4524L26.0044 13.9946L24.3339 15.0944ZM26.6104 18.5522C26.7155 18.7119 26.7242 18.914 26.6338 19.0817L28.3941 20.0311C28.8339 19.2156 28.7904 18.2265 28.2809 17.4525L26.6104 18.5522ZM26.6337 19.0819C26.5432 19.2498 26.3696 19.3535 26.1788 19.3535V21.3535C27.1052 21.3535 27.9548 20.8461 28.3942 20.0309L26.6337 19.0819ZM26.1788 19.3535H25.8365V21.3535H26.1788V19.3535ZM24.8485 20.1992C24.8787 20.0055 25.0443 19.8576 25.2467 19.8576V21.8576C26.0452 21.8576 26.7052 21.2723 26.8245 20.5077L24.8485 20.1992ZM25.2467 19.8576C25.4694 19.8576 25.6498 20.0381 25.6498 20.2606H23.6498C23.6498 21.1425 24.3647 21.8576 25.2467 21.8576V19.8576ZM25.6498 20.2606C25.6498 20.2056 25.6959 20.1595 25.7509 20.1595V18.1595C24.5913 18.1595 23.6498 19.101 23.6498 20.2606H25.6498ZM25.7509 20.1595H26.1788V18.1595H25.7509V20.1595ZM26.1788 20.1595C26.8966 20.1595 27.2454 19.6475 27.3452 19.4604L25.5806 18.519C25.6087 18.4663 25.6614 18.3834 25.758 18.3075C25.8693 18.22 26.0187 18.1595 26.1788 18.1595V20.1595ZM27.3431 19.4644C27.4413 19.2823 27.6784 18.71 27.2842 18.11L25.6126 19.2081C25.5247 19.0743 25.4935 18.9164 25.5053 18.7758C25.5156 18.6538 25.5557 18.5652 25.5827 18.515L27.3431 19.4644ZM27.2837 18.1092L24.8794 14.4573L23.2089 15.5571L25.6132 19.2089L27.2837 18.1092ZM24.879 14.4567C24.9356 14.5425 24.9571 14.6458 24.9402 14.7459L22.9681 14.413C22.9009 14.8107 22.9867 15.22 23.2094 15.5577L24.879 14.4567ZM24.9401 14.746C25.0648 14.0078 25.1276 13.3242 25.1276 12.6611H23.1276C23.1276 13.1958 23.0772 13.7669 22.9681 14.4129L24.9401 14.746ZM25.1276 12.6611C25.1276 9.21806 23.6849 5.89797 21.1674 3.54726L19.8024 5.00908C21.9151 6.98173 23.1276 9.77252 23.1276 12.6611H25.1276ZM21.1674 3.5473C18.6165 1.16514 15.2797 -0.0131612 11.7828 0.224145L11.9182 2.21956C14.8674 2.01942 17.6596 3.008 19.8024 5.00904L21.1674 3.5473ZM11.7821 0.224194C5.65427 0.644437 0.691464 5.57396 0.230051 11.699L2.2244 11.8492C2.61115 6.71534 6.78274 2.57174 11.9189 2.21951L11.7821 0.224194ZM0.230056 11.6989C0.0488279 14.1025 0.553783 16.4839 1.69372 18.5831L3.45129 17.6286C2.49715 15.8716 2.0717 13.8744 2.2244 11.8493L0.230056 11.6989ZM1.69367 18.583C4.00653 22.843 4.66308 27.5495 3.58799 31.8358L5.5279 32.3224C6.73538 27.5083 5.98201 22.29 3.45134 17.6287L1.69367 18.583ZM3.58791 31.8362C3.35866 32.7515 3.08326 33.5781 2.76885 34.3078L4.6056 35.0992C4.96847 34.2571 5.27643 33.3264 5.52798 32.3221L3.58791 31.8362ZM3.68723 35.7035H15.6599V33.7035H3.68723V35.7035ZM16.6599 34.7035V33.4466H14.6599V34.7035H16.6599ZM16.6599 33.4466C16.6599 33.6689 16.4795 33.8495 16.2568 33.8495V31.8495C15.3746 31.8495 14.6599 32.5647 14.6599 33.4466H16.6599ZM16.2568 33.8495C16.0343 33.8495 15.8539 33.6691 15.8539 33.4466H17.8539C17.8539 32.5645 17.1389 31.8495 16.2568 31.8495V33.8495ZM15.8539 33.4466V35.3005H17.8539V33.4466H15.8539ZM15.8539 35.3005C15.8539 35.0778 16.0344 34.8974 16.2568 34.8974V36.8974C17.1388 36.8974 17.8539 36.1825 17.8539 35.3005H15.8539ZM20.9474 34.8974H1.12723V36.8974H20.9474V34.8974ZM1.12723 34.8974C1.34992 34.8974 1.53027 35.0781 1.53027 35.3004H-0.469734C-0.469734 36.1823 0.24501 36.8974 1.12723 36.8974V34.8974ZM1.53027 35.3004C1.53027 35.5229 1.34984 35.7034 1.12723 35.7034V33.7034C0.245089 33.7034 -0.469734 34.4185 -0.469734 35.3004H1.53027ZM1.12723 35.7034H20.9474V33.7034H1.12723V35.7034ZM20.9474 35.7034C20.7249 35.7034 20.5444 35.5231 20.5444 35.3004H22.5444C22.5444 34.4184 21.8293 33.7034 20.9474 33.7034V35.7034ZM20.5444 35.3002C20.5445 35.078 20.7246 34.8974 20.9474 34.8974V36.8974C21.8296 36.8974 22.5442 36.1823 22.5444 35.3007L20.5444 35.3002ZM24.0305 27.0923C24.1 27.0923 24.1713 27.1104 24.2345 27.1472L23.2271 28.875C23.4791 29.0219 23.7571 29.0923 24.0305 29.0923V27.0923ZM24.2334 27.1466C23.2741 26.5889 23.1267 25.6168 23.2579 24.8437L21.286 24.5091C21.0828 25.7071 21.253 27.7273 23.2282 28.8756L24.2334 27.1466ZM22.7221 23.7834L19.1227 21.9691L18.2225 23.7551L21.8218 25.5694L22.7221 23.7834ZM19.1222 21.9689C19.3217 22.0693 19.4012 22.3119 19.3011 22.5104L17.5151 21.6104C17.1184 22.3976 17.4345 23.3584 18.2229 23.7553L19.1222 21.9689ZM19.3008 22.511C19.2004 22.7099 18.9587 22.789 18.7605 22.6893L19.659 20.9025C18.8729 20.5072 17.9129 20.8223 17.5154 21.6098L19.3008 22.511ZM18.7597 22.6889L22.784 24.7173L23.6842 22.9313L19.6599 20.9029L18.7597 22.6889ZM22.7843 24.7175C22.6037 24.6265 22.5182 24.4156 22.585 24.2243L24.4733 24.8833C24.7373 24.1267 24.3996 23.2916 23.6839 22.9312L22.7843 24.7175ZM22.5805 24.2375C22.5536 24.3182 22.373 24.8763 22.4226 25.57C22.4748 26.3004 22.7958 27.2431 23.8283 27.8438L24.834 26.1151C24.5277 25.9369 24.4369 25.6989 24.4175 25.4273C24.3955 25.119 24.4833 24.8537 24.4778 24.87L22.5805 24.2375ZM23.8287 27.8441C23.6363 27.7322 23.5705 27.4851 23.6828 27.2922L25.4114 28.2982C25.8553 27.5354 25.5959 26.5579 24.8336 26.1148L23.8287 27.8441ZM23.6824 27.2929C23.7579 27.1629 23.8948 27.0923 24.0305 27.0923V29.0923C24.5776 29.0923 25.1146 28.809 25.4117 28.2975L23.6824 27.2929ZM26.452 35C26.5143 35 26.5768 35.0145 26.6325 35.0425L25.7348 36.8297C25.9631 36.9444 26.2088 37 26.452 37V35ZM26.6338 35.0432L25.1556 34.2979L24.2552 36.0837L25.7334 36.829L26.6338 35.0432ZM25.1553 34.2977C24.0787 33.7553 22.9288 33.3789 21.7384 33.179L21.4072 35.1514C22.4001 35.3181 23.3583 35.6319 24.2555 36.0839L25.1553 34.2977ZM21.7378 33.1789L20.9346 33.0446L20.6047 35.0172L21.4079 35.1515L21.7378 33.1789ZM20.9345 33.0446C20.4595 32.9652 20.0016 32.8149 19.572 32.5985L18.6725 34.3848C19.2803 34.6909 19.9302 34.9044 20.6048 35.0172L20.9345 33.0446ZM19.5724 32.5987L15.256 30.423L14.3557 32.2089L18.6721 34.3847L19.5724 32.5987ZM15.2554 30.4227C15.455 30.5231 15.5344 30.7659 15.4344 30.9643L13.6484 30.0642C13.2517 30.8513 13.5676 31.8122 14.3563 32.2092L15.2554 30.4227ZM15.4341 30.9649C15.3344 31.1624 15.0928 31.2436 14.8925 31.1425L15.7937 29.3571C15.0057 28.9593 14.0455 29.2774 13.6487 30.0636L15.4341 30.9649ZM14.893 31.1428L19.2097 33.3185L20.1099 31.5325L15.7932 29.3568L14.893 31.1428ZM19.2094 33.3184C19.7107 33.5712 20.2467 33.7468 20.8014 33.8399L21.1324 31.8675C20.7755 31.8076 20.4316 31.6949 20.1102 31.5327L19.2094 33.3184ZM20.8019 33.84L21.6048 33.9743L21.9348 32.0017L21.1319 31.8674L20.8019 33.84ZM21.6045 33.9743C22.7159 34.1606 23.7885 34.5116 24.7928 35.0177L25.6928 33.2316C24.5088 32.635 23.2443 32.2212 21.9351 32.0018L21.6045 33.9743ZM24.7927 35.0176L26.2712 35.7629L27.1714 33.977L25.693 33.2317L24.7927 35.0176ZM26.2715 35.763C26.0716 35.6624 25.9927 35.4198 26.0925 35.2217L27.8786 36.1215C28.2749 35.335 27.9597 34.374 27.1711 33.9768L26.2715 35.763ZM26.0923 35.2221C26.1641 35.0793 26.3081 35 26.452 35V37C27.0324 37 27.5971 36.681 27.8788 36.1212L26.0923 35.2221ZM30.1851 27.5932C30.2477 27.5932 30.31 27.6077 30.3657 27.6357L29.468 29.4229C29.6962 29.5376 29.942 29.5932 30.1851 29.5932V27.5932ZM30.3669 27.6363L27.3193 26.1004L26.4192 27.8865L29.4668 29.4223L30.3669 27.6363ZM27.32 26.1008C27.4098 26.1462 27.4803 26.2245 27.5158 26.3204L25.6401 27.0144C25.7805 27.3939 26.059 27.7046 26.4184 27.8861L27.32 26.1008ZM27.5158 26.3204L26.4805 23.5216L24.6047 24.2155L25.6401 27.0143L27.5158 26.3204ZM26.4805 23.5218C26.1328 22.5812 25.4464 21.813 24.5513 21.3615L23.6507 23.1473C24.0946 23.3712 24.4324 23.7494 24.6046 24.2153L26.4805 23.5218ZM24.5511 21.3614L20.5356 19.3377L19.6355 21.1236L23.6509 23.1474L24.5511 21.3614ZM20.5362 19.338C19.6947 18.9131 18.5562 19.0991 18.0024 19.9957L19.7039 21.0467C19.6697 21.1022 19.6274 21.1162 19.6205 21.1179C19.6143 21.1193 19.6212 21.1164 19.6348 21.1233L20.5362 19.338ZM18.0028 19.995C17.7218 20.4492 17.6424 20.9935 17.7883 21.5106L19.7132 20.9675C19.7162 20.9781 19.718 20.9938 19.7154 21.0115C19.7129 21.0291 19.7072 21.0414 19.7035 21.0474L18.0028 19.995ZM17.7885 21.5111C17.9337 22.0249 18.2821 22.4483 18.7598 22.689L19.6598 20.9029C19.6684 20.9072 19.681 20.9161 19.6928 20.9304C19.7046 20.9447 19.7106 20.9585 19.713 20.967L17.7885 21.5111ZM18.7602 22.6892C18.5608 22.5888 18.4812 22.3463 18.5814 22.1475L20.3673 23.0477C20.7641 22.2605 20.4478 21.2995 19.6593 20.9027L18.7602 22.6892ZM18.5807 22.1488C18.6818 21.9477 18.9255 21.8699 19.1218 21.9687L18.2233 23.7555C19.0096 24.1509 19.9708 23.8372 20.3679 23.0465L18.5807 22.1488ZM19.1228 21.9692C18.851 21.8321 18.6468 21.5844 18.5643 21.2921L16.6394 21.8353C16.8744 22.6679 17.4508 23.366 18.2224 23.755L19.1228 21.9692ZM18.5642 21.2916C18.482 21.001 18.526 20.6816 18.6882 20.4191L16.9866 19.368C16.5316 20.1045 16.404 21.0023 16.6396 21.8357L18.5642 21.2916ZM18.6881 20.4192C18.9607 19.978 19.6066 19.7722 20.1729 20.0576L21.0729 18.2716C19.644 17.5515 17.8414 17.9846 16.9867 19.3679L18.6881 20.4192ZM20.1729 20.0576L24.1883 22.0813L25.0884 20.2952L21.073 18.2716L20.1729 20.0576ZM24.1883 22.0812C24.9027 22.4413 25.4473 23.0511 25.7245 23.8011L27.6005 23.1077C27.1478 21.8832 26.2546 20.883 25.0884 20.2953L24.1883 22.0812ZM25.7246 23.8014L26.6786 26.3801L28.5544 25.6862L27.6004 23.1074L25.7246 23.8014ZM27.1665 26.9262L30.0043 28.3562L30.9043 26.5701L28.0665 25.1401L27.1665 26.9262ZM30.0044 28.3562C29.8053 28.2559 29.7256 28.0135 29.8257 27.8149L31.6118 28.7149C32.0085 27.9276 31.6922 26.967 30.9041 26.57L30.0044 28.3562ZM29.8259 27.8145C29.8975 27.6726 30.0409 27.5932 30.1851 27.5932V29.5932C30.7657 29.5932 31.3298 29.274 31.6116 28.7153L29.8259 27.8145ZM20.1487 24.9982C20.0349 24.9982 19.9195 24.9717 19.8092 24.9162L18.9095 26.7024C19.2972 26.8977 19.7206 26.9982 20.1487 26.9982V24.9982ZM19.8094 24.9163L17.1868 23.5945L16.2867 25.3805L18.9092 26.7023L19.8094 24.9163ZM17.1865 23.5944C17.004 23.5024 16.872 23.3492 16.8082 23.1554L14.9085 23.7807C15.1384 24.4794 15.6305 25.0501 16.2869 25.3807L17.1865 23.5944ZM16.808 23.1548C16.7439 22.9604 16.759 22.7586 16.8507 22.5768L15.0652 21.6757C14.7337 22.3325 14.6786 23.084 14.9087 23.7814L16.808 23.1548ZM16.8508 22.5765C16.943 22.3939 17.0967 22.2613 17.2912 22.197L16.6632 20.2981C15.9661 20.5286 15.3958 21.0201 15.0651 21.676L16.8508 22.5765ZM17.2899 22.1974C17.4844 22.1333 17.6866 22.1484 17.8695 22.2405L18.7691 20.4542C18.113 20.1238 17.3623 20.068 16.6645 20.2977L17.2899 22.1974ZM17.8692 22.2404L20.4917 23.5621L21.3919 21.7761L18.7694 20.4544L17.8692 22.2404ZM20.492 23.5623C20.6745 23.6542 20.8066 23.8074 20.8704 24.0014L22.7701 23.3759C22.5401 22.6773 22.0481 22.1066 21.3916 21.776L20.492 23.5623ZM20.8706 24.002C20.9347 24.1961 20.9197 24.398 20.8278 24.5801L22.6135 25.4808C22.9447 24.8242 23.0001 24.0728 22.7699 23.3753L20.8706 24.002ZM20.8278 24.5801C20.7356 24.763 20.5818 24.8955 20.3875 24.9597L21.0151 26.8587C21.7126 26.6282 22.2827 26.1365 22.6135 25.4809L20.8278 24.5801ZM20.3889 24.9593C20.3085 24.9857 20.228 24.9982 20.1487 24.9982V26.9982C20.4402 26.9982 20.7317 26.9519 21.0138 26.8591L20.3889 24.9593ZM17.5285 21.3528C17.3636 21.3528 17.1984 21.3788 17.0385 21.4314L17.6639 23.3311C17.6203 23.3455 17.5743 23.3528 17.5285 23.3528V21.3528ZM17.0356 21.4324C16.6437 21.5628 16.3188 21.8407 16.131 22.2135L17.9171 23.1134C17.8651 23.2166 17.7725 23.295 17.6668 23.3302L17.0356 21.4324ZM16.1308 22.2139C15.9443 22.5844 15.9114 23.0123 16.043 23.4089L17.9412 22.779C17.9781 22.8901 17.9681 23.0121 17.9173 23.113L16.1308 22.2139ZM16.0422 23.4065C16.1727 23.803 16.4533 24.1268 16.8227 24.3137L17.7256 22.5291C17.8258 22.5798 17.9058 22.6713 17.942 22.7814L16.0422 23.4065ZM16.824 24.3144L19.4465 25.6361L20.3467 23.8501L17.7242 22.5284L16.824 24.3144ZM19.449 25.6373C19.8174 25.8218 20.2438 25.8559 20.6408 25.7249L20.0138 23.8257C20.1253 23.7889 20.2459 23.7997 20.3442 23.8489L19.449 25.6373ZM20.6427 25.7242C21.0348 25.5939 21.3599 25.3159 21.5478 24.9427L19.7612 24.0436C19.8134 23.9399 19.9062 23.8615 20.0119 23.8263L20.6427 25.7242ZM21.5477 24.9427C21.9356 24.1721 21.6258 23.2308 20.8546 22.8422L19.9546 24.6282C19.7387 24.5195 19.6532 24.2582 19.7613 24.0436L21.5477 24.9427ZM20.8547 22.8422L18.2321 21.5205L17.332 23.3064L19.9545 24.6282L20.8547 22.8422ZM18.2296 21.5192C18.0135 21.4111 17.7741 21.3528 17.5285 21.3528V23.3528C17.4568 23.3528 17.3904 23.3357 17.3345 23.3077L18.2296 21.5192ZM19.5125 27.2774C19.3984 27.2774 19.2839 27.2519 19.175 27.1969L18.2731 28.982C18.6702 29.1827 19.0949 29.2774 19.5125 29.2774V27.2774ZM19.1741 27.1965L15.7317 25.4615L14.8316 27.2475L18.274 28.9824L19.1741 27.1965ZM15.7315 25.4614C15.3594 25.274 15.208 24.8158 15.3958 24.443L13.6097 23.5432C12.9253 24.9018 13.4725 26.5628 14.8317 27.2476L15.7315 25.4614ZM15.3954 24.4438C15.5841 24.0702 16.043 23.9202 16.4131 24.1072L17.3151 22.3222C15.9558 21.6353 14.295 22.1857 13.6101 23.5425L15.3954 24.4438ZM16.414 24.1077L19.8565 25.8428L20.7567 24.0568L17.3142 22.3217L16.414 24.1077ZM19.8567 25.8428C20.2288 26.0303 20.3801 26.4885 20.1924 26.8612L21.9786 27.761C22.6629 26.4024 22.1156 24.7414 20.7565 24.0567L19.8567 25.8428ZM20.1927 26.8606C20.0607 27.1222 19.7939 27.2774 19.5125 27.2774V29.2774C20.5175 29.2774 21.4922 28.7247 21.9782 27.7617L20.1927 26.8606ZM14.6758 24.0811C14.2878 24.8515 14.5977 25.7928 15.3688 26.1814L16.2688 24.3953C16.4846 24.504 16.5705 24.7654 16.462 24.9807L14.6758 24.0811ZM15.3688 26.1813L18.8112 27.9163L19.7114 26.1303L16.2689 24.3953L15.3688 26.1813ZM18.8102 27.9158C19.5823 28.306 20.5244 27.9939 20.9125 27.2229L19.126 26.3237C19.2342 26.1086 19.4958 26.0213 19.7124 26.1308L18.8102 27.9158ZM20.9122 27.2235C21.301 26.4523 20.9899 25.5111 20.2191 25.1228L19.3193 26.909C19.1041 26.8006 19.0173 26.5392 19.1263 26.3231L20.9122 27.2235ZM20.2193 25.1229L16.7769 23.388L15.8768 25.174L19.3192 26.9089L20.2193 25.1229ZM16.7788 23.3889C16.007 22.9979 15.0642 23.3096 14.6757 24.0812L16.4621 24.9806C16.3539 25.1954 16.0921 25.2831 15.8749 25.173L16.7788 23.3889ZM18.0583 29.1458C17.9446 29.1458 17.8291 29.1194 17.7185 29.0638L16.8193 30.8502C17.2068 31.0452 17.63 31.1458 18.0583 31.1458V29.1458ZM17.719 29.064L15.0964 27.7422L14.1963 29.5282L16.8188 30.85L17.719 29.064ZM15.0961 27.7421C14.9136 27.6501 14.7816 27.497 14.7178 27.3031L12.8181 27.9283C13.048 28.6271 13.5401 29.1977 14.1965 29.5283L15.0961 27.7421ZM14.7176 27.3023C14.6535 27.1081 14.6685 26.9062 14.7603 26.7244L12.9748 25.8233C12.6433 26.4801 12.5882 27.2316 12.8183 27.9291L14.7176 27.3023ZM14.7604 26.7243C14.8527 26.5412 15.0064 26.4088 15.2006 26.3446L14.5731 24.4456C13.8754 24.6762 13.3054 25.1679 12.9747 25.8234L14.7604 26.7243ZM15.1999 26.3449C15.3937 26.281 15.596 26.2958 15.7792 26.3881L16.6786 24.6017C16.0225 24.2714 15.2716 24.2154 14.5738 24.4454L15.1999 26.3449ZM15.7788 26.3879L18.4013 27.7096L19.3015 25.9237L16.679 24.6019L15.7788 26.3879ZM18.4016 27.7098C18.5841 27.8017 18.7162 27.955 18.78 28.149L20.6797 27.5234C20.4497 26.8249 19.9577 26.2542 19.3012 25.9235L18.4016 27.7098ZM18.7802 28.1495C18.8443 28.3437 18.8293 28.5456 18.7374 28.7276L20.5231 29.6284C20.8543 28.9718 20.9097 28.2203 20.6795 27.5228L18.7802 28.1495ZM18.7374 28.7276C18.6452 28.9105 18.4914 29.043 18.2971 29.1072L18.9247 31.0062C19.6222 30.7757 20.1923 30.284 20.5231 29.6284L18.7374 28.7276ZM18.298 29.107C18.2178 29.1334 18.1374 29.1458 18.0583 29.1458V31.1458C18.35 31.1458 18.6417 31.0995 18.9239 31.0065L18.298 29.107ZM15.4381 25.5005C15.2741 25.5005 15.1084 25.5261 14.947 25.5795L15.5747 27.4784C15.5294 27.4934 15.483 27.5005 15.4381 27.5005V25.5005ZM14.9454 25.58C14.5531 25.7104 14.2285 25.9884 14.0407 26.3609L15.8266 27.2612C15.7746 27.3642 15.6821 27.4427 15.5763 27.4779L14.9454 25.58ZM14.0403 26.3617C13.6528 27.132 13.9621 28.0734 14.7337 28.4621L15.6335 26.6759C15.8496 26.7847 15.9348 27.0461 15.827 27.2604L14.0403 26.3617ZM14.7335 28.462L17.356 29.7837L18.2562 27.9977L15.6337 26.676L14.7335 28.462ZM17.357 29.7842C17.7268 29.9701 18.1537 30.0031 18.5494 29.8729L17.9243 27.9731C18.034 27.937 18.1547 27.9467 18.2552 27.9973L17.357 29.7842ZM18.5523 29.8719C18.9445 29.7415 19.2694 29.4634 19.4572 29.0906L17.6709 28.1911C17.7229 28.0877 17.8155 28.0092 17.9214 27.974L18.5523 29.8719ZM19.4571 29.0908C19.6441 28.7197 19.6765 28.2916 19.5451 27.8955L17.6468 28.525C17.6101 28.4145 17.6198 28.2924 17.671 28.1908L19.4571 29.0908ZM19.5458 27.8975C19.4154 27.5015 19.1351 27.1776 18.7655 26.9906L17.8626 28.7752C17.7621 28.7243 17.6823 28.6328 17.6461 28.523L19.5458 27.8975ZM18.7641 26.9899L16.1415 25.6681L15.2414 27.4541L17.864 28.7759L18.7641 26.9899ZM16.1408 25.6678C15.9231 25.5583 15.6828 25.5005 15.4381 25.5005V27.5005C15.3673 27.5005 15.3002 27.4837 15.2421 27.4545L16.1408 25.6678ZM16.6544 31.0389C16.5407 31.0389 16.4253 31.0125 16.3148 30.9568L15.4153 32.7432C15.8031 32.9384 16.2263 33.0389 16.6544 33.0389V31.0389ZM16.3152 30.9571L14.9562 30.2719L14.0559 32.0578L15.4149 32.743L16.3152 30.9571ZM14.9555 30.2716C14.7739 30.1802 14.6416 30.0272 14.5775 29.8326L12.6781 30.4591C12.9083 31.157 13.3999 31.7278 14.0566 32.0582L14.9555 30.2716ZM14.5774 29.8325C14.5134 29.6385 14.5284 29.4365 14.6203 29.2542L12.8344 28.3539C12.5036 29.0101 12.4479 29.7614 12.6781 30.4592L14.5774 29.8325ZM14.6202 29.2544C14.7125 29.0715 14.8662 28.9391 15.0605 28.8748L14.4328 26.9759C13.7355 27.2064 13.1653 27.6979 12.8346 28.3536L14.6202 29.2544ZM15.0606 28.8748C15.2541 28.8108 15.4558 28.8258 15.6379 28.9177L16.5396 27.1325C15.8831 26.801 15.1309 26.745 14.4327 26.9759L15.0606 28.8748ZM15.6388 28.9182L16.9976 29.6028L17.8975 27.8167L16.5387 27.1321L15.6388 28.9182ZM16.9977 29.6029C17.1803 29.6948 17.3123 29.848 17.3761 30.0419L19.2758 29.4167C19.0459 28.7179 18.5538 28.1473 17.8973 27.8166L16.9977 29.6029ZM17.3763 30.0427C17.4404 30.2369 17.4254 30.4387 17.3336 30.6206L19.1191 31.5216C19.4505 30.8648 19.5057 30.1134 19.2756 29.4159L17.3763 30.0427ZM17.3335 30.6209C17.2413 30.8036 17.0875 30.9361 16.8932 31.0004L17.5209 32.8993C18.2183 32.6688 18.7885 32.1772 19.1192 31.5214L17.3335 30.6209ZM16.8941 31.0001C16.8143 31.0264 16.7338 31.0389 16.6544 31.0389V33.0389C16.9458 33.0389 17.2376 32.9927 17.52 32.8996L16.8941 31.0001ZM13.8996 28.893C13.7142 29.2629 13.6815 29.6896 13.812 30.0852L15.7113 29.4585C15.7476 29.5685 15.7377 29.6893 15.6874 29.7896L13.8996 28.893ZM13.8123 30.086C13.9422 30.4788 14.2207 30.8046 14.5944 30.9923L15.4922 29.2052C15.5968 29.2577 15.6757 29.3511 15.711 29.4577L13.8123 30.086ZM14.5932 30.9917L15.9526 31.6769L16.8528 29.891L15.4934 29.2058L14.5932 30.9917ZM15.9531 31.6772C16.3207 31.8622 16.7492 31.898 17.1491 31.7649L16.5173 29.8673C16.6313 29.8293 16.7532 29.8409 16.8522 29.8907L15.9531 31.6772ZM17.1488 31.765C17.5408 31.6346 17.8656 31.3567 18.0535 30.9839L16.2674 30.084C16.3194 29.9807 16.4119 29.9023 16.5176 29.8672L17.1488 31.765ZM18.0536 30.9837C18.2402 30.613 18.273 30.1851 18.1415 29.7887L16.2432 30.4182C16.2064 30.3074 16.2163 30.1854 16.2673 30.0842L18.0536 30.9837ZM18.1422 29.7907C18.0119 29.3949 17.7316 29.0707 17.3616 28.8836L16.4591 30.6684C16.3583 30.6175 16.2786 30.5258 16.2425 30.4162L18.1422 29.7907ZM17.3603 28.883L16.0015 28.1983L15.1016 29.9844L16.4604 30.6691L17.3603 28.883ZM16 28.1976C15.6308 28.0123 15.2045 27.9789 14.8083 28.1093L15.4334 30.0091C15.3235 30.0453 15.2028 30.0352 15.1031 29.9852L16 28.1976ZM14.8065 28.1099C14.4132 28.2401 14.088 28.5188 13.9003 28.8917L15.6868 29.7908C15.6348 29.8942 15.5419 29.9732 15.4351 30.0085L14.8065 28.1099ZM17.1694 17.2938C17.275 17.2938 17.3845 17.3366 17.4644 17.4224L16.0008 18.7855C16.3152 19.1231 16.7438 19.2938 17.1694 19.2938V17.2938ZM17.4659 17.4241C17.611 17.5806 17.6105 17.8354 17.4451 17.992L16.07 16.5397C15.4289 17.1467 15.4087 18.1468 15.9992 18.7838L17.4659 17.4241ZM17.4448 17.9923C17.803 17.6534 18.9938 17.0291 20.4809 17.8558L21.4527 16.1077C19.0454 14.7695 16.9211 15.7346 16.0703 16.5394L17.4448 17.9923ZM20.4804 17.8555C20.2863 17.7474 20.2163 17.5021 20.3243 17.3079L22.0724 18.2797C22.5008 17.5089 22.2238 16.5371 21.4533 16.1081L20.4804 17.8555ZM20.3245 17.3075C20.4332 17.1122 20.6782 17.0438 20.8714 17.1509L19.9017 18.9001C20.6705 19.3263 21.6427 19.0518 22.0722 18.28L20.3245 17.3075ZM20.8724 17.1514C18.6454 15.9138 17.055 17.2562 16.8976 17.4009L18.2513 18.8732C18.2069 18.914 18.3616 18.7639 18.6479 18.6838C18.9004 18.6131 19.3186 18.576 19.9008 18.8996L20.8724 17.1514ZM16.9019 17.397C16.9772 17.3285 17.074 17.2938 17.1694 17.2938V19.2938C17.5542 19.2938 17.9417 19.1546 18.247 18.8771L16.9019 17.397ZM12.6107 24.5095C12.8165 24.5095 12.9919 24.6641 13.0127 24.8728L11.0224 25.0704C11.1043 25.8948 11.7987 26.5095 12.6107 26.5095V24.5095ZM13.0126 24.8726C12.8922 23.6621 13.1912 22.9657 13.5016 22.5739C13.8307 22.1585 14.2438 21.9938 14.468 21.9606L14.1756 19.9821C13.4786 20.0851 12.5977 20.4943 11.934 21.3318C11.2517 22.193 10.8591 23.4286 11.0225 25.0706L13.0126 24.8726ZM14.482 21.9585C14.2395 21.9978 14.0413 21.8293 14.0104 21.6206L15.9889 21.3278C15.8615 20.467 15.0538 19.8395 14.1616 19.9843L14.482 21.9585ZM14.0104 21.6209C13.9781 21.4027 14.1275 21.1986 14.346 21.1639L14.6603 23.139C15.5243 23.0015 16.1173 22.194 15.9888 21.3275L14.0104 21.6209ZM14.3263 21.1672C14.1234 21.2037 13.4939 21.3586 12.9556 21.9681C12.3948 22.603 12.0728 23.5705 12.2103 24.9523L14.2005 24.7543C14.1036 23.7808 14.3487 23.412 14.4546 23.2921C14.5829 23.1469 14.7194 23.1286 14.68 23.1357L14.3263 21.1672ZM12.2103 24.9522C12.1884 24.7316 12.3493 24.5338 12.5716 24.5117L12.7697 26.5018C13.6477 26.4144 14.2877 25.6316 14.2005 24.7544L12.2103 24.9522ZM12.588 24.5102C12.5871 24.5102 12.5959 24.5095 12.6107 24.5095V26.5095C12.6653 26.5095 12.7137 26.5066 12.7534 26.5033L12.588 24.5102ZM12.9762 31.5832C13.0385 31.5832 13.1009 31.5977 13.1567 31.6257L12.2589 33.4129C12.4873 33.5276 12.7329 33.5832 12.9762 33.5832V31.5832ZM13.1583 31.6265C12.3467 31.217 11.9618 30.7368 11.8172 30.2518L9.90062 30.8234C10.2445 31.9762 11.1034 32.8299 12.2573 33.4121L13.1583 31.6265ZM11.8172 30.252C11.7127 29.9013 11.7423 29.5581 11.8136 29.2779C11.885 28.9973 11.9872 28.8249 11.9707 28.8536L10.2383 27.8541C10.1875 27.9422 9.43393 29.2577 9.90057 30.8233L11.8172 30.252ZM11.9705 28.854C11.8597 29.0458 11.6124 29.113 11.4191 29.001L12.4213 27.2702C11.6562 26.8272 10.6796 27.0901 10.2385 27.8538L11.9705 28.854ZM11.4202 29.0016C11.2276 28.8905 11.1621 28.6452 11.271 28.4535L13.0102 29.441C13.4428 28.6791 13.1814 27.7091 12.4202 27.2696L11.4202 29.0016ZM11.2646 28.4648C11.2351 28.5185 10.725 29.442 11.0509 30.5021L12.9626 29.9144C12.9341 29.8216 12.9367 29.7059 12.9672 29.5811C12.9973 29.4582 13.04 29.3871 13.0166 29.4296L11.2646 28.4648ZM11.0509 30.5021C11.312 31.3517 11.996 31.9429 12.7952 32.3459L13.6957 30.5602C13.1503 30.2851 13.0008 30.0387 12.9626 29.9144L11.0509 30.5021ZM12.7945 32.3456C12.5961 32.2454 12.5165 32.0032 12.6167 31.8047L14.4021 32.7059C14.7994 31.9187 14.4838 30.9583 13.6965 30.5605L12.7945 32.3456ZM12.6163 31.8055C12.6883 31.6624 12.8325 31.5832 12.9762 31.5832V33.5832C13.5566 33.5832 14.1209 33.2643 14.4025 32.7051L12.6163 31.8055Z" fill="black" mask="url(#path-1-inside-1_1440_15296)"/>
</svg>
