<svg width="64" height="58" viewBox="0 0 64 58" fill="none" xmlns="http://www.w3.org/2000/svg">
<path d="M30.8399 67.8417H30.3399V68.3417V114.194C30.3399 117.387 27.7514 119.974 24.5593 119.973C21.3681 119.973 18.7796 117.387 18.7796 114.194V64.4159V54.7961V36.0984V35.2128L18.0213 35.6703C14.6775 37.6877 10.0667 40.6932 6.0796 43.4281L6.07945 43.4282C5.47153 43.8455 4.76762 44.053 4.06452 44.053C3.30069 44.053 2.53928 43.8085 1.90227 43.3225C0.678658 42.3888 0.192717 40.775 0.697376 39.3212L0.697408 39.3211C1.10164 38.1558 2.28857 34.849 3.93797 31.2209C5.59361 27.5791 7.69073 23.6695 9.90281 21.2599L9.91063 21.2514L9.91805 21.2425C11.4416 19.4206 14.2298 16.3629 16.9366 14.783C17.3647 14.5341 17.9141 14.6787 18.1631 15.1058L18.5919 14.8558L18.1631 15.1058C18.4127 15.5338 18.2681 16.083 17.8403 16.3324L17.8403 16.3324C16.2561 17.2564 14.6269 18.7609 13.2981 20.1506L12.9493 20.5153L13.3173 20.8607C14.1608 21.6524 14.9703 22.7696 15.424 23.7765C15.6519 24.2821 15.7744 24.7259 15.7877 25.0669C15.8008 25.404 15.7089 25.5639 15.5984 25.6469L15.5983 25.6469C15.1847 25.9573 14.7453 26.461 14.2977 27.0778C13.8446 27.7022 13.3614 28.4731 12.8652 29.3456L11.9158 31.0148L13.5587 30.0205C19.7477 26.2749 21.0519 26.2757 21.751 26.2761C21.7583 26.2761 21.7655 26.2761 21.7727 26.2761H21.8003L21.8277 26.2731C21.9543 26.2591 22.0796 26.2512 22.205 26.2512H41.8296C41.955 26.2512 42.0802 26.2591 42.2068 26.2731L42.2343 26.2761H42.2619L42.2838 26.2761C42.983 26.2757 44.2872 26.2749 50.4759 30.0205L52.1176 31.0142L51.1695 29.3457C50.6735 28.4729 50.1904 27.7019 49.7372 27.0775C49.2896 26.4607 48.85 25.9572 48.4361 25.6468L48.4361 25.6468C48.3256 25.564 48.2337 25.4041 48.2468 25.0672C48.26 24.7263 48.3825 24.2827 48.6102 23.7772C49.0638 22.7704 49.873 21.6534 50.7163 20.8617L51.0842 20.5163L50.7355 20.1516C49.4057 18.761 47.7759 17.2554 46.1943 16.3329L46.1942 16.3329C45.7665 16.0835 45.6219 15.5343 45.8714 15.1063C46.1208 14.6787 46.6693 14.534 47.0979 14.7835C49.8036 16.3619 52.5904 19.418 54.1145 21.24L54.1219 21.2489L54.1298 21.2574C56.3421 23.6665 58.4395 27.5765 60.0956 31.2191C61.7453 34.8477 62.9326 38.1554 63.3371 39.321C63.8414 40.7751 63.3558 42.3889 62.1323 43.3225C61.4953 43.8085 60.7334 44.053 59.97 44.053C59.267 44.053 58.5636 43.8455 57.955 43.4281L57.9549 43.428C53.9674 40.6932 49.3565 37.6872 46.0127 35.6698L45.2544 35.2123V36.0979V54.7961V64.4159V114.194C45.2544 117.387 42.666 119.973 39.4738 119.973C36.2827 119.973 33.6942 117.387 33.6942 114.194V68.3417V67.8417H33.1942H30.8399Z" stroke="#111827"/>
<path d="M42.9453 11.4286C42.9453 17.4643 38.0524 22.3571 32.0167 22.3571C25.981 22.3571 21.0881 17.4643 21.0881 11.4286C21.0881 5.39289 25.981 0.5 32.0167 0.5C38.0524 0.5 42.9453 5.39289 42.9453 11.4286Z" stroke="#111827"/>
</svg>
