<svg id="Capa_1" enable-background="new 0 0 511.935 511.935" height="512" viewBox="0 0 511.935 511.935" width="512" xmlns="http://www.w3.org/2000/svg"><g><path d="m45.943 511.935h230.143c4.143 0 7.5-3.358 7.5-7.5s-3.357-7.5-7.5-7.5h-39.257c.032-.208.049-.422.074-.632.019-.16.041-.319.056-.48.05-.541.083-1.087.083-1.642v-13.466c0-1.835-.28-3.607-.8-5.274-.111-.356-.251-.699-.384-1.046 18.139 6.537 37.613 9.869 57.903 9.893h.179c18.838 0 37.303-3.391 54.883-10.08 6.901-2.625 10.529-10.191 8.284-17.25l-34.541-113.305c7.009-3.95 13.276-9.29 18.406-15.813 5.661.788 10.947-1.137 14.709-4.898l23.259-23.259 55.482 21.487c3.295 1.363 6.596 3.238 9.78 5.555l-19.988 20.431c-11.107 11.354-17.226 26.354-17.226 42.24v23.89c0 4.142 3.357 7.5 7.5 7.5s7.5-3.358 7.5-7.5v-23.89c0-11.94 4.599-23.216 12.948-31.75l20.137-20.583c8.84 10.815 13.672 24.117 13.672 37.695v116.67c0 3.038-2.472 5.509-5.509 5.509h-41.248v-48.651c0-4.142-3.357-7.5-7.5-7.5s-7.5 3.358-7.5 7.5v48.651h-95.902c-4.143 0-7.5 3.358-7.5 7.5s3.357 7.5 7.5 7.5h152.15c11.309 0 20.509-9.2 20.509-20.509v-116.67c0-29.106-17.958-56.9-43.684-67.487-.049-.02-.097-.04-.146-.058-9.642-3.734-90.424-35.02-100.687-38.994l-.016-19.795c5.222-3.879 9.711-8.173 13.766-13.003 9.274 13.854 24.98 23.397 41.121 24.018 29.467 1.128 53.697-22.349 53.697-51.626 0-16.391-7.521-31.448-20.637-41.312h-.001c-1.025-.771-1.406-2.03-.97-3.208 1.737-4.688 2.618-9.618 2.618-14.654 0-9.519-3.098-18.504-8.957-25.984-.804-1.025-.804-2.403 0-3.429 5.859-7.48 8.957-16.466 8.957-25.984 0-13.406-6.472-26.138-17.312-34.059-6.491-4.741-12.788-11.762-17.274-19.261-22.177-37.067-56.8-48.839-97.494-33.144-2.846 1.097-5.978 1.097-8.819 0-40.695-15.694-75.318-3.924-97.495 33.142-4.487 7.499-10.784 14.52-17.276 19.262-10.84 7.92-17.312 20.652-17.312 34.058 0 9.519 3.098 18.504 8.958 25.986.803 1.024.803 2.401-.001 3.427-5.859 7.48-8.957 16.465-8.957 25.984 0 5.046.885 9.986 2.629 14.681.431 1.161.046 2.41-.98 3.182-6.703 5.041-12.021 11.562-15.594 19.059-11.564 0-80.407 0-96.003 0-9.752 0-17.686 7.934-17.686 17.687v52.072c0 9.752 7.934 17.687 17.686 17.687h37.024v105.085c0 10.887 7.143 20.133 16.987 23.308v21.885h-23.793c-15.563 0-28.226 12.662-28.226 28.226v11.451h-1.925c-9.789 0-17.754 7.964-17.754 17.754v13.466c.001 9.79 7.965 17.755 17.754 17.755zm180.631-55.148c-.819 2.575-.846 5.206-.229 7.644-2.164-.942-4.548-1.471-7.054-1.471l-1.922-.001v-11.45c0-15.564-12.662-28.226-28.226-28.226h-12.501v-33.89c0-15.885-6.118-30.886-17.226-42.239l-19.926-20.368c3.208-2.357 6.517-4.293 9.728-5.621l55.442-21.653 23.429 23.429c3.679 3.678 8.861 5.59 14.329 4.943 5.143 6.569 11.457 11.894 18.626 15.818zm-64.931-67.393v33.89h-46.756v-21.881c9.971-3.225 16.986-12.58 16.986-23.311 0 0 0 0 0-.001v-37.641l16.822 17.195c8.349 8.533 12.948 19.808 12.948 31.749zm58.273-95.84 24.491-9.565 11.316 11.316c.944.944.906 2.445 0 3.348-.105.105-13.686 13.686-13.686 13.686-.886.875-2.394.943-3.341-.005zm122.607 166.998c-7.979 2.969-16.156 5.183-24.474 6.641l-4.006-32.339c-.509-4.111-4.258-7.029-8.365-6.521-4.111.509-7.03 4.255-6.521 8.365l4 32.287c-3.059.201-6.131.303-9.215.303-.053 0-.108 0-.161 0-4.456-.005-8.865-.188-13.223-.538l3.971-32.051c.509-4.111-2.41-7.856-6.521-8.365-4.1-.513-7.855 2.41-8.365 6.521l-3.964 31.991c-8.424-1.487-16.615-3.643-24.514-6.476l33.864-111.097c5.65 1.5 11.593 2.247 17.489 2.255h.071.002c.016 0 .032-.001.047-.001 5.234-.006 10.615-.684 15.993-2.149zm-49.935-124.026c-.018 0-.036 0-.054 0-14.192-.015-27.73-5.468-37.077-16.394l9.191-9.192c8.823 3.079 18.247 4.642 28.088 4.654h.092c9.054 0 17.887-1.55 26.33-4.616l8.928 8.927c-9.147 10.81-22.268 16.621-35.498 16.621zm-35.194-60.765c1.273-2.169 1.966-4.662 1.966-7.376v-11.325c19.542 8.389 43.677 9.447 64.861.192l.009 11.199c.008 2.692.73 5.239 2.021 7.437l-8.812 8.811c-3.505 3.505-5.18 8.148-5.056 12.751-6.327 2.103-12.911 3.177-19.627 3.146-7.482-.009-14.639-1.1-21.364-3.23.101-4.575-1.576-9.183-5.06-12.667zm106.254 17.998-18.575 18.575c-.927.927-2.423.923-3.346 0 0 0 0 0-.001 0l-13.679-13.679c-.001-.001-.003-.004-.005-.005-.874-.878-.965-2.376.002-3.344l11.053-11.053zm-7.116-109.179c0 34.627-28.315 64.375-64 64.208-38.972-.149-65.433-30.536-65.433-63.68v-58.988c18.796-.256 37.303-5.997 53.441-15.029 7.042-3.942 15.415-4.095 22.618-.481 4.01 2.014 24.987 14.82 53.374 15.494zm-190.045-6.093c6.359-4.782 8.78-12.978 6.025-20.394-1.121-3.018-1.689-6.2-1.689-9.457 0-6.133 1.993-11.919 5.766-16.734 5.058-6.457 5.058-15.475 0-21.929-3.771-4.815-5.766-10.602-5.766-16.734 0-8.636 4.172-16.84 11.16-21.946 8.055-5.884 15.818-14.512 21.299-23.672 18.518-30.95 45.175-39.98 79.227-26.848 6.324 2.439 13.29 2.439 19.614 0 34.052-13.133 60.708-4.1 79.226 26.848 5.48 9.161 13.244 17.789 21.298 23.672 6.989 5.105 11.161 13.31 11.161 21.946 0 6.133-1.994 11.919-5.766 16.734-5.057 6.456-5.058 15.473 0 21.93 3.772 4.814 5.766 10.601 5.766 16.733 0 3.251-.566 6.428-1.683 9.44-2.755 7.43-.335 15.632 6.02 20.411 9.312 7.003 14.652 17.691 14.652 29.323 0 20.79-17.226 37.456-38.121 36.637-13.496-.52-26.609-9.975-32.315-22.919 6.191-11.665 9.171-24.496 9.171-36.948 0-69.334.01-62.368-.017-63.182-.187-5.896-5.076-10.424-10.848-10.286-17.112.376-34.325-4.765-49.201-13.083-11.997-6.708-26.295-6.72-38.246-.031-1.203.673-2.495 1.359-3.841 2.046-14.299 7.292-30.262 11.565-46.304 11.042-5.977-.183-10.968 4.571-10.976 10.678 0 .004-.001.009-.001.013v63.332c0 12.574 3.032 25.681 9.582 37.661-5.999 12.256-18.838 21.182-31.726 21.678-1.125.043-2.249.036-3.372-.023v-41.18c0-9.752-7.935-17.687-17.687-17.687h-9.539c2.028-2.653 4.42-5.032 7.131-7.071zm-12.378 22.071h14.787c1.481 0 2.687 1.205 2.687 2.687v52.072c0 1.481-1.205 2.687-2.687 2.687h-14.787zm14.788 72.445c8.346 0 15.344-5.819 17.193-13.608 1.48.069 2.961.099 4.443.042 15.891-.612 31.2-9.658 40.534-23.119 3.814 4.426 7.939 8.345 13.292 12.221l.001 19.365c-70.296 27.454-56.678 22.136-100.663 39.314-.042.016-.084.033-.126.05-3.939 1.621-7.886 3.826-11.697 6.498v-40.763zm-108.235-15h-14.787c-1.48 0-2.686-1.205-2.686-2.687v-52.072c0-1.481 1.205-2.687 2.686-2.687h14.787zm15 0v-57.445h63.447v57.445c-33.526 0-31.388 0-63.447 0zm22.237 120.087v-105.087h18.974v57.46.01 47.617c0 5.234-4.259 9.487-9.486 9.487-5.232.001-9.488-4.255-9.488-9.487zm-35.031 73.42c0-7.293 5.933-13.226 13.226-13.226h113.05c7.293 0 13.226 5.933 13.226 13.226v11.447h-139.502zm-19.678 29.204c0-1.519 1.235-2.754 2.754-2.754h173.345c1.519 0 2.754 1.235 2.754 2.754v13.466c0 1.519-1.235 2.754-2.754 2.754h-173.346c-1.519 0-2.754-1.236-2.754-2.754v-13.466z"/></g></svg>