<svg width="64" height="64" viewBox="0 0 64 64" fill="none" xmlns="http://www.w3.org/2000/svg">
<path d="M16.6743 60.1689C25.0458 61.9311 33.7773 58.6582 38.4003 52.0327L42.6659 45.9194L46.5317 58.8154C46.9432 60.0547 47.7408 61.1297 48.8076 61.8828C49.8744 62.6359 51.1544 63.0276 52.4599 63.0005C54.0316 63.0572 55.5618 62.4895 56.7161 61.4214C57.8704 60.3532 58.555 58.8716 58.6201 57.3003C58.6218 56.7053 58.5219 56.1145 58.3247 55.5532L51.5474 35.993C52.345 35.6565 53.0189 35.0815 53.4767 34.3468C53.9345 33.6121 54.1537 32.7537 54.1043 31.8895C54.055 31.0253 53.7394 30.1975 53.2009 29.5197C52.6624 28.842 51.9273 28.3474 51.0966 28.104L28.8742 21.5681C28.5669 20.4196 28.0404 19.3412 27.3237 18.3925C26.5657 17.4329 25.6131 16.6446 24.5285 16.0797C23.4439 15.5147 22.252 15.1858 21.0312 15.1147L20.2714 15.0449C15.1811 14.5761 10.5517 18.0005 9.94867 22.6695L6.71867 47.1597C5.91794 53.2133 10.1977 58.8061 16.6743 60.1689ZM51.8642 31.1171C52.0022 31.3791 52.0855 31.6663 52.1091 31.9615C52.1327 32.2566 52.0961 32.5534 52.0014 32.834C51.8236 33.3648 51.4507 33.8082 50.9583 34.0746C50.4659 34.3409 49.8907 34.4102 49.3491 34.2685L20.374 26.6435C19.9257 26.5257 19.5165 26.2916 19.1876 25.965C18.8587 25.6384 18.6218 25.2308 18.5008 24.7834C18.3799 24.336 18.3791 23.8645 18.4987 23.4167C18.6182 22.9689 18.8537 22.5605 19.1816 22.2329C19.5161 21.8981 19.9347 21.6597 20.3934 21.5429C20.852 21.426 21.3336 21.435 21.7876 21.5688L50.5322 30.0229C50.8168 30.1056 51.0816 30.2452 51.3105 30.4333C51.5395 30.6214 51.7279 30.8541 51.8642 31.1171ZM29.3901 31.0845L36.2419 32.8875L29.3901 42.2582V31.0845ZM8.70111 47.4213L11.9316 22.9282C12.3994 19.3115 16.0517 16.6714 20.0888 17.0361L20.8476 17.1059C22.0461 17.1461 23.2098 17.5195 24.2079 18.1843C25.206 18.849 25.999 19.7788 26.4981 20.8693L22.3519 19.6499C21.7627 19.4765 21.1448 19.422 20.5343 19.4896C19.9238 19.5572 19.3328 19.7454 18.7957 20.0434C18.2585 20.3414 17.786 20.7432 17.4056 21.2255C17.0251 21.7077 16.7443 22.2608 16.5795 22.8525C16.4147 23.4442 16.3691 24.0628 16.4455 24.6723C16.5219 25.2817 16.7186 25.87 17.0244 26.4027C17.3301 26.9355 17.7387 27.4021 18.2264 27.7756C18.714 28.1491 19.2711 28.4218 19.8651 28.5781L27.39 30.5582V45.3203C27.39 45.5312 27.4567 45.7367 27.5806 45.9074C27.7044 46.0781 27.879 46.2053 28.0795 46.2708C28.28 46.3363 28.496 46.3367 28.6968 46.272C28.8975 46.2073 29.0726 46.0808 29.1972 45.9106L38.0292 33.831C38.1346 33.6908 38.24 33.5625 38.3465 33.4412L48.8402 36.2026C49.0709 36.2611 49.3062 36.2997 49.5436 36.318L56.4369 56.2138C56.5595 56.5629 56.6214 56.9303 56.6201 57.3003C56.5544 58.3409 56.0805 59.3135 55.3014 60.0064C54.5224 60.6994 53.5011 61.0567 52.4599 61.0005C51.5846 61.029 50.723 60.7768 50.0012 60.2807C49.2794 59.7846 48.7352 59.0706 48.4482 58.2431L43.9877 43.3632C43.9338 43.1831 43.8301 43.0219 43.6886 42.898C43.5471 42.7742 43.3736 42.6927 43.1879 42.6631C43.0022 42.6318 42.8115 42.6543 42.6381 42.7278C42.4648 42.8013 42.316 42.9228 42.2094 43.078L36.7602 50.8881C32.5893 56.8642 24.6821 59.8056 17.0859 58.2119C11.6439 57.0669 8.039 52.4277 8.70111 47.4213Z" fill="#111827"/>
<path d="M35 21C36.9778 21 38.9112 20.4135 40.5557 19.3147C42.2002 18.2159 43.4819 16.6541 44.2388 14.8268C44.9957 12.9996 45.1937 10.9889 44.8079 9.0491C44.422 7.10929 43.4696 5.32746 42.0711 3.92894C40.6725 2.53041 38.8907 1.578 36.9509 1.19215C35.0111 0.806299 33.0004 1.00433 31.1732 1.76121C29.3459 2.51809 27.7841 3.79981 26.6853 5.4443C25.5865 7.08879 25 9.02219 25 11C25.0029 13.6513 26.0575 16.1931 27.9322 18.0678C29.8069 19.9425 32.3487 20.9971 35 21ZM35 3C36.5823 3 38.129 3.4692 39.4446 4.34825C40.7602 5.2273 41.7855 6.47673 42.391 7.93854C42.9965 9.40035 43.155 11.0089 42.8463 12.5607C42.5376 14.1126 41.7757 15.538 40.6569 16.6569C39.538 17.7757 38.1126 18.5376 36.5607 18.8463C35.0089 19.155 33.4003 18.9965 31.9385 18.391C30.4767 17.7855 29.2273 16.7602 28.3482 15.4446C27.4692 14.129 27 12.5823 27 11C27.0024 8.87902 27.8461 6.8456 29.3458 5.34583C30.8456 3.84607 32.879 3.00243 35 3Z" fill="#111827"/>
<path d="M5 2H3V12H5V2Z" fill="#111827"/>
<path d="M5 14H3V16H5V14Z" fill="#111827"/>
<path d="M9 2H7V6H9V2Z" fill="#111827"/>
<path d="M9 8H7V12H9V8Z" fill="#111827"/>
<path d="M13 2H11V14H13V2Z" fill="#111827"/>
<path d="M17 2H15V8H17V2Z" fill="#111827"/>
<path d="M17 10H15V12H17V10Z" fill="#111827"/>
<path d="M21 2H19V12H21V2Z" fill="#111827"/>
<path d="M49 2H47V14H49V2Z" fill="#111827"/>
<path d="M49 16H47V18H49V16Z" fill="#111827"/>
<path d="M53 2H51V8H53V2Z" fill="#111827"/>
<path d="M53 10H51V14H53V10Z" fill="#111827"/>
<path d="M57 2H55V10H57V2Z" fill="#111827"/>
<path d="M57 12H55V18H57V12Z" fill="#111827"/>
<path d="M61 2H59V8H61V2Z" fill="#111827"/>
<path d="M61 10H59V16H61V10Z" fill="#111827"/>
<path d="M61 18H59V22H61V18Z" fill="#111827"/>
<path d="M5 18H3V22H5V18Z" fill="#111827"/>
</svg>
