<svg width="64" height="64" viewBox="0 0 64 64" fill="none" xmlns="http://www.w3.org/2000/svg">
<path d="M61.9291 45.6281L58.0731 35.9911C58.2323 35.9801 58.3865 35.9311 58.5229 35.8483C58.6593 35.7655 58.7739 35.6513 58.8571 35.5151L61.8571 30.5151C61.9256 30.401 61.9707 30.2743 61.9896 30.1426C62.0086 30.0108 62.001 29.8766 61.9674 29.7477C61.9338 29.6189 61.8748 29.4981 61.7938 29.3924C61.7129 29.2867 61.6117 29.1982 61.4961 29.1321L57.9961 27.1321V19.0001C57.9926 17.9545 57.6607 16.9364 57.0472 16.0896C56.4337 15.2428 55.5696 14.6102 54.5771 14.2811C55.6564 13.347 56.4243 12.1052 56.7779 10.7223C57.1315 9.33942 57.0539 7.88146 56.5555 6.54391C56.057 5.20636 55.1616 4.05316 53.9892 3.23891C52.8168 2.42466 51.4235 1.98828 49.9961 1.98828C48.5687 1.98828 47.1754 2.42466 46.003 3.23891C44.8306 4.05316 43.9352 5.20636 43.4368 6.54391C42.9383 7.88146 42.8607 9.33942 43.2143 10.7223C43.5679 12.1052 44.3358 13.347 45.4151 14.2811C44.4233 14.6109 43.5601 15.2438 42.9474 16.0905C42.3346 16.9372 42.0033 17.955 42.0001 19.0001V22.9471L36.2111 30.3861C36.0614 30.5785 35.9872 30.8189 36.0023 31.0622C36.0174 31.3054 36.1208 31.5348 36.2931 31.7071L36.8541 32.2682L29.5281 39.5931L23.1651 33.2291C22.5935 32.6837 21.8337 32.3793 21.0436 32.3793C20.2535 32.3793 19.4937 32.6837 18.9221 33.2291L3.3651 48.7861L1.6001 50.5532C1.36626 50.7849 1.18048 51.0605 1.05345 51.3643C0.926424 51.668 0.860637 51.9938 0.85987 52.3231C0.859103 52.6523 0.923371 52.9784 1.04898 53.2827C1.1746 53.5871 1.35908 53.8636 1.59185 54.0964C1.82461 54.3292 2.10107 54.5138 2.40536 54.6395C2.70964 54.7652 3.03576 54.8296 3.36498 54.8289C3.69421 54.8282 4.02006 54.7625 4.32382 54.6356C4.62759 54.5086 4.90329 54.3229 5.1351 54.0891L6.1961 53.0281L10.4381 57.2711L9.3751 58.3321C8.90972 58.8018 8.6493 59.4366 8.65085 60.0977C8.65239 60.7589 8.91576 61.3925 9.38332 61.8599C9.85089 62.3274 10.4846 62.5905 11.1457 62.5919C11.8069 62.5933 12.4416 62.3327 12.9111 61.8671L14.6791 60.1001L30.2361 44.5431C30.6712 44.1041 30.9601 43.5413 31.0632 42.9318C31.1663 42.3224 31.0786 41.6959 30.8121 41.1381L38.2681 33.6821L40.2931 35.7071C40.4806 35.8947 40.7349 36.0001 41.0001 36.0001C41.0211 36.0001 41.0421 36.0001 41.0631 36.0001C41.2048 35.9913 41.343 35.9525 41.4686 35.8861C41.5941 35.8197 41.704 35.7273 41.7911 35.6152L42.5211 34.6731C42.9239 36.0555 43.5568 37.3601 44.3931 38.5322L42.0671 48.6001L36.1671 57.4482C36.0281 57.6563 35.9723 57.9091 36.0106 58.1564C36.049 58.4038 36.1787 58.6278 36.3741 58.7841L41.3741 62.7841C41.5524 62.9247 41.773 63.0009 42.0001 63.0001C42.1579 63.0002 42.3134 62.9629 42.4541 62.8912C42.5947 62.8196 42.7163 62.7158 42.8091 62.5882L50.8091 51.5882C50.875 51.4971 50.9254 51.3957 50.9581 51.2881L52.3261 46.7402L54.0001 48.4142V61.0001C54.0001 61.2654 54.1055 61.5197 54.293 61.7073C54.4805 61.8948 54.7349 62.0001 55.0001 62.0001H61.0001C61.2653 62.0001 61.5197 61.8948 61.7072 61.7073C61.8947 61.5197 62.0001 61.2654 62.0001 61.0001V46.0001C62.0001 45.8728 61.976 45.7466 61.9291 45.6281ZM3.7191 52.6751C3.62522 52.7689 3.49793 52.8215 3.36525 52.8214C3.23257 52.8213 3.10536 52.7685 3.0116 52.6746C2.91785 52.5808 2.86523 52.4535 2.86532 52.3208C2.86537 52.2551 2.87836 52.1901 2.90354 52.1294C2.92873 52.0687 2.96561 52.0136 3.0121 51.9671L4.0721 50.9072L4.7801 51.6141L3.7191 52.6751ZM10.7901 60.4531C10.6964 60.3594 10.6437 60.2322 10.6437 60.0996C10.6437 59.9671 10.6964 59.8399 10.7901 59.7461L11.8501 58.6852L12.5581 59.3921L11.5001 60.4531C11.4536 60.5 11.3983 60.5372 11.3374 60.5626C11.2765 60.588 11.2111 60.601 11.1451 60.601C11.0791 60.601 11.0137 60.588 10.9528 60.5626C10.8919 60.5372 10.8366 60.5 10.7901 60.4531ZM28.8211 43.1292L13.9721 57.9781L5.4861 49.4931L20.3361 34.6441C20.5265 34.4621 20.7797 34.3605 21.0431 34.3605C21.3065 34.3605 21.5597 34.4621 21.7501 34.6441L28.8211 41.7141C28.9141 41.807 28.9878 41.9173 29.0382 42.0387C29.0885 42.1601 29.1144 42.2902 29.1144 42.4216C29.1144 42.5531 29.0885 42.6832 29.0382 42.8046C28.9878 42.926 28.9141 43.0363 28.8211 43.1292ZM45.0001 9.00015C45.0001 8.01124 45.2933 7.04454 45.8428 6.2223C46.3922 5.40005 47.1731 4.75919 48.0867 4.38075C49.0003 4.00231 50.0056 3.9033 50.9756 4.09622C51.9455 4.28915 52.8364 4.76535 53.5356 5.46461C54.2349 6.16388 54.7111 7.05479 54.904 8.0247C55.097 8.9946 54.9979 9.99993 54.6195 10.9136C54.2411 11.8272 53.6002 12.6081 52.778 13.1575C51.9557 13.7069 50.989 14.0001 50.0001 14.0001C48.6745 13.9986 47.4037 13.4713 46.4663 12.5339C45.529 11.5966 45.0017 10.3257 45.0001 9.00015ZM40.9051 33.4911L38.3321 30.9171L42.0001 26.2001V31.0301C42.0001 31.3611 42.0241 31.6891 42.0481 32.0161L40.9051 33.4911ZM49.0911 50.5491L41.8071 60.5651L38.3411 57.7921L43.8321 49.5551C43.899 49.4546 43.9471 49.3428 43.9741 49.2251L46.0081 40.4251L50.7201 45.1371L49.0911 50.5491ZM60.0001 60.0001H56.0001V48.0001C56 47.735 55.8947 47.4806 55.7071 47.2931L47.2171 38.8032C46.1937 37.7845 45.3824 36.573 44.8302 35.2388C44.278 33.9046 43.9959 32.4741 44.0001 31.0301V19.0001C44.0001 18.2045 44.3162 17.4414 44.8788 16.8788C45.4414 16.3162 46.2045 16.0001 47.0001 16.0001H53.0001C53.7958 16.0001 54.5588 16.3162 55.1214 16.8788C55.684 17.4414 56.0001 18.2045 56.0001 19.0001V25.9911L54.8281 25.3211L52.9491 19.6841L51.0491 20.3161L53.0491 26.3161C53.127 26.5496 53.2883 26.7462 53.5021 26.8681L59.6151 30.3611L57.6151 33.6912L50.7641 30.2661L46.9101 21.5941L45.0821 22.4061L49.0821 31.4061C49.1763 31.6184 49.3414 31.7913 49.5491 31.8951L56.0001 35.1181V36.0001C56.0001 36.1275 56.0242 36.2537 56.0711 36.3722L60.0001 46.1922V60.0001Z" fill="#111827"/>
<path d="M19.2924 43.293L14.2925 48.293L15.7067 49.7072L20.7066 44.7072L19.2924 43.293Z" fill="#111827"/>
<path d="M23.2927 39.2933L21.293 41.293L22.7072 42.7072L24.7069 40.7075L23.2927 39.2933Z" fill="#111827"/>
</svg>
