<svg width="64" height="46" viewBox="0 0 64 46" fill="none" xmlns="http://www.w3.org/2000/svg">
<path d="M8.71701 32.3056L7.74247 32.1481C6.52188 35.8257 5.36429 42.7319 5.51304 55.7383C5.52886 57.1181 4.42377 58.2492 3.0446 58.2666H3.04454H3.04447H3.0444H3.04433H3.04426H3.0442H3.04413H3.04406H3.04399H3.04392H3.04386H3.04379H3.04372H3.04365H3.04358H3.04352H3.04345H3.04338H3.04331H3.04324H3.04318H3.04311H3.04304H3.04297H3.0429H3.04284H3.04277H3.0427H3.04263H3.04256H3.0425H3.04243H3.04236H3.04229H3.04222H3.04216H3.04209H3.04202H3.04195H3.04188H3.04181H3.04175H3.04168H3.04161H3.04154H3.04147H3.04141H3.04134H3.04127H3.0412H3.04113H3.04106H3.041H3.04093H3.04086H3.04079H3.04072H3.04065H3.04059H3.04052H3.04045H3.04038H3.04031H3.04024H3.04018H3.04011H3.04004H3.03997H3.0399H3.03983H3.03977H3.0397H3.03963H3.03956H3.03949H3.03942H3.03936H3.03929H3.03922H3.03915H3.03908H3.03901H3.03894H3.03888H3.03881H3.03874H3.03867H3.0386H3.03853H3.03847H3.0384H3.03833H3.03826H3.03819H3.03812H3.03805H3.03799H3.03792H3.03785H3.03778H3.03771H3.03764H3.03757H3.03751H3.03744H3.03737H3.0373H3.03723H3.03716H3.03709H3.03703H3.03696H3.03689H3.03682H3.03675H3.03668H3.03661H3.03654H3.03648H3.03641H3.03634H3.03627H3.0362H3.03613H3.03606H3.036H3.03593H3.03586H3.03579H3.03572H3.03565H3.03558H3.03551H3.03545H3.03538H3.03531H3.03524H3.03517H3.0351H3.03503H3.03496H3.0349H3.03483H3.03476H3.03469H3.03462H3.03455H3.03448H3.03441H3.03435H3.03428H3.03421H3.03414H3.03407H3.034H3.03393H3.03386H3.0338H3.03373H3.03366H3.03359H3.03352H3.03345H3.03338H3.03331H3.03325H3.03318H3.03311H3.03304H3.03297H3.0329H3.03283H3.03276H3.0327H3.03263H3.03256H3.03249H3.03242H3.03235H3.03228H3.03221H3.03214H3.03208H3.03201H3.03194H3.03187H3.0318H3.03173H3.03166H3.03159H3.03153H3.03146H3.03139H3.03132H3.03125H3.03118H3.03111H3.03104H3.03097H3.03091H3.03084H3.03077H3.0307H3.03063H3.03056H3.03049H3.03042H3.03035H3.03029H3.03022H3.03015H3.03008H3.03001H3.02994H3.02987H3.0298H3.02974H3.02967H3.0296H3.02953H3.02946H3.02939H3.02932H3.02925H3.02918H3.02912H3.02905H3.02898H3.02891H3.02884H3.02877H3.0287H3.02863H3.02856H3.0285H3.02843H3.02836H3.02829H3.02822H3.02815H3.02808H3.02801H3.02795H3.02788H3.02781H3.02774H3.02767H3.0276H3.02753H3.02746H3.02739H3.02733H3.02726H3.02719H3.02712H3.02705H3.02698H3.02691H3.02684H3.02678H3.02671H3.02664H3.02657H3.0265H3.02643H3.02636H3.02629H3.02623H3.02616H3.02609H3.02602H3.02595H3.02588H3.02581H3.02574H3.02568H3.02561H3.02554H3.02547H3.0254H3.02533H3.02526H3.02519H3.02513H3.02506H3.02499H3.02492H3.02485H3.02478H3.02471H3.02464H3.02458H3.02451H3.02444H3.02437H3.0243H3.02423H3.02416H3.02409H3.02403H3.02396H3.02389H3.02382H3.02375H3.02368H3.02361H3.02355H3.02348H3.02341H3.02334H3.02327H3.0232H3.02313H3.02306H3.023H3.02293H3.02286H3.02279H3.02272H3.02265H3.02258H3.02252H3.02245H3.02238H3.02231H3.02224H3.02217H3.0221H3.02204H3.02197H3.0219H3.02183H3.02176H3.02169H3.02162H3.02156H3.02149H3.02142H3.02135H3.02128H3.02121H3.02115H3.02108H3.02101H3.02094H3.02087H3.0208H3.02073H3.02067H3.0206H3.02053H3.02046H3.02039H3.02032H3.02026H3.02019H3.02012H3.02005H3.01998H3.01991H3.01985H3.01978H3.01971H3.01964H3.01957H3.0195H3.01944H3.01937H3.0193H3.01923H3.01916H3.01909H3.01903H3.01896H3.01889H3.01882H3.01875H3.01868H3.01862H3.01855H3.01848H3.01841H3.01834H3.01828H3.01821H3.01814H3.01807H3.018H3.01793H3.01787H3.0178H3.01773H3.01766H3.01759H3.01753H3.01746H3.01739H3.01732H3.01725H3.01718H3.01712H3.01705H3.01698H3.01691H3.01684H3.01678H3.01671H3.01664H3.01657H3.0165H3.01644H3.01637H3.0163H3.01623H3.01617H3.0161H3.01603H3.01596H3.01589H3.01583H3.01576H3.01569H3.01562H3.01555H3.01549H3.01542H3.01535H3.01528H3.01521H3.01515H3.01508H3.01501H3.01494H3.01488H3.01481H3.01474H3.01467H3.0146H3.01454H3.01447H3.0144H3.01433H3.01427H3.0142H3.01413H3.01406H3.014H3.01393H3.01386H3.01379H3.01373H3.01366H3.01359H3.01352H3.01346H3.01339H3.01332H3.01325H3.01319H3.01312H3.01305H3.01298H3.01292H3.01285H3.01278H3.01271H3.01265H3.01258H3.01251C1.64502 58.2666 0.528893 57.1661 0.513479 55.7955L0.513478 55.7954C0.417152 47.3634 0.841776 40.6206 1.79303 35.4822C2.74714 30.3283 4.21835 26.8621 6.15404 24.9047L6.15405 24.9046C7.44002 23.6041 8.97981 22.8988 10.6281 22.8109L10.6639 22.809L10.6991 22.802C10.866 22.7688 11.0388 22.7511 11.2165 22.7511H27.754H27.8557L27.9492 22.7114L56.2155 10.7235C56.2237 10.7213 56.2356 10.7181 56.2491 10.714L56.2736 10.7064L56.2973 10.6964L62.4062 8.1054L62.4064 8.10533C62.7224 7.97118 63.0874 8.11885 63.2211 8.43451L63.2213 8.43499C63.3553 8.7507 63.208 9.1156 62.8918 9.24977C62.8918 9.24978 62.8918 9.24979 62.8918 9.2498L57.8383 11.3928L57.3319 11.6075L57.5939 12.0912C57.9785 12.8013 58.2659 13.6293 58.3543 14.3024C58.3988 14.6412 58.388 14.9057 58.3395 15.0854C58.2932 15.2571 58.23 15.3001 58.1918 15.3163C58.1918 15.3163 58.1918 15.3163 58.1917 15.3163L30.8298 26.9203L30.525 27.0495V27.3806V44.5211V52.6221V87.1876C30.525 89.7759 28.4259 91.8751 25.8375 91.8751C23.2481 91.8751 21.149 89.7759 21.149 87.1876V60.4331V59.9331H20.649H18.5925H18.0925V60.4331V87.1876C18.0925 89.776 15.9933 91.8751 13.406 91.8751C10.8156 91.8751 8.71701 89.7759 8.71701 87.1876V52.6221V44.5206V32.3056Z" stroke="#111827"/>
<path d="M29.371 10.25C29.371 15.6348 25.0057 20 19.621 20C14.2362 20 9.87097 15.6348 9.87097 10.25C9.87097 4.86522 14.2362 0.5 19.621 0.5C25.0057 0.5 29.371 4.86522 29.371 10.25Z" stroke="#111827"/>
</svg>
