<svg width="40" height="43" viewBox="0 0 40 43" fill="none" xmlns="http://www.w3.org/2000/svg">
<g clip-path="url(#clip0_806_9283)">
<path d="M6.07106 30.7768C6.45023 30.5508 6.76432 30.2304 6.98267 29.8467C7.20103 29.4631 7.31618 29.0294 7.3169 28.588V26.9349C8.1497 27.208 9.0354 27.2799 9.90134 27.1444C10.7673 27.009 11.5888 26.6702 12.2984 26.1559C13.0081 25.6415 13.5856 24.9662 13.9838 24.1854C14.3819 23.4046 14.5892 22.5405 14.5888 21.664V17.9744C14.5696 16.5161 13.9768 15.1239 12.9387 14.0994C11.9007 13.0749 10.5009 12.5005 9.04238 12.5005C7.5839 12.5005 6.18409 13.0749 5.14603 14.0994C4.10797 15.1239 3.51518 16.5161 3.49601 17.9744V21.665C3.49672 22.642 3.75543 23.6015 4.24596 24.4464C4.7365 25.2913 5.44146 25.9917 6.28956 26.4768V28.5851C6.28878 28.8482 6.21976 29.1066 6.08924 29.3351C5.95873 29.5635 5.77118 29.7542 5.54493 29.8885C3.85821 30.8909 2.46053 32.314 1.48859 34.0185C0.516653 35.723 0.0037359 37.6506 0 39.6127L0 41.5447C0 41.6809 0.0541185 41.8116 0.15045 41.9079C0.246781 42.0043 0.377435 42.0584 0.513668 42.0584H17.5788C17.715 42.0584 17.8457 42.0043 17.942 41.9079C18.0383 41.8116 18.0924 41.6809 18.0924 41.5447V39.6127C18.0878 37.6507 17.5741 35.7235 16.6015 34.0195C15.6289 32.3155 14.2307 30.8931 12.5437 29.8913C12.3174 29.7571 12.1299 29.5664 11.9994 29.3379C11.8688 29.1095 11.7998 28.8511 11.799 28.588C11.799 28.4518 11.7449 28.3211 11.6486 28.2248C11.5523 28.1285 11.4216 28.0743 11.2854 28.0743C11.1491 28.0743 11.0185 28.1285 10.9222 28.2248C10.8258 28.3211 10.7717 28.4518 10.7717 28.588C10.7723 29.0294 10.8874 29.4632 11.1058 29.8468C11.3242 30.2305 11.6383 30.5509 12.0175 30.7768C13.5512 31.6871 14.8224 32.9798 15.7067 34.5286C16.5909 36.0774 17.058 37.8293 17.0622 39.6127V41.0301H1.02734V39.6127C1.03154 37.8294 1.49852 36.0776 2.38261 34.5289C3.26669 32.9801 4.53761 31.6873 6.07106 30.7768ZM4.52718 21.665V17.9744C4.52718 16.776 5.00324 15.6267 5.85064 14.7793C6.69803 13.9319 7.84734 13.4559 9.04574 13.4559C10.2441 13.4559 11.3934 13.9319 12.2408 14.7793C13.0882 15.6267 13.5643 16.776 13.5643 17.9744V21.665C13.563 22.863 13.0866 24.0116 12.2394 24.8587C11.3923 25.7058 10.2437 26.1823 9.04574 26.1835C7.84773 26.1823 6.69916 25.7058 5.85204 24.8587C5.00492 24.0116 4.52845 22.863 4.52718 21.665Z" fill="#111827" stroke="#111827" stroke-width="0.25"/>
<path d="M35.8887 0H24.2631C23.1735 0.00253101 22.1293 0.436493 21.3588 1.20696C20.5884 1.97742 20.1544 3.02167 20.1519 4.11126V12.1316C20.1519 12.2678 20.206 12.3985 20.3023 12.4948C20.3987 12.5911 20.5293 12.6452 20.6655 12.6452C20.8018 12.6452 20.9324 12.5911 21.0288 12.4948C21.1251 12.3985 21.1792 12.2678 21.1792 12.1316V4.11126C21.1802 3.29367 21.5055 2.50985 22.0836 1.93172C22.6617 1.35359 23.4455 1.02835 24.2631 1.02734H35.8887C36.7063 1.02835 37.4901 1.35359 38.0683 1.93172C38.6464 2.50985 38.9716 3.29367 38.9726 4.11126V15.7368C38.9716 16.5543 38.6464 17.3381 38.0682 17.916C37.49 18.494 36.7062 18.819 35.8887 18.8198H17.8538L21.0163 15.9151C21.0659 15.8694 21.1061 15.8144 21.1345 15.7532C21.1629 15.692 21.1789 15.6258 21.1817 15.5584C21.1845 15.491 21.174 15.4237 21.1508 15.3603C21.1276 15.297 21.0922 15.2388 21.0465 15.1892C21.0008 15.1395 20.9458 15.0993 20.8846 15.071C20.8234 15.0426 20.7572 15.0265 20.6898 15.0237C20.6224 15.0209 20.5551 15.0314 20.4917 15.0546C20.4284 15.0778 20.3702 15.1133 20.3205 15.159L16.1892 18.9559C16.1129 19.0258 16.0596 19.1171 16.0361 19.2179C16.0126 19.3187 16.0201 19.4242 16.0576 19.5206C16.0951 19.617 16.1609 19.6999 16.2462 19.7583C16.3316 19.8167 16.4326 19.848 16.5361 19.8481H35.8887C36.9783 19.8456 38.0226 19.4116 38.793 18.6411C39.5635 17.8707 39.9974 16.8264 40 15.7368V4.11126C39.9974 3.02167 39.5635 1.97742 38.793 1.20696C38.0226 0.436493 36.9783 0.00253101 35.8887 0Z" fill="#111827" stroke="#111827" stroke-width="0.25"/>
<path d="M31.1661 3.18184C30.8698 2.84387 30.4726 2.61021 30.0333 2.51539C29.5939 2.42057 29.1357 2.46963 28.7264 2.65532C28.3171 2.84101 27.9784 3.15347 27.7604 3.5465C27.5424 3.93954 27.4566 4.3923 27.5158 4.83785L28.4847 12.0934C28.5209 12.3612 28.6529 12.6067 28.8564 12.7845C29.0598 12.9623 29.3209 13.0603 29.5911 13.0603C29.8613 13.0603 30.1223 12.9623 30.3257 12.7845C30.5292 12.6067 30.6613 12.3612 30.6975 12.0934L31.6654 4.83785C31.7051 4.54218 31.6811 4.24143 31.595 3.9558C31.5089 3.67018 31.3626 3.40628 31.1661 3.18184ZM30.6476 4.70177L29.6787 11.9573C29.674 11.9899 29.6682 12.034 29.5906 12.034C29.513 12.034 29.5072 11.9899 29.5034 11.9573L28.5345 4.70177C28.5147 4.55138 28.5273 4.3985 28.5713 4.25335C28.6153 4.1082 28.6899 3.97412 28.7899 3.86008C28.8899 3.74604 29.0131 3.65467 29.1513 3.59207C29.2894 3.52948 29.4394 3.49709 29.5911 3.49709C29.7427 3.49709 29.8927 3.52948 30.0308 3.59207C30.169 3.65467 30.2922 3.74604 30.3922 3.86008C30.4923 3.97412 30.5668 4.1082 30.6108 4.25335C30.6549 4.3985 30.6674 4.55138 30.6476 4.70177Z" fill="#111827" stroke="#111827" stroke-width="0.25"/>
<path d="M27.7917 15.7514C27.7917 16.1079 27.8975 16.4565 28.0956 16.7529C28.2937 17.0494 28.5753 17.2805 28.9048 17.4169C29.2342 17.5533 29.5967 17.5889 29.9464 17.5193C30.2961 17.4497 30.6173 17.2779 30.8694 17.0257C31.1214 16.7735 31.293 16.4522 31.3625 16.1024C31.4319 15.7527 31.3961 15.3902 31.2595 15.0609C31.1229 14.7315 30.8917 14.45 30.5952 14.2521C30.2986 14.0541 29.95 13.9485 29.5934 13.9487C29.1156 13.9492 28.6575 14.1394 28.3197 14.4773C27.9819 14.8153 27.792 15.2735 27.7917 15.7514ZM30.3687 15.7514C30.3687 15.9047 30.3232 16.0546 30.2381 16.1821C30.1529 16.3096 30.0318 16.409 29.8901 16.4676C29.7484 16.5263 29.5926 16.5417 29.4422 16.5118C29.2918 16.4818 29.1536 16.408 29.0452 16.2996C28.9368 16.1911 28.8629 16.053 28.833 15.9026C28.8031 15.7522 28.8185 15.5963 28.8771 15.4547C28.9358 15.313 29.0352 15.1919 29.1627 15.1067C29.2902 15.0215 29.4401 14.9761 29.5934 14.9761C29.7985 14.9768 29.995 15.0588 30.1398 15.2042C30.2846 15.3495 30.3658 15.5462 30.3658 15.7514H30.3687Z" fill="#111827" stroke="#111827" stroke-width="0.25"/>
</g>
<defs>
<clipPath id="clip0_806_9283">
<rect width="40" height="42.0585" fill="white"/>
</clipPath>
</defs>
</svg>
