<svg width="38" height="40" viewBox="0 0 38 40" fill="none" xmlns="http://www.w3.org/2000/svg">
<g clip-path="url(#clip0_806_9193)">
<path d="M33.8121 6.90835L27.4787 0.241681C27.4048 0.164446 27.317 0.103342 27.2206 0.0618712C27.1241 0.0204007 27.0208 -0.000620149 26.9166 1.39286e-05H6.33331C5.70342 1.39286e-05 5.09933 0.263406 4.65393 0.732247C4.20854 1.20109 3.95831 1.83697 3.95831 2.50001V37.5C3.95831 38.1631 4.20854 38.7989 4.65393 39.2678C5.09933 39.7366 5.70342 40 6.33331 40H31.6666C32.2965 40 32.9006 39.7366 33.346 39.2678C33.7914 38.7989 34.0416 38.1631 34.0416 37.5V7.50001C34.0422 7.39034 34.0223 7.28162 33.9829 7.18009C33.9435 7.07856 33.8854 6.98621 33.8121 6.90835ZM27.7083 2.84168L31.3421 6.66668H28.5C28.29 6.66668 28.0887 6.57888 27.9402 6.4226C27.7917 6.26632 27.7083 6.05436 27.7083 5.83335V2.84168ZM32.4583 37.5C32.4583 37.721 32.3749 37.933 32.2264 38.0893C32.078 38.2455 31.8766 38.3333 31.6666 38.3333H6.33331C6.12335 38.3333 5.92199 38.2455 5.77352 38.0893C5.62505 37.933 5.54165 37.721 5.54165 37.5V2.50001C5.54165 2.279 5.62505 2.06704 5.77352 1.91076C5.92199 1.75448 6.12335 1.66668 6.33331 1.66668H26.125V5.83335C26.125 6.49639 26.3752 7.13227 26.8206 7.60111C27.266 8.06996 27.8701 8.33335 28.5 8.33335H32.4583V37.5Z" fill="#111827"/>
<path d="M28.5 15H12.6667V16.6667H28.5V15Z" fill="#111827"/>
<path d="M28.5 20H9.5V21.6667H28.5V20Z" fill="#111827"/>
<path d="M28.5 25H9.5V26.6667H28.5V25Z" fill="#111827"/>
<path d="M22.1667 30H9.5V31.6667H22.1667V30Z" fill="#111827"/>
<path d="M28.5 30H26.9167V31.6667H28.5V30Z" fill="#111827"/>
<path d="M25.3333 30H23.75V31.6667H25.3333V30Z" fill="#111827"/>
</g>
<defs>
<clipPath id="clip0_806_9193">
<rect width="38" height="40" fill="white"/>
</clipPath>
</defs>
</svg>
