<svg width="40" height="27" viewBox="0 0 40 27" fill="none" xmlns="http://www.w3.org/2000/svg">
<path d="M39.9453 11.182L35.071 0.355555C35.0388 0.283487 34.9928 0.218469 34.9354 0.164225C34.8781 0.109981 34.8107 0.0675769 34.7369 0.0394389C34.6632 0.011301 34.5847 -0.00201739 34.5058 0.0002471C34.4269 0.0025116 34.3492 0.0203143 34.2773 0.0526355L29.5631 2.17307C29.491 2.20535 29.4259 2.25155 29.3717 2.30903C29.3175 2.36652 29.2752 2.43414 29.2472 2.50802C29.2191 2.5819 29.206 2.66059 29.2085 2.73957C29.211 2.81854 29.229 2.89625 29.2616 2.96823L29.4072 3.29591C28.1142 3.70286 26.7428 3.79572 25.4067 3.56679C24.5114 3.41752 23.5976 3.41752 22.7023 3.56679C21.9848 3.68372 21.2857 3.89375 20.6226 4.19156C20.3313 4.33719 20.0284 4.48282 19.7211 4.67215L17.1521 5.93188C16.753 5.85256 16.3484 5.80387 15.9419 5.78625C14.5714 5.74556 13.2312 5.37327 12.036 4.70128L12.2326 4.43331C12.3256 4.30388 12.3634 4.14284 12.3377 3.98556C12.312 3.82828 12.225 3.68762 12.0957 3.59446L7.89127 0.56818C7.7616 0.475139 7.60034 0.437301 7.44282 0.462962C7.28531 0.488624 7.14439 0.575689 7.05096 0.705076L0.11295 10.3417C0.0199865 10.4711 -0.0178116 10.6322 0.00785531 10.7894C0.0335222 10.9467 0.120556 11.0874 0.249846 11.1805L4.44702 14.2054C4.51095 14.2516 4.58339 14.2849 4.66019 14.3031C4.73699 14.3214 4.81663 14.3243 4.89455 14.3117C4.97248 14.2991 5.04715 14.2713 5.1143 14.2298C5.18145 14.1883 5.23976 14.134 5.28587 14.0699L5.48685 13.7903C6.4999 14.7121 7.27657 15.8639 7.75146 17.1486C7.79078 17.2535 7.83447 17.3569 7.87962 17.4603L7.21844 18.3778C7.00808 18.6659 6.8774 19.0043 6.83958 19.359C6.80177 19.7137 6.85815 20.0721 7.00304 20.3981C7.14793 20.7241 7.3762 21.0061 7.66485 21.2157C7.9535 21.4253 8.2923 21.555 8.64711 21.5919C8.64788 21.6958 8.65665 21.7995 8.67332 21.9021C8.75074 22.3801 8.9949 22.8152 9.36251 23.1303C9.73013 23.4454 10.1974 23.6201 10.6816 23.6235C10.738 23.6235 10.7944 23.6206 10.8506 23.6148C10.9622 24.0541 11.2163 24.4439 11.5731 24.7235C11.9299 25.0031 12.3692 25.1565 12.8224 25.16C13.0371 25.1588 13.2503 25.1244 13.4545 25.058C13.6182 25.4105 13.8787 25.7092 14.2056 25.9194C14.5325 26.1295 14.9125 26.2424 15.3011 26.2449C15.4144 26.2449 15.5275 26.2346 15.639 26.2143C15.9046 26.1742 16.1594 26.0808 16.3881 25.94C16.6168 25.7991 16.8147 25.6135 16.9701 25.3944L17.3735 24.8352L19.3265 25.958C19.6643 26.1484 20.0455 26.2487 20.4333 26.2493C20.7369 26.2481 21.037 26.1848 21.3153 26.0633C21.5935 25.9419 21.844 25.7648 22.0513 25.543C22.281 25.2824 22.4431 24.9693 22.5231 24.6313C22.9267 24.7593 23.3547 24.7908 23.7727 24.723C24.1138 24.6682 24.4408 24.5464 24.7347 24.3647C25.0286 24.183 25.2837 23.9449 25.4853 23.6643C25.7528 23.2896 25.9188 22.8521 25.9674 22.3944C25.9895 22.1933 25.986 21.9902 25.9572 21.79C26.3175 21.7749 26.6706 21.6841 26.9936 21.5235C27.3165 21.3629 27.602 21.1361 27.8315 20.8579C28.2244 20.3863 28.4385 19.7912 28.4359 19.1773C28.5864 19.1773 28.7367 19.1671 28.8859 19.1467C29.1622 19.1027 29.4269 19.0038 29.6645 18.856C29.9021 18.7082 30.1078 18.5144 30.2694 18.286C30.5463 17.8955 30.7192 17.4409 30.7718 16.9651C30.7718 16.9287 30.7718 16.8923 30.7718 16.8574C30.9 16.684 31.0252 16.502 31.1447 16.32C31.8567 15.1685 32.8346 14.2046 33.9962 13.5092L34.1243 13.8005C34.1898 13.9459 34.3104 14.0593 34.4595 14.1158C34.6086 14.1724 34.7741 14.1674 34.9195 14.102L39.641 11.983C39.7139 11.9508 39.7798 11.9045 39.8347 11.8467C39.8896 11.7889 39.9324 11.7207 39.9608 11.6462C39.9891 11.5716 40.0023 11.4922 39.9997 11.4125C39.997 11.3328 39.9785 11.2545 39.9453 11.182ZM7.74126 2.21384L10.5884 4.26292L4.77033 12.3354L4.62469 12.5495L1.76881 10.5004L7.74126 2.21384ZM8.38642 19.2181L8.59177 18.937L9.33887 17.9176C9.38896 17.8484 9.4532 17.7907 9.52732 17.7483C9.60144 17.7059 9.68374 17.6798 9.76874 17.6716C9.85375 17.6635 9.93951 17.6736 10.0203 17.7012C10.1011 17.7288 10.1751 17.7732 10.2374 17.8316C10.3019 17.8958 10.3513 17.9736 10.3821 18.0592C10.4128 18.1448 10.4241 18.2363 10.4151 18.3268C10.4054 18.4283 10.3698 18.5256 10.3117 18.6093L9.34324 19.9535C9.24675 20.0747 9.10744 20.1541 8.95405 20.1755C8.80067 20.197 8.64492 20.1587 8.51895 20.0686C8.39051 19.972 8.30482 19.829 8.28007 19.6702C8.25532 19.5114 8.29348 19.3492 8.38642 19.2181ZM10.3394 22.0769C10.2089 21.9845 10.1204 21.8443 10.0931 21.6868C10.0658 21.5293 10.102 21.3674 10.1937 21.2366L11.4753 19.4569H11.4841L12.3142 18.3093C12.3592 18.2444 12.4169 18.1892 12.4837 18.1469C12.5505 18.1046 12.625 18.0762 12.703 18.0632C12.7813 18.0487 12.8618 18.0503 12.9395 18.0681C13.0171 18.0859 13.0903 18.1194 13.1545 18.1666C13.229 18.2208 13.2901 18.2914 13.3331 18.373C13.376 18.4545 13.3996 18.5449 13.4021 18.637C13.4021 18.6603 13.4021 18.6851 13.4021 18.7098C13.3925 18.7917 13.3657 18.8706 13.3234 18.9414C13.3118 18.9574 13.3001 18.9705 13.2885 18.9851L11.1724 21.9225C11.1622 21.9371 11.1535 21.9516 11.1447 21.9662C11.0488 22.0846 10.9114 22.162 10.7603 22.1826C10.6093 22.2032 10.4562 22.1653 10.3321 22.0769H10.3394ZM12.4918 23.6133C12.424 23.5697 12.3659 23.5126 12.3213 23.4454C12.2766 23.3782 12.2465 23.3025 12.2326 23.223C12.2077 23.0833 12.2346 22.9394 12.3083 22.8182C12.32 22.8036 12.3331 22.789 12.3448 22.773L14.4608 19.8429C14.4792 19.817 14.4997 19.7926 14.522 19.77C14.5451 19.7491 14.57 19.7301 14.5963 19.7132C14.6093 19.7041 14.6229 19.6959 14.637 19.6885C14.6571 19.6764 14.6781 19.6657 14.6997 19.6564L14.7215 19.6477C14.757 19.6344 14.7935 19.6242 14.8307 19.6171C14.8682 19.6107 14.9063 19.6078 14.9443 19.6084H14.9633C15.0448 19.6124 15.1246 19.6332 15.1978 19.6693C15.271 19.7054 15.336 19.7561 15.3889 19.8184C15.4417 19.8806 15.4812 19.953 15.5049 20.0311C15.5287 20.1092 15.5361 20.1914 15.5269 20.2725C15.5158 20.378 15.4766 20.4786 15.4133 20.5637L14.6647 21.5992C14.637 21.6327 14.6094 21.6647 14.5832 21.6997L13.6409 23.0104C13.6024 23.0632 13.5669 23.1182 13.5346 23.175L13.3132 23.4808C13.2191 23.6059 13.0802 23.6896 12.9256 23.7143C12.7711 23.739 12.613 23.7028 12.4846 23.6133H12.4918ZM15.4206 24.8017C15.303 24.8214 15.1822 24.8058 15.0735 24.7571C14.9647 24.7083 14.8728 24.6285 14.8093 24.5276C14.7458 24.4268 14.7136 24.3094 14.7166 24.1902C14.7196 24.0711 14.7578 23.9555 14.8264 23.858L15.7686 22.5473C15.8621 22.418 16.002 22.3298 16.1589 22.3012C16.1964 22.2946 16.2345 22.2917 16.2725 22.2924H16.3016C16.3275 22.2939 16.3533 22.2968 16.3788 22.3012L16.4094 22.3084C16.4808 22.3277 16.5483 22.3592 16.6089 22.4016C16.6948 22.4639 16.7627 22.5478 16.8059 22.6446C16.8491 22.7415 16.8661 22.8481 16.855 22.9536C16.8432 23.0587 16.8046 23.159 16.7429 23.2449L16.2812 23.89L15.8094 24.5468C15.7643 24.6141 15.7059 24.6715 15.6377 24.7153C15.5696 24.7591 15.4932 24.7885 15.4133 24.8017H15.4206ZM29.3213 16.8209C29.3008 17.0467 29.2193 17.2627 29.0854 17.4457C28.976 17.5918 28.8151 17.6907 28.6354 17.7224C28.5461 17.7377 28.4546 17.7348 28.3665 17.7138C28.2784 17.6928 28.1955 17.6541 28.1228 17.6001L27.4208 17.0962C27.3917 17.0654 27.36 17.0372 27.3261 17.0117L25.7591 15.8845C25.6042 15.7858 25.4175 15.7501 25.2371 15.7846C25.0567 15.8192 24.8964 15.9214 24.7889 16.0704C24.6815 16.2193 24.6351 16.4037 24.6593 16.5858C24.6834 16.7678 24.7763 16.9338 24.9188 17.0496L26.4844 18.1753L26.4771 18.187C26.6116 18.2815 26.7248 18.4032 26.8093 18.5442C26.8938 18.6851 26.9479 18.8423 26.9679 19.0055C26.9891 19.1694 26.9764 19.336 26.9306 19.4948C26.8847 19.6537 26.8067 19.8014 26.7014 19.9288C26.4929 20.1609 26.2056 20.3073 25.8952 20.3393C25.5849 20.3713 25.2737 20.2868 25.0222 20.1021L24.9785 20.07C24.9455 20.0325 24.9084 19.9988 24.8678 19.9696L22.9324 18.5758C22.7775 18.4771 22.5907 18.4414 22.4103 18.4759C22.23 18.5105 22.0696 18.6127 21.9622 18.7617C21.8548 18.9106 21.8084 19.095 21.8325 19.2771C21.8566 19.4592 21.9495 19.6251 22.092 19.7409L24.029 21.139L24.0406 21.1506C24.2071 21.2774 24.3386 21.4444 24.4227 21.636C24.5068 21.8276 24.5407 22.0375 24.5212 22.2458C24.5008 22.4545 24.4254 22.6539 24.3028 22.824C24.1803 22.9941 24.0148 23.1286 23.8233 23.214C23.6319 23.2994 23.4212 23.3325 23.2128 23.3101C23.0044 23.2876 22.8056 23.2103 22.6367 23.0861L21.6945 22.4002L19.8609 21.0778C19.7849 21.0161 19.6971 20.9705 19.6028 20.9439C19.5085 20.9172 19.4098 20.9101 19.3127 20.923C19.2156 20.9359 19.1222 20.9685 19.0381 21.0187C18.954 21.069 18.8811 21.1359 18.8238 21.2154C18.7665 21.2948 18.726 21.3851 18.7049 21.4808C18.6837 21.5764 18.6823 21.6754 18.7007 21.7716C18.7191 21.8678 18.757 21.9592 18.812 22.0402C18.867 22.1213 18.938 22.1903 19.0206 22.2429L20.8542 23.5638C20.9314 23.6204 20.9959 23.6925 21.0435 23.7755C21.0912 23.8586 21.1209 23.9506 21.1309 24.0459C21.1459 24.1429 21.1389 24.2422 21.1104 24.3362C21.082 24.4302 21.0327 24.5166 20.9663 24.5891C20.8503 24.7096 20.6964 24.7866 20.5304 24.807C20.3643 24.8274 20.1964 24.7901 20.0546 24.7012L18.1701 23.6162C18.1975 23.5447 18.2194 23.4712 18.2357 23.3963C18.2611 23.2966 18.2805 23.1954 18.2939 23.0934C18.3412 22.6213 18.2229 22.1475 17.9594 21.753C17.6958 21.3585 17.3034 21.0678 16.8492 20.9307C16.9164 20.7566 16.9609 20.5745 16.9817 20.389C17.0162 20.0321 16.9569 19.6725 16.8098 19.3456C16.6626 19.0187 16.4328 18.7358 16.1429 18.5249C15.7502 18.243 15.2702 18.1099 14.7885 18.1491C14.6647 17.6533 14.3593 17.2219 13.9326 16.9406C13.5059 16.6593 12.9891 16.5485 12.4846 16.6302C12.125 16.6837 11.787 16.8348 11.5074 17.0671L11.4913 17.0802C11.3605 16.8918 11.1979 16.7277 11.0107 16.5952C10.7947 16.4374 10.5493 16.3242 10.289 16.2625C10.0287 16.2007 9.75862 16.1915 9.4947 16.2355C9.31242 16.2673 9.13515 16.3232 8.9675 16.4015C8.38636 14.9607 7.47792 13.6748 6.31405 12.6456L11.1782 5.89256C12.1593 6.47307 13.2374 6.87124 14.3603 7.06783L13.7458 13.1218C13.7226 13.3378 13.7424 13.5562 13.8041 13.7645C13.8657 13.9728 13.968 14.1668 14.105 14.3354C14.242 14.5039 14.4111 14.6437 14.6024 14.7466C14.7936 14.8495 15.0034 14.9135 15.2196 14.935C15.8443 15.0033 16.475 14.8804 17.0284 14.5825C17.2188 14.4828 17.3988 14.3642 17.5657 14.2287C17.8937 13.9683 18.1658 13.6445 18.366 13.2767C18.5662 12.9089 18.6902 12.5046 18.7308 12.0878L18.8939 10.5092C19.6157 10.4765 20.3221 10.2887 20.9648 9.95867C21.0551 9.91352 21.144 9.864 21.2313 9.81303L28.8203 15.6719C28.8713 15.7127 28.9135 15.7433 28.9339 15.7636L28.9441 15.7738C28.9543 15.784 28.9747 15.7942 28.9849 15.8146L29.0053 15.835C29.0155 15.835 29.0155 15.8452 29.0257 15.8554L29.0461 15.8758L29.0767 15.9064L29.1072 15.9471C29.1174 15.9573 29.1276 15.9792 29.1378 15.9894C29.1618 16.0247 29.1823 16.0622 29.199 16.1015L29.2092 16.1219C29.2208 16.1423 29.2208 16.1525 29.231 16.1729C29.2412 16.1933 29.2412 16.2136 29.2514 16.234C29.2616 16.2544 29.2616 16.2763 29.2718 16.2967L29.2922 16.3578C29.3064 16.4054 29.3166 16.4542 29.3228 16.5035V16.5239C29.332 16.5469 29.3355 16.5719 29.333 16.5967V16.6578C29.3384 16.7129 29.332 16.7686 29.314 16.8209H29.3213ZM33.4078 12.1912C32.1652 12.9107 31.0942 13.8922 30.2694 15.0675V15.0588C30.249 15.0282 30.2184 14.9976 30.198 14.967C30.1777 14.9364 30.1267 14.8855 30.0844 14.8447L29.9825 14.7413C29.9049 14.6649 29.8227 14.5934 29.7364 14.5272L21.2896 8.01154L20.8527 8.33921C20.1302 8.88838 19.2256 9.14149 18.323 9.047L17.6051 8.97418L17.3138 11.9349C17.2637 12.3954 17.0358 12.8181 16.6788 13.1131C16.319 13.4037 15.8587 13.5399 15.3987 13.4917C15.3703 13.4898 15.3425 13.4821 15.3172 13.4691C15.2918 13.4561 15.2693 13.4381 15.2511 13.4162C15.2328 13.3943 15.2192 13.3689 15.2111 13.3416C15.2029 13.3143 15.2003 13.2856 15.2036 13.2573L15.7162 8.22708L19.3934 6.43432H19.3629L20.3823 5.92897L20.4449 5.89839C20.6967 5.7482 20.9563 5.61159 21.2226 5.48916C21.7692 5.23539 22.3486 5.05941 22.944 4.96633C23.6866 4.844 24.4442 4.844 25.1868 4.96633C26.7937 5.24666 28.4451 5.12356 29.9927 4.60807L30.6641 6.09936L33.4078 12.1912ZM35.0972 12.4476L30.9073 3.13571L34.1112 1.70267L38.3011 11.0131L35.0972 12.4476Z" fill="#111827"/>
</svg>
