<svg width="72" height="72" viewBox="0 0 72 72" fill="none" xmlns="http://www.w3.org/2000/svg">
<g id="Frame">
<g id="About">
<path id="Vector" d="M60.75 20.9741C60.75 15.604 56.3971 11.25 51.0271 11.25H20.9729C15.6028 11.25 11.25 15.604 11.25 20.9741V51.0259C11.25 56.396 15.6028 60.75 20.9729 60.75H51.0271C56.3971 60.75 60.75 56.396 60.75 51.0259V20.9741ZM56.25 51.0259C56.25 53.9109 53.912 56.25 51.0271 56.25H20.9729C18.088 56.25 15.75 53.9109 15.75 51.0259V20.9741C15.75 18.0891 18.088 15.75 20.9729 15.75H51.0271C53.912 15.75 56.25 18.0891 56.25 20.9741V51.0259ZM42.8906 49.5C42.8906 50.7425 41.8842 51.75 40.6406 51.75H31.6406C30.3971 51.75 29.3906 50.7425 29.3906 49.5C29.3906 48.2575 30.3971 47.25 31.6406 47.25H33.75V33.75H31.6406C30.3971 33.75 29.3906 32.7425 29.3906 31.5C29.3906 30.2575 30.3971 29.25 31.6406 29.25H38.25V47.25H40.6406C41.8842 47.25 42.8906 48.2575 42.8906 49.5ZM32.625 23.7656C32.625 21.9013 34.1368 20.3906 36 20.3906C37.8632 20.3906 39.375 21.9013 39.375 23.7656C39.375 25.63 37.8632 27.1406 36 27.1406C34.1368 27.1406 32.625 25.63 32.625 23.7656Z" fill="black"/>
</g>
</g>
</svg>
