<svg width="28" height="28" viewBox="0 0 28 28" fill="none" xmlns="http://www.w3.org/2000/svg">
<path d="M8 25.5H20V27.5H8V25.5Z" stroke="#111827" stroke-linejoin="round"/>
<path d="M12.5 25.5V21.5C12.5 20.9477 12.9477 20.5 13.5 20.5H14.5C15.0523 20.5 15.5 20.9477 15.5 21.5V25.5" stroke="#111827" stroke-linejoin="round"/>
<path d="M15.5 4C15.5 4.19698 15.4612 4.39211 15.3858 4.5741C15.3104 4.75608 15.1999 4.92138 15.0606 5.06067C14.9214 5.19996 14.756 5.31048 14.574 5.38586C14.392 5.46125 14.197 5.5 14 5.5C13.803 5.5 13.6079 5.46125 13.426 5.38586C13.244 5.31048 13.0786 5.19996 12.9393 5.06067C12.8 4.92138 12.6896 4.75608 12.6142 4.5741C12.5388 4.39211 12.5 4.19698 12.5 4C12.5 3.80302 12.5388 3.60801 12.6142 3.42603C12.6896 3.24404 12.8 3.07862 12.9393 2.93933C13.0786 2.80004 13.244 2.68964 13.426 2.61426C13.6079 2.53888 13.803 2.5 14 2.5C14.197 2.5 14.392 2.53888 14.574 2.61426C14.756 2.68964 14.9214 2.80004 15.0606 2.93933C15.1999 3.07862 15.3104 3.24404 15.3858 3.42603C15.4612 3.60801 15.5 3.80302 15.5 4Z" stroke="#111827" stroke-linejoin="round"/>
<path d="M14 14.75V20.2429" stroke="#111827" stroke-linecap="round" stroke-linejoin="round"/>
<path d="M14 1.00684V2.49304" stroke="#111827" stroke-linecap="round" stroke-linejoin="round"/>
<path d="M12.5 4H4M4 4L0.5 15V15.75C0.5 16.612 0.84241 17.4386 1.4519 18.0481C2.0614 18.6576 2.88805 19 3.75 19C4.1768 19 4.59941 18.916 4.99372 18.7527C5.38803 18.5894 5.74631 18.3499 6.0481 18.0481C6.34989 17.7463 6.58928 17.3881 6.75261 16.9938C6.91594 16.5995 7 16.1768 7 15.75V15L4 4Z" stroke="#111827" stroke-linejoin="round"/>
<path d="M0.5 15.5H7" stroke="#111827"/>
<path d="M15.5 4H24M24 4L27.5 15V15.75C27.5 16.612 27.1576 17.4386 26.5481 18.0481C25.9386 18.6576 25.112 19 24.25 19C23.388 19 22.5614 18.6576 21.9519 18.0481C21.3424 17.4386 21 16.612 21 15.75V15L24 4Z" stroke="#111827" stroke-linejoin="round"/>
<path d="M21 15.5H27.5" stroke="#111827"/>
<path d="M14 5.75732V11.2502" stroke="#111827" stroke-linecap="round" stroke-linejoin="round"/>
<path d="M14.5 13C14.5 13.1326 14.4473 13.2597 14.3536 13.3535C14.2598 13.4473 14.1326 13.5 14 13.5C13.8674 13.5 13.7402 13.4473 13.6464 13.3535C13.5527 13.2597 13.5 13.1326 13.5 13C13.5 12.8674 13.5527 12.7403 13.6464 12.6465C13.7402 12.5527 13.8674 12.5 14 12.5C14.1326 12.5 14.2598 12.5527 14.3536 12.6465C14.4473 12.7403 14.5 12.8674 14.5 13Z" fill="#111827"/>
</svg>
