<svg width="54" height="54" viewBox="0 0 54 54" fill="none" xmlns="http://www.w3.org/2000/svg">
<g id="svg2">
<g id="layer1">
<path id="rect11359" d="M16.875 46.4062H37.125V49.7812H16.875V46.4062Z" stroke="#111827" stroke-linejoin="round"/>
<path id="path11361" d="M24.4688 46.4062V39.6562C24.4688 38.7242 25.2243 37.9688 26.1562 37.9688H27.8438C28.7757 37.9688 29.5312 38.7242 29.5312 39.6562V46.4062" stroke="#111827" stroke-linejoin="round"/>
<path id="circle11363" d="M29.5312 10.125C29.5312 10.4574 29.4657 10.7867 29.3385 11.0938C29.2113 11.4009 29.0249 11.6798 28.7898 11.9149C28.5548 12.1499 28.2757 12.3364 27.9686 12.4636C27.6615 12.5909 27.3324 12.6563 27 12.6562C26.6676 12.6563 26.3384 12.5909 26.0313 12.4636C25.7242 12.3364 25.4452 12.1499 25.2101 11.9149C24.9751 11.6798 24.7886 11.4009 24.6614 11.0938C24.5342 10.7867 24.4687 10.4574 24.4688 10.125C24.4687 9.79259 24.5342 9.46352 24.6614 9.15642C24.7886 8.84931 24.9751 8.57017 25.2101 8.33512C25.4452 8.10007 25.7242 7.91377 26.0313 7.78656C26.3384 7.65935 26.6676 7.59375 27 7.59375C27.3324 7.59375 27.6615 7.65935 27.9686 7.78656C28.2757 7.91377 28.5548 8.10007 28.7898 8.33512C29.0249 8.57017 29.2113 8.84931 29.3385 9.15642C29.4657 9.46352 29.5312 9.79259 29.5312 10.125Z" stroke="#111827" stroke-linejoin="round"/>
<path id="path11365" d="M26.9999 28.2656V37.5349" stroke="#111827" stroke-linecap="round" stroke-linejoin="round"/>
<path id="path11367" d="M27 5.07422V7.58219" stroke="#111827" stroke-linecap="round" stroke-linejoin="round"/>
<path id="path11369" d="M24.4688 10.125H10.125M10.125 10.125L4.21875 28.6875V29.9531C4.21875 31.4077 4.79657 32.8026 5.82509 33.8312C6.85361 34.8597 8.24858 35.4375 9.70312 35.4375C10.4233 35.4375 11.1365 35.2958 11.8019 35.0202C12.4673 34.7445 13.0719 34.3404 13.5812 33.8312C14.0904 33.3219 14.4944 32.7174 14.77 32.052C15.0456 31.3866 15.1875 30.6733 15.1875 29.9531V28.6875L10.125 10.125Z" stroke="#111827" stroke-linejoin="round"/>
<path id="path11371" d="M4.21875 29.5312H15.1875" stroke="#111827"/>
<path id="path11373" d="M29.5312 10.125H43.875M43.875 10.125L49.7812 28.6875V29.9531C49.7812 31.4077 49.2034 32.8026 48.1749 33.8312C47.1464 34.8597 45.7514 35.4375 44.2969 35.4375C42.8423 35.4375 41.4474 34.8597 40.4188 33.8312C39.3903 32.8026 38.8125 31.4077 38.8125 29.9531V28.6875L43.875 10.125Z" stroke="#111827" stroke-linejoin="round"/>
<path id="path11375" d="M38.8125 29.5312H49.7812" stroke="#111827"/>
<path id="path14327" d="M26.9999 13.0908V22.3601" stroke="#111827" stroke-linecap="round" stroke-linejoin="round"/>
<path id="path12564-3" d="M27.8437 25.3125C27.8437 25.5363 27.7548 25.7508 27.5966 25.9091C27.4383 26.0673 27.2237 26.1562 26.9999 26.1562C26.7762 26.1562 26.5616 26.0673 26.4033 25.9091C26.2451 25.7508 26.1562 25.5363 26.1562 25.3125C26.1562 25.0887 26.2451 24.8742 26.4033 24.7159C26.5616 24.5577 26.7762 24.4688 26.9999 24.4688C27.2237 24.4688 27.4383 24.5577 27.5966 24.7159C27.7548 24.8742 27.8437 25.0887 27.8437 25.3125Z" fill="#111827"/>
</g>
</g>
</svg>
