<svg width="30" height="30" viewBox="0 0 30 30" fill="none" xmlns="http://www.w3.org/2000/svg">
<g clip-path="url(#clip0_930_5381)">
<path d="M21.25 24.9999C20.8875 24.9999 20.55 24.9249 20.3 24.8124C19.4125 24.3499 18.7875 23.7124 18.1625 21.8374C17.525 19.8874 16.325 18.9749 15.175 18.0874C14.1875 17.3249 13.1625 16.5374 12.275 14.9249C11.6125 13.7249 11.25 12.4124 11.25 11.2499C11.25 7.7499 14 4.9999 17.5 4.9999C21 4.9999 23.75 7.7499 23.75 11.2499H26.25C26.25 6.3374 22.4125 2.4999 17.5 2.4999C12.5875 2.4999 8.75 6.3374 8.75 11.2499C8.75 12.8249 9.225 14.5624 10.0875 16.1249C11.225 18.1874 12.5625 19.2249 13.65 20.0624C14.6625 20.8374 15.3875 21.3999 15.7875 22.6249C16.5375 24.8999 17.5 26.1749 19.2 27.0624C19.8375 27.3499 20.5375 27.4999 21.25 27.4999C24.0125 27.4999 26.25 25.2624 26.25 22.4999H23.75C23.75 23.8749 22.625 24.9999 21.25 24.9999ZM9.55 3.2999L7.775 1.5249C5.2875 4.0124 3.75 7.4499 3.75 11.2499C3.75 15.0499 5.2875 18.4874 7.775 20.9749L9.5375 19.2124C7.5125 17.1749 6.25 14.3624 6.25 11.2499C6.25 8.1374 7.5125 5.3249 9.55 3.2999ZM14.375 11.2499C14.375 12.9749 15.775 14.3749 17.5 14.3749C19.225 14.3749 20.625 12.9749 20.625 11.2499C20.625 9.5249 19.225 8.1249 17.5 8.1249C15.775 8.1249 14.375 9.5249 14.375 11.2499Z" fill="#333333"/>
</g>
<defs>
<clipPath id="clip0_930_5381">
<rect width="30" height="30" fill="white"/>
</clipPath>
</defs>
</svg>
