<svg width="32" height="32" viewBox="0 0 32 32" fill="none" xmlns="http://www.w3.org/2000/svg">
<g clip-path="url(#clip0_787_9434)">
<path d="M16 27C15.77 27 15.539 26.921 15.352 26.762C15.11 26.556 9.41 21.662 7.032 16.324C6.807 15.82 7.034 15.228 7.539 15.004C8.042 14.78 8.634 15.006 8.859 15.511C10.598 19.416 14.436 23.21 15.983 24.641C18.713 21.991 24 16.069 24 12.23C24 7.692 20.411 4 16 4C11.589 4 8 7.692 8 12.23C8 12.782 7.552 13.23 7 13.23C6.448 13.23 6 12.782 6 12.23C6 6.589 10.486 2 16 2C21.514 2 26 6.589 26 12.23C26 18.142 17.056 26.389 16.675 26.738C16.484 26.912 16.242 27 16 27Z" fill="#111827"/>
<path d="M16 16C13.794 16 12 14.206 12 12C12 9.794 13.794 8 16 8C18.206 8 20 9.794 20 12C20 14.206 18.206 16 16 16ZM16 10C14.897 10 14 10.897 14 12C14 13.103 14.897 14 16 14C17.103 14 18 13.103 18 12C18 10.897 17.103 10 16 10Z" fill="#111827"/>
<path d="M29 30.0002H3C2.644 30.0002 2.314 29.8112 2.135 29.5022C1.956 29.1932 1.955 28.8142 2.132 28.5042L6.132 21.5042C6.406 21.0252 7.017 20.8572 7.496 21.1322C7.975 21.4062 8.142 22.0172 7.868 22.4962L4.723 28.0002H27.276L24.131 22.4962C23.857 22.0172 24.024 21.4062 24.503 21.1322C24.982 20.8562 25.593 21.0252 25.867 21.5042L29.867 28.5042C30.044 28.8142 30.043 29.1932 29.864 29.5022C29.686 29.8112 29.356 30.0002 29 30.0002Z" fill="#111827"/>
</g>
<defs>
<clipPath id="clip0_787_9434">
<rect width="32" height="32" fill="white"/>
</clipPath>
</defs>
</svg>
