<svg width="24" height="30" viewBox="0 0 24 30" fill="none" xmlns="http://www.w3.org/2000/svg">
<path fill-rule="evenodd" clip-rule="evenodd" d="M19.8572 14.4985C19.1261 16.3217 17.7382 17.8186 15.9809 18.7062C15.1965 19.1023 14.3384 19.3771 13.4323 19.5052C13.0501 19.5593 12.6594 19.5872 12.2621 19.5872C11.8647 19.5872 11.474 19.5593 11.0918 19.5052C10.1857 19.3771 9.32768 19.1023 8.54325 18.7062C6.7859 17.8186 5.398 16.3217 4.66691 14.4985C4.30026 13.5841 4.0988 12.5877 4.0988 11.5449C4.0988 10.6566 3.36784 9.93644 2.46615 9.93644C2.30879 9.93644 2.15662 9.95837 2.01263 9.9993C1.33159 10.1929 0.833496 10.8116 0.833496 11.5449C0.833496 12.7709 1.03238 13.9511 1.4001 15.0559C2.17307 17.3783 3.6921 19.3678 5.67803 20.7491C5.6958 20.7615 5.71361 20.7738 5.73145 20.786C6.59006 21.3761 7.53475 21.8529 8.54325 22.1946C9.21269 22.4215 9.91025 22.5888 10.6294 22.6901V26.0211H5.73145C5.36825 26.0211 5.03275 26.1379 4.76156 26.3356C4.3595 26.6285 4.0988 27.0991 4.0988 27.6296C4.0988 28.5179 4.82977 29.238 5.73145 29.238H18.7927C19.6944 29.238 20.4253 28.5179 20.4253 27.6296C20.4253 27.0991 20.1646 26.6285 19.7626 26.3356C19.4914 26.1379 19.1559 26.0211 18.7927 26.0211H13.8947V22.6901C14.6139 22.5888 15.3114 22.4215 15.9809 22.1946C16.9894 21.8529 17.9341 21.3761 18.7927 20.786C18.8105 20.7738 18.8283 20.7615 18.8461 20.7491C20.832 19.3678 22.3511 17.3783 23.124 15.0559C23.4917 13.9511 23.6906 12.7709 23.6906 11.5449C23.6906 10.8116 23.1925 10.1929 22.5115 9.9993C22.3675 9.95837 22.2153 9.93644 22.058 9.93644C21.1563 9.93644 20.4253 10.6566 20.4253 11.5449C20.4253 12.5877 20.2239 13.5841 19.8572 14.4985ZM17.16 11.5449C17.16 14.2099 14.9671 16.3703 12.2621 16.3703C9.557 16.3703 7.36411 14.2099 7.36411 11.5449V5.11104C7.36411 2.44605 9.557 0.285645 12.2621 0.285645C14.9671 0.285645 17.16 2.44605 17.16 5.11104V11.5449Z" fill="white"/>
</svg>
