<svg width="72" height="72" viewBox="0 0 72 72" fill="none" xmlns="http://www.w3.org/2000/svg">
<g id="Frame" clip-path="url(#clip0_1251_15386)">
<g id="9-Money">
<path id="Vector" d="M67.5 13.5H4.5C3.30653 13.5 2.16193 13.9741 1.31802 14.818C0.474106 15.6619 0 16.8065 0 18L0 54C0 55.1935 0.474106 56.3381 1.31802 57.182C2.16193 58.0259 3.30653 58.5 4.5 58.5H67.5C68.6935 58.5 69.8381 58.0259 70.682 57.182C71.5259 56.3381 72 55.1935 72 54V18C72 16.8065 71.5259 15.6619 70.682 14.818C69.8381 13.9741 68.6935 13.5 67.5 13.5ZM69 54C69 54.3978 68.842 54.7794 68.5607 55.0607C68.2794 55.342 67.8978 55.5 67.5 55.5H4.5C4.10218 55.5 3.72064 55.342 3.43934 55.0607C3.15804 54.7794 3 54.3978 3 54V18C3 17.6022 3.15804 17.2206 3.43934 16.9393C3.72064 16.658 4.10218 16.5 4.5 16.5H67.5C67.8978 16.5 68.2794 16.658 68.5607 16.9393C68.842 17.2206 69 17.6022 69 18V54Z" fill="black"/>
<path id="Vector_2" d="M63 28.5C61.4087 28.5 59.8826 27.8679 58.7574 26.7426C57.6321 25.6174 57 24.0913 57 22.5C57 22.1022 56.842 21.7206 56.5607 21.4393C56.2794 21.158 55.8978 21 55.5 21H16.5C16.1022 21 15.7206 21.158 15.4393 21.4393C15.158 21.7206 15 22.1022 15 22.5C15 24.0913 14.3679 25.6174 13.2426 26.7426C12.1174 27.8679 10.5913 28.5 9 28.5C8.60218 28.5 8.22064 28.658 7.93934 28.9393C7.65804 29.2206 7.5 29.6022 7.5 30V42C7.5 42.3978 7.65804 42.7794 7.93934 43.0607C8.22064 43.342 8.60218 43.5 9 43.5C10.5913 43.5 12.1174 44.1321 13.2426 45.2574C14.3679 46.3826 15 47.9087 15 49.5C15 49.8978 15.158 50.2794 15.4393 50.5607C15.7206 50.842 16.1022 51 16.5 51H55.5C55.8978 51 56.2794 50.842 56.5607 50.5607C56.842 50.2794 57 49.8978 57 49.5C57 47.9087 57.6321 46.3826 58.7574 45.2574C59.8826 44.1321 61.4087 43.5 63 43.5C63.3978 43.5 63.7794 43.342 64.0607 43.0607C64.342 42.7794 64.5 42.3978 64.5 42V30C64.5 29.6022 64.342 29.2206 64.0607 28.9393C63.7794 28.658 63.3978 28.5 63 28.5ZM17.88 48C17.5693 46.1555 16.6916 44.4536 15.369 43.131C14.0464 41.8084 12.3445 40.9307 10.5 40.62V31.38C12.3445 31.0693 14.0464 30.1916 15.369 28.869C16.6916 27.5464 17.5693 25.8445 17.88 24H27C25.1371 25.3972 23.625 27.209 22.5836 29.2918C21.5422 31.3746 21 33.6713 21 36C21 38.3287 21.5422 40.6254 22.5836 42.7082C23.625 44.791 25.1371 46.6028 27 48H17.88ZM36 48C33.6266 48 31.3066 47.2962 29.3332 45.9776C27.3598 44.6591 25.8217 42.7849 24.9134 40.5922C24.0052 38.3995 23.7676 35.9867 24.2306 33.6589C24.6936 31.3311 25.8365 29.1929 27.5147 27.5147C29.1929 25.8365 31.3311 24.6936 33.6589 24.2306C35.9867 23.7676 38.3995 24.0052 40.5922 24.9134C42.7849 25.8217 44.6591 27.3598 45.9776 29.3332C47.2962 31.3065 48 33.6266 48 36C48 39.1826 46.7357 42.2348 44.4853 44.4853C42.2348 46.7357 39.1826 48 36 48ZM61.5 40.62C59.6555 40.9307 57.9536 41.8084 56.631 43.131C55.3084 44.4536 54.4307 46.1555 54.12 48H45C46.8629 46.6028 48.375 44.791 49.4164 42.7082C50.4578 40.6254 51 38.3287 51 36C51 33.6713 50.4578 31.3746 49.4164 29.2918C48.375 27.209 46.8629 25.3972 45 24H54.165C54.473 25.8382 55.344 27.5355 56.6579 28.8574C57.9718 30.1794 59.6637 31.0608 61.5 31.38V40.62Z" fill="black"/>
<path id="Vector_3" d="M10.5 21H7.5V24H10.5V21Z" fill="black"/>
<path id="Vector_4" d="M64.5 21H61.5V24H64.5V21Z" fill="black"/>
<path id="Vector_5" d="M64.5 48H61.5V51H64.5V48Z" fill="black"/>
<path id="Vector_6" d="M10.5 48H7.5V51H10.5V48Z" fill="black"/>
</g>
</g>
<defs>
<clipPath id="clip0_1251_15386">
<rect width="72" height="72" fill="white"/>
</clipPath>
</defs>
</svg>
