<svg width="64" height="50" viewBox="0 0 64 50" fill="none" xmlns="http://www.w3.org/2000/svg">
<g id="Group">
<g id="Vector">
<mask id="path-1-inside-1_1466_15645" fill="white">
<path d="M61.0017 16.9532L57.4588 15.1817L58.5534 13.5398C59.087 12.7392 59.3691 11.8075 59.3691 10.8454V5.63762C60.6872 4.66863 61.528 3.10963 61.528 1.35831C61.528 1.06025 61.2864 0.818586 60.9883 0.818586H54.5117C51.8332 0.818586 49.6542 2.99762 49.6542 5.67606V10.8454C49.6542 11.8075 49.9363 12.7392 50.47 13.5398L51.5646 15.1817L48.0216 16.9532C47.0662 17.4309 46.3214 18.1878 45.8606 19.0976L44.4931 18.4138C45.753 16.326 46.4159 13.9484 46.4159 11.4991V11.0733C46.4159 8.99002 44.7211 7.29522 42.6378 7.29522C40.5546 7.29522 38.8598 8.99002 38.8598 11.0733V11.4991C38.8598 13.9484 39.5227 16.326 40.7826 18.4138L37.7804 19.9149L34.8817 18.4656C36.0599 17.0492 36.7009 15.2826 36.7009 13.4173V12.1527C36.7009 9.47426 34.5219 7.29522 31.8434 7.29522C29.165 7.29522 26.986 9.47426 26.986 12.1527V13.4173C26.986 15.2826 27.627 17.0492 28.8052 18.4656L26.4463 19.6451L23.9838 18.4138C25.2436 16.326 25.9065 13.9484 25.9065 11.4991V11.0733C25.9065 8.99002 24.2117 7.29522 22.1285 7.29522C20.0453 7.29522 18.3505 8.99002 18.3505 11.0733V11.4991C18.3505 13.9484 19.0134 16.326 20.2732 18.4138L17.5864 19.7572C17.2559 19.2411 16.8268 18.7881 16.315 18.4246L17.5032 15.4543C18.0756 14.0233 17.9069 12.4035 17.052 11.121C16.5186 10.3211 16.3288 9.36127 16.5174 8.41834L16.821 6.89939C17.1317 5.34651 16.6487 3.75074 15.5287 2.63072C14.3774 1.4794 12.9339 0.662181 11.3545 0.267406C9.92868 -0.0890913 8.42165 -0.0891571 6.99606 0.26734C5.41643 0.662181 3.97305 1.47947 2.8218 2.63079C1.70178 3.75074 1.21872 5.34651 1.52942 6.89933L1.83315 8.41841C2.02171 9.36127 1.83183 10.3211 1.29844 11.121C0.443529 12.4034 0.274867 14.0233 0.847265 15.4542L2.03545 18.4246C0.764943 19.327 0 20.782 0 22.3773V36.9798C0 38.3529 1.03157 39.4874 2.36005 39.6548L1.08366 49.8661L2.15466 50L4.25444 33.2018H14.096L16.1958 50L17.2668 49.8661L15.9904 39.6548C17.3189 39.4874 18.3505 38.3529 18.3505 36.9798V34.2812H22.6682V34.8209C22.6682 36.3089 23.8788 37.5195 25.3668 37.5195H25.9065V49.9331H26.986V36.4401H36.7009V49.9331H37.7804V37.5195H38.3201C39.8081 37.5195 41.0187 36.3089 41.0187 34.8209V34.2812H45.3364V35.9004C45.3364 37.3883 46.547 38.599 48.035 38.599H48.5748V49.9331H49.6542V36.4401H59.3691V49.9331H60.4486V38.599H60.9883C62.4764 38.599 63.6869 37.3883 63.6869 35.9004V21.2978C63.6869 19.4461 62.6581 17.7813 61.0017 16.9532ZM50.7336 5.67606C50.7336 3.59282 52.4284 1.89803 54.5117 1.89803H60.4149C60.1706 3.83323 58.6286 5.36964 56.6383 5.56867L50.7336 6.15912V5.67606ZM51.3681 12.9411C50.953 12.3184 50.7336 11.5937 50.7336 10.8454V7.24393L56.7458 6.64271C57.2912 6.58817 57.8091 6.45244 58.2897 6.25014V10.8454C58.2897 11.5937 58.0703 12.3184 57.6552 12.9411L56.2573 15.038C55.2851 15.9776 53.7382 15.9776 52.7661 15.038L51.3681 12.9411ZM31.8434 8.37466C33.7434 8.37466 35.3196 9.78457 35.5823 11.613H28.1046C28.3673 9.78457 29.9435 8.37466 31.8434 8.37466ZM28.0654 13.4173V12.6924H35.6215V13.4173C35.6215 15.2421 34.9109 16.9575 33.6207 18.2477C32.6406 19.2276 31.0463 19.2276 30.0662 18.2477C28.776 16.9575 28.0654 15.2421 28.0654 13.4173ZM2.19656 11.7198C2.88992 10.68 3.13672 9.43236 2.89164 8.20672L2.58778 6.68764C2.3481 5.48948 2.72087 4.25825 3.585 3.39405C4.59802 2.38102 5.868 1.66197 7.25788 1.31456C8.51204 1.00095 9.83828 1.00095 11.0927 1.31456C12.4825 1.66197 13.7524 2.38102 14.7655 3.39411C15.6296 4.25825 16.0024 5.48948 15.7625 6.68771L15.459 8.20666C15.2137 9.43236 15.4605 10.68 16.1539 11.7198C16.8116 12.7063 16.9413 13.9525 16.501 15.0534L15.3686 17.8843L12.11 16.2549C13.3698 14.1672 14.0327 11.7895 14.0327 9.34018V8.91438C14.0327 8.83057 14.0132 8.74796 13.9758 8.67298L11.8169 4.35523C11.6967 4.11501 11.4175 3.99965 11.1635 4.08457L4.68684 6.24345C4.46639 6.31691 4.31776 6.52319 4.31776 6.7555V9.34018C4.31776 11.7895 4.98068 14.1672 6.24051 16.2549L2.98187 17.8843L1.84949 15.0533C1.40912 13.9525 1.53891 12.7063 2.19656 11.7198ZM10.885 16.1711C10.8581 16.2114 10.8393 16.2554 10.8242 16.3005L10.8221 16.2998C10.5303 17.1749 9.78018 17.4868 9.17523 17.4868C8.57029 17.4868 7.82014 17.1749 7.5284 16.2998L7.52623 16.3005C7.51121 16.2554 7.49233 16.2114 7.46542 16.1711C6.11243 14.1415 5.3972 11.7793 5.3972 9.34019V7.14448L11.0607 5.25665L12.9533 9.0418V9.34019C12.9533 11.7793 12.238 14.1415 10.885 16.1711ZM3.16795 18.9981L6.76082 17.2016C7.25914 18.0457 8.15321 18.5662 9.17523 18.5662C10.1973 18.5662 11.0913 18.0457 11.5896 17.2016L15.1825 18.9981C16.4708 19.6422 17.271 20.937 17.271 22.3773V28.884H15.1121V28.4318L15.4006 27.5665C15.9383 25.9531 15.8157 24.2269 15.0552 22.7058L14.0896 23.1884C14.7213 24.4517 14.8232 25.8853 14.3765 27.2252L14.0604 28.1736C14.0421 28.2287 14.0327 28.2863 14.0327 28.3443V32.1223H4.31775V28.3443C4.31775 28.2863 4.3084 28.2287 4.29008 28.1736L3.97397 27.2251C3.52728 25.8853 3.62914 24.4517 4.26083 23.1884L3.29524 22.7058C2.53481 24.2269 2.41213 25.9531 2.94988 27.5665L3.23832 28.4318V28.884H1.07944V22.3773C1.07944 20.937 1.87966 19.6422 3.16795 18.9981ZM2.49383 38.5845C1.69753 38.4834 1.07944 37.8031 1.07944 36.9798V29.9634H3.23832V32.6284L2.49383 38.5845ZM15.8566 38.5845L15.1121 32.6284V29.9634H17.271V36.9798C17.271 37.8031 16.6529 38.4834 15.8566 38.5845ZM18.3505 33.2018V22.3773C18.3505 21.802 18.2508 21.2449 18.0643 20.7252L21.2905 19.1121C21.4289 19.0428 21.5309 18.9175 21.5707 18.7679C21.6104 18.6183 21.584 18.4588 21.4981 18.33C20.1451 16.3003 19.4299 13.9382 19.4299 11.4991V11.0733C19.4299 9.58527 20.6405 8.37466 22.1285 8.37466C23.6166 8.37466 24.8271 9.58527 24.8271 11.0733V11.4991C24.8271 13.9382 24.1119 16.3003 22.7589 18.33C22.673 18.4588 22.6466 18.6183 22.6863 18.7679C22.7261 18.9175 22.8281 19.0428 22.9665 19.1121L25.2442 20.2509C23.653 21.0969 22.6682 22.7261 22.6682 24.5361V33.2018H18.3505ZM25.3668 36.4401C24.474 36.4401 23.7477 35.7137 23.7477 34.8209V24.5361C23.7477 24.3487 23.7619 24.164 23.7883 23.9827L24.2241 24.2733C25.2776 24.9756 25.9065 26.1507 25.9065 27.4168V36.4401H25.3668ZM26.986 35.3606V27.4168C26.986 25.7889 26.1773 24.2781 24.8229 23.3751L24.1169 22.9044C24.4714 22.1615 25.0655 21.5423 25.8362 21.157L29.5991 19.2755C30.2526 19.7991 31.0479 20.0616 31.8434 20.0616C32.639 20.0616 33.4343 19.7991 34.0878 19.2755L37.8507 21.157C38.6214 21.5423 39.2155 22.1615 39.57 22.9044L38.864 23.3751C37.5096 24.2781 36.7009 25.7889 36.7009 27.4168V35.3606H26.986ZM39.9392 34.8209C39.9392 35.7137 39.2129 36.4401 38.3201 36.4401H37.7804V27.4168C37.7804 26.1507 38.4093 24.9756 39.4628 24.2733L39.8986 23.9827C39.925 24.164 39.9392 24.3487 39.9392 24.5361V34.8209ZM41.0187 33.2018V24.5361C41.0187 22.9192 40.234 21.4451 38.9323 20.5458L41.7998 19.1121C41.9383 19.0428 42.0403 18.9175 42.0801 18.7679C42.1197 18.6183 42.0934 18.4588 42.0075 18.33C40.6545 16.3003 39.9392 13.9382 39.9392 11.4991V11.0733C39.9392 9.58527 41.1498 8.37466 42.6378 8.37466C44.1259 8.37466 45.3364 9.58527 45.3364 11.0733V11.4991C45.3364 13.9382 44.6212 16.3003 43.2682 18.33C43.1823 18.4588 43.156 18.6183 43.1956 18.7679C43.2354 18.9175 43.3374 19.0428 43.4759 19.1121L45.4831 20.1157C45.3886 20.4965 45.3364 20.8922 45.3364 21.2978V33.2018H41.0187ZM48.035 37.5195C47.1422 37.5195 46.4159 36.7931 46.4159 35.9004V28.884H48.5748V37.5195H48.035ZM49.6542 35.3606V25.106H48.5748V27.8046H46.4159V21.2978C46.4159 19.8576 47.2161 18.5628 48.5044 17.9186L52.2673 16.0372C52.7726 16.442 53.3625 16.6905 53.972 16.7823V21.8676H55.0514V16.7823C55.6608 16.6905 56.2507 16.442 56.756 16.0372L60.519 17.9186C61.8072 18.5628 62.6075 19.8576 62.6075 21.2978V27.8046H60.4486V25.106H59.3691V35.3606H49.6542ZM60.9883 37.5195H60.4486V28.884H62.6075V35.9004C62.6075 36.7931 61.8812 37.5195 60.9883 37.5195Z"/>
</mask>
<path d="M61.0017 16.9532L57.4588 15.1817L58.5534 13.5398C59.087 12.7392 59.3691 11.8075 59.3691 10.8454V5.63762C60.6872 4.66863 61.528 3.10963 61.528 1.35831C61.528 1.06025 61.2864 0.818586 60.9883 0.818586H54.5117C51.8332 0.818586 49.6542 2.99762 49.6542 5.67606V10.8454C49.6542 11.8075 49.9363 12.7392 50.47 13.5398L51.5646 15.1817L48.0216 16.9532C47.0662 17.4309 46.3214 18.1878 45.8606 19.0976L44.4931 18.4138C45.753 16.326 46.4159 13.9484 46.4159 11.4991V11.0733C46.4159 8.99002 44.7211 7.29522 42.6378 7.29522C40.5546 7.29522 38.8598 8.99002 38.8598 11.0733V11.4991C38.8598 13.9484 39.5227 16.326 40.7826 18.4138L37.7804 19.9149L34.8817 18.4656C36.0599 17.0492 36.7009 15.2826 36.7009 13.4173V12.1527C36.7009 9.47426 34.5219 7.29522 31.8434 7.29522C29.165 7.29522 26.986 9.47426 26.986 12.1527V13.4173C26.986 15.2826 27.627 17.0492 28.8052 18.4656L26.4463 19.6451L23.9838 18.4138C25.2436 16.326 25.9065 13.9484 25.9065 11.4991V11.0733C25.9065 8.99002 24.2117 7.29522 22.1285 7.29522C20.0453 7.29522 18.3505 8.99002 18.3505 11.0733V11.4991C18.3505 13.9484 19.0134 16.326 20.2732 18.4138L17.5864 19.7572C17.2559 19.2411 16.8268 18.7881 16.315 18.4246L17.5032 15.4543C18.0756 14.0233 17.9069 12.4035 17.052 11.121C16.5186 10.3211 16.3288 9.36127 16.5174 8.41834L16.821 6.89939C17.1317 5.34651 16.6487 3.75074 15.5287 2.63072C14.3774 1.4794 12.9339 0.662181 11.3545 0.267406C9.92868 -0.0890913 8.42165 -0.0891571 6.99606 0.26734C5.41643 0.662181 3.97305 1.47947 2.8218 2.63079C1.70178 3.75074 1.21872 5.34651 1.52942 6.89933L1.83315 8.41841C2.02171 9.36127 1.83183 10.3211 1.29844 11.121C0.443529 12.4034 0.274867 14.0233 0.847265 15.4542L2.03545 18.4246C0.764943 19.327 0 20.782 0 22.3773V36.9798C0 38.3529 1.03157 39.4874 2.36005 39.6548L1.08366 49.8661L2.15466 50L4.25444 33.2018H14.096L16.1958 50L17.2668 49.8661L15.9904 39.6548C17.3189 39.4874 18.3505 38.3529 18.3505 36.9798V34.2812H22.6682V34.8209C22.6682 36.3089 23.8788 37.5195 25.3668 37.5195H25.9065V49.9331H26.986V36.4401H36.7009V49.9331H37.7804V37.5195H38.3201C39.8081 37.5195 41.0187 36.3089 41.0187 34.8209V34.2812H45.3364V35.9004C45.3364 37.3883 46.547 38.599 48.035 38.599H48.5748V49.9331H49.6542V36.4401H59.3691V49.9331H60.4486V38.599H60.9883C62.4764 38.599 63.6869 37.3883 63.6869 35.9004V21.2978C63.6869 19.4461 62.6581 17.7813 61.0017 16.9532ZM50.7336 5.67606C50.7336 3.59282 52.4284 1.89803 54.5117 1.89803H60.4149C60.1706 3.83323 58.6286 5.36964 56.6383 5.56867L50.7336 6.15912V5.67606ZM51.3681 12.9411C50.953 12.3184 50.7336 11.5937 50.7336 10.8454V7.24393L56.7458 6.64271C57.2912 6.58817 57.8091 6.45244 58.2897 6.25014V10.8454C58.2897 11.5937 58.0703 12.3184 57.6552 12.9411L56.2573 15.038C55.2851 15.9776 53.7382 15.9776 52.7661 15.038L51.3681 12.9411ZM31.8434 8.37466C33.7434 8.37466 35.3196 9.78457 35.5823 11.613H28.1046C28.3673 9.78457 29.9435 8.37466 31.8434 8.37466ZM28.0654 13.4173V12.6924H35.6215V13.4173C35.6215 15.2421 34.9109 16.9575 33.6207 18.2477C32.6406 19.2276 31.0463 19.2276 30.0662 18.2477C28.776 16.9575 28.0654 15.2421 28.0654 13.4173ZM2.19656 11.7198C2.88992 10.68 3.13672 9.43236 2.89164 8.20672L2.58778 6.68764C2.3481 5.48948 2.72087 4.25825 3.585 3.39405C4.59802 2.38102 5.868 1.66197 7.25788 1.31456C8.51204 1.00095 9.83828 1.00095 11.0927 1.31456C12.4825 1.66197 13.7524 2.38102 14.7655 3.39411C15.6296 4.25825 16.0024 5.48948 15.7625 6.68771L15.459 8.20666C15.2137 9.43236 15.4605 10.68 16.1539 11.7198C16.8116 12.7063 16.9413 13.9525 16.501 15.0534L15.3686 17.8843L12.11 16.2549C13.3698 14.1672 14.0327 11.7895 14.0327 9.34018V8.91438C14.0327 8.83057 14.0132 8.74796 13.9758 8.67298L11.8169 4.35523C11.6967 4.11501 11.4175 3.99965 11.1635 4.08457L4.68684 6.24345C4.46639 6.31691 4.31776 6.52319 4.31776 6.7555V9.34018C4.31776 11.7895 4.98068 14.1672 6.24051 16.2549L2.98187 17.8843L1.84949 15.0533C1.40912 13.9525 1.53891 12.7063 2.19656 11.7198ZM10.885 16.1711C10.8581 16.2114 10.8393 16.2554 10.8242 16.3005L10.8221 16.2998C10.5303 17.1749 9.78018 17.4868 9.17523 17.4868C8.57029 17.4868 7.82014 17.1749 7.5284 16.2998L7.52623 16.3005C7.51121 16.2554 7.49233 16.2114 7.46542 16.1711C6.11243 14.1415 5.3972 11.7793 5.3972 9.34019V7.14448L11.0607 5.25665L12.9533 9.0418V9.34019C12.9533 11.7793 12.238 14.1415 10.885 16.1711ZM3.16795 18.9981L6.76082 17.2016C7.25914 18.0457 8.15321 18.5662 9.17523 18.5662C10.1973 18.5662 11.0913 18.0457 11.5896 17.2016L15.1825 18.9981C16.4708 19.6422 17.271 20.937 17.271 22.3773V28.884H15.1121V28.4318L15.4006 27.5665C15.9383 25.9531 15.8157 24.2269 15.0552 22.7058L14.0896 23.1884C14.7213 24.4517 14.8232 25.8853 14.3765 27.2252L14.0604 28.1736C14.0421 28.2287 14.0327 28.2863 14.0327 28.3443V32.1223H4.31775V28.3443C4.31775 28.2863 4.3084 28.2287 4.29008 28.1736L3.97397 27.2251C3.52728 25.8853 3.62914 24.4517 4.26083 23.1884L3.29524 22.7058C2.53481 24.2269 2.41213 25.9531 2.94988 27.5665L3.23832 28.4318V28.884H1.07944V22.3773C1.07944 20.937 1.87966 19.6422 3.16795 18.9981ZM2.49383 38.5845C1.69753 38.4834 1.07944 37.8031 1.07944 36.9798V29.9634H3.23832V32.6284L2.49383 38.5845ZM15.8566 38.5845L15.1121 32.6284V29.9634H17.271V36.9798C17.271 37.8031 16.6529 38.4834 15.8566 38.5845ZM18.3505 33.2018V22.3773C18.3505 21.802 18.2508 21.2449 18.0643 20.7252L21.2905 19.1121C21.4289 19.0428 21.5309 18.9175 21.5707 18.7679C21.6104 18.6183 21.584 18.4588 21.4981 18.33C20.1451 16.3003 19.4299 13.9382 19.4299 11.4991V11.0733C19.4299 9.58527 20.6405 8.37466 22.1285 8.37466C23.6166 8.37466 24.8271 9.58527 24.8271 11.0733V11.4991C24.8271 13.9382 24.1119 16.3003 22.7589 18.33C22.673 18.4588 22.6466 18.6183 22.6863 18.7679C22.7261 18.9175 22.8281 19.0428 22.9665 19.1121L25.2442 20.2509C23.653 21.0969 22.6682 22.7261 22.6682 24.5361V33.2018H18.3505ZM25.3668 36.4401C24.474 36.4401 23.7477 35.7137 23.7477 34.8209V24.5361C23.7477 24.3487 23.7619 24.164 23.7883 23.9827L24.2241 24.2733C25.2776 24.9756 25.9065 26.1507 25.9065 27.4168V36.4401H25.3668ZM26.986 35.3606V27.4168C26.986 25.7889 26.1773 24.2781 24.8229 23.3751L24.1169 22.9044C24.4714 22.1615 25.0655 21.5423 25.8362 21.157L29.5991 19.2755C30.2526 19.7991 31.0479 20.0616 31.8434 20.0616C32.639 20.0616 33.4343 19.7991 34.0878 19.2755L37.8507 21.157C38.6214 21.5423 39.2155 22.1615 39.57 22.9044L38.864 23.3751C37.5096 24.2781 36.7009 25.7889 36.7009 27.4168V35.3606H26.986ZM39.9392 34.8209C39.9392 35.7137 39.2129 36.4401 38.3201 36.4401H37.7804V27.4168C37.7804 26.1507 38.4093 24.9756 39.4628 24.2733L39.8986 23.9827C39.925 24.164 39.9392 24.3487 39.9392 24.5361V34.8209ZM41.0187 33.2018V24.5361C41.0187 22.9192 40.234 21.4451 38.9323 20.5458L41.7998 19.1121C41.9383 19.0428 42.0403 18.9175 42.0801 18.7679C42.1197 18.6183 42.0934 18.4588 42.0075 18.33C40.6545 16.3003 39.9392 13.9382 39.9392 11.4991V11.0733C39.9392 9.58527 41.1498 8.37466 42.6378 8.37466C44.1259 8.37466 45.3364 9.58527 45.3364 11.0733V11.4991C45.3364 13.9382 44.6212 16.3003 43.2682 18.33C43.1823 18.4588 43.156 18.6183 43.1956 18.7679C43.2354 18.9175 43.3374 19.0428 43.4759 19.1121L45.4831 20.1157C45.3886 20.4965 45.3364 20.8922 45.3364 21.2978V33.2018H41.0187ZM48.035 37.5195C47.1422 37.5195 46.4159 36.7931 46.4159 35.9004V28.884H48.5748V37.5195H48.035ZM49.6542 35.3606V25.106H48.5748V27.8046H46.4159V21.2978C46.4159 19.8576 47.2161 18.5628 48.5044 17.9186L52.2673 16.0372C52.7726 16.442 53.3625 16.6905 53.972 16.7823V21.8676H55.0514V16.7823C55.6608 16.6905 56.2507 16.442 56.756 16.0372L60.519 17.9186C61.8072 18.5628 62.6075 19.8576 62.6075 21.2978V27.8046H60.4486V25.106H59.3691V35.3606H49.6542ZM60.9883 37.5195H60.4486V28.884H62.6075V35.9004C62.6075 36.7931 61.8812 37.5195 60.9883 37.5195Z" stroke="#111827" stroke-width="2" mask="url(#path-1-inside-1_1466_15645)"/>
</g>
<path id="Vector_2" d="M55.0514 40.2188H53.972V49.9337H55.0514V40.2188Z" fill="#111827"/>
<path id="Vector_3" d="M32.3832 40.2188H31.3038V49.9337H32.3832V40.2188Z" fill="#111827"/>
<path id="Vector_4" d="M22.6681 39.1396H21.5887V49.934H22.6681V39.1396Z" fill="#111827"/>
<path id="Vector_5" d="M43.1776 39.1396H42.0981V49.934H43.1776V39.1396Z" fill="#111827"/>
</g>
</svg>
