<svg width="32" height="26" viewBox="0 0 32 26" fill="none" xmlns="http://www.w3.org/2000/svg">
<mask id="path-1-inside-1_806_10118" fill="white">
<path d="M30.6508 8.51826L28.8706 7.62817L29.4206 6.80319C29.6888 6.40091 29.8305 5.93279 29.8305 5.44934V2.83267C30.4928 2.34579 30.9153 1.56246 30.9153 0.682491C30.9153 0.53273 30.7938 0.411305 30.6441 0.411305H27.3898C26.044 0.411305 24.9492 1.50618 24.9492 2.85198V5.44934C24.9492 5.93279 25.0909 6.40091 25.359 6.80319L25.909 7.62817L24.1288 8.51826C23.6488 8.75828 23.2746 9.13863 23.043 9.59572L22.3559 9.25218C22.9889 8.20315 23.322 7.00847 23.322 5.7778V5.56385C23.322 4.51711 22.4705 3.66554 21.4237 3.66554C20.377 3.66554 19.5254 4.51711 19.5254 5.56385V5.7778C19.5254 7.00847 19.8585 8.20315 20.4915 9.25218L18.9831 10.0064L17.5266 9.2782C18.1186 8.56653 18.4407 7.67889 18.4407 6.74165V6.10622C18.4407 4.76042 17.3458 3.66554 16 3.66554C14.6542 3.66554 13.5593 4.76042 13.5593 6.10622V6.74165C13.5593 7.67889 13.8814 8.56653 14.4734 9.2782L13.2881 9.87082L12.0508 9.25218C12.6839 8.20315 13.0169 7.00847 13.0169 5.7778V5.56385C13.0169 4.51711 12.1654 3.66554 11.1186 3.66554C10.0719 3.66554 9.22034 4.51711 9.22034 5.56385V5.7778C9.22034 7.00847 9.55343 8.20315 10.1864 9.25218L8.83643 9.92718C8.67038 9.66784 8.45475 9.44024 8.19761 9.25761L8.79462 7.76512C9.08223 7.04614 8.99748 6.23222 8.56793 5.58782C8.29992 5.1859 8.20451 4.70365 8.29932 4.22987L8.45187 3.46666C8.60798 2.6864 8.36527 1.88459 7.8025 1.32183C7.22405 0.743339 6.49874 0.332718 5.70518 0.13436C4.98874 -0.0447646 4.23153 -0.0447977 3.51523 0.134327C2.72153 0.332718 1.99629 0.743371 1.41784 1.32186C0.855071 1.88459 0.612354 2.6864 0.768472 3.46662L0.921081 4.2299C1.01582 4.70365 0.920418 5.1859 0.65241 5.58785C0.222855 6.23221 0.138109 7.04614 0.425715 7.76509L1.02273 9.25761C0.384352 9.71101 0 10.4421 0 11.2436V18.5808C0 19.2707 0.518323 19.8408 1.18583 19.9249L0.544492 25.0556L1.08263 25.1229L2.13768 16.6825H7.08266L8.13771 25.1229L8.67585 25.0556L8.03451 19.9249C8.70201 19.8408 9.22034 19.2707 9.22034 18.5808V17.2249H11.3898V17.4961C11.3898 18.2437 11.9981 18.852 12.7458 18.852H13.0169V25.0893H13.5593V18.3096H18.4407V25.0893H18.9831V18.852H19.2542C20.0019 18.852 20.6102 18.2437 20.6102 17.4961V17.2249H22.7797V18.0384C22.7797 18.7861 23.3879 19.3944 24.1356 19.3944H24.4068V25.0893H24.9492V18.3096H29.8305V25.0893H30.3729V19.3944H30.6441C31.3918 19.3944 32 18.7861 32 18.0384V10.7013C32 9.77085 31.4831 8.93438 30.6508 8.51826ZM25.4915 2.85198C25.4915 1.80524 26.3431 0.953679 27.3898 0.953679H30.3559C30.2332 1.92604 29.4584 2.69802 28.4584 2.79802L25.4915 3.0947V2.85198ZM25.8103 6.50234C25.6018 6.18948 25.4915 5.82537 25.4915 5.44934V3.63977L28.5124 3.33768C28.7864 3.31028 29.0466 3.24208 29.2881 3.14043V5.44934C29.2881 5.82537 29.1779 6.18948 28.9693 6.50234L28.2669 7.55595C27.7785 8.0281 27.0012 8.0281 26.5127 7.55595L25.8103 6.50234ZM16 4.20792C16.9546 4.20792 17.7466 4.91634 17.8786 5.83503H14.1214C14.2534 4.91634 15.0454 4.20792 16 4.20792ZM14.1017 6.74165V6.37741H17.8983V6.74165C17.8983 7.65849 17.5412 8.52045 16.893 9.16869C16.4006 9.66108 15.5994 9.66108 15.107 9.16869C14.4588 8.52045 14.1017 7.65849 14.1017 6.74165ZM1.10368 5.88873C1.45207 5.36625 1.57607 4.73937 1.45293 4.12353L1.30025 3.36026C1.17982 2.75823 1.36712 2.13959 1.80131 1.70537C2.31031 1.19636 2.94842 0.835068 3.64678 0.660512C4.27695 0.502937 4.94333 0.502937 5.57362 0.660512C6.27191 0.835068 6.91002 1.19636 7.41903 1.7054C7.85322 2.13959 8.04052 2.75823 7.92002 3.36029L7.76748 4.1235C7.64427 4.73936 7.76827 5.36625 8.11666 5.8887C8.4471 6.38439 8.51231 7.01055 8.29105 7.56368L7.72208 8.9861L6.08475 8.16743C6.71776 7.1184 7.05085 5.92372 7.05085 4.69305V4.4791C7.05085 4.43699 7.04105 4.39548 7.02225 4.35781L5.9375 2.18832C5.87712 2.06762 5.73682 2.00966 5.60918 2.05233L2.35494 3.13707C2.24417 3.17398 2.16949 3.27763 2.16949 3.39436V4.69305C2.16949 5.92372 2.50258 7.1184 3.13559 8.16743L1.49826 8.9861L0.929292 7.56365C0.708026 7.01055 0.773238 6.38439 1.10368 5.88873ZM5.46928 8.12529C5.45576 8.14557 5.44627 8.16765 5.43872 8.19034L5.43763 8.18997C5.29105 8.62969 4.91413 8.78637 4.61017 8.78637C4.30621 8.78637 3.92929 8.62969 3.78271 8.18997L3.78161 8.19034C3.77407 8.16765 3.76458 8.14557 3.75106 8.12529C3.07124 7.10549 2.71186 5.91862 2.71186 4.69305V3.5898L5.55754 2.64125L6.50848 4.54313V4.69305C6.50848 5.91862 6.1491 7.10549 5.46928 8.12529ZM1.59176 9.54574L3.39703 8.64311C3.64741 9.06723 4.09665 9.32875 4.61017 9.32875C5.12369 9.32875 5.57293 9.06723 5.82331 8.64311L7.62858 9.54574C8.27589 9.8694 8.67797 10.52 8.67797 11.2436V14.513H7.59322V14.2858L7.73815 13.851C8.00834 13.0403 7.9467 12.173 7.56462 11.4087L7.07945 11.6512C7.39685 12.2859 7.44803 13.0063 7.22358 13.6795L7.06475 14.1561C7.05555 14.1837 7.05085 14.2127 7.05085 14.2418V16.1401H2.16949V14.2418C2.16949 14.2127 2.16479 14.1837 2.15559 14.1561L1.99676 13.6795C1.77231 13.0063 1.82349 12.2859 2.14089 11.6512L1.65572 11.4087C1.27364 12.173 1.212 13.0403 1.48219 13.851L1.62712 14.2858V14.513H0.542372V11.2436C0.542372 10.52 0.944451 9.8694 1.59176 9.54574ZM1.25305 19.3871C0.852936 19.3363 0.542373 18.9945 0.542373 18.5808V15.0554H1.62712V16.3944L1.25305 19.3871ZM7.96729 19.3871L7.59322 16.3944V15.0554H8.67797V18.5808C8.67797 18.9945 8.3674 19.3363 7.96729 19.3871ZM9.22034 16.6825V11.2436C9.22034 10.9546 9.17029 10.6747 9.07655 10.4135L10.6976 9.60301C10.7671 9.56822 10.8184 9.50526 10.8384 9.43008C10.8583 9.3549 10.8451 9.27475 10.8019 9.21004C10.1221 8.19024 9.76271 7.00337 9.76271 5.7778V5.56385C9.76271 4.8162 10.371 4.20792 11.1186 4.20792C11.8663 4.20792 12.4746 4.8162 12.4746 5.56385V5.7778C12.4746 7.00337 12.1152 8.19024 11.4354 9.21004C11.3922 9.27475 11.379 9.3549 11.3989 9.43008C11.4189 9.50526 11.4701 9.56822 11.5397 9.60301L12.6842 10.1752C11.8846 10.6003 11.3898 11.4189 11.3898 12.3284V16.6825H9.22034ZM12.7458 18.3096C12.2971 18.3096 11.9322 17.9446 11.9322 17.4961V12.3284C11.9322 12.2342 11.9394 12.1414 11.9526 12.0503L12.1716 12.1963C12.7009 12.5492 13.0169 13.1396 13.0169 13.7758V18.3096H12.7458ZM13.5593 17.7672V13.7758C13.5593 12.9579 13.153 12.1987 12.4725 11.745L12.1177 11.5085C12.2958 11.1352 12.5943 10.8241 12.9816 10.6305L14.8723 9.68512C15.2007 9.94824 15.6003 10.0801 16 10.0801C16.3997 10.0801 16.7993 9.94824 17.1277 9.68512L19.0184 10.6305C19.4057 10.8241 19.7042 11.1352 19.8823 11.5085L19.5275 11.745C18.847 12.1987 18.4407 12.9579 18.4407 13.7758V17.7672H13.5593ZM20.0678 17.4961C20.0678 17.9446 19.7029 18.3096 19.2542 18.3096H18.9831V13.7758C18.9831 13.1396 19.2991 12.5492 19.8284 12.1963L20.0474 12.0503C20.0606 12.1414 20.0678 12.2342 20.0678 12.3284V17.4961ZM20.6102 16.6825V12.3284C20.6102 11.5159 20.2159 10.7753 19.5618 10.3234L21.0026 9.60301C21.0722 9.56822 21.1235 9.50526 21.1435 9.43008C21.1634 9.3549 21.1502 9.27475 21.107 9.21004C20.4272 8.19024 20.0678 7.00337 20.0678 5.7778V5.56385C20.0678 4.8162 20.676 4.20792 21.4237 4.20792C22.1714 4.20792 22.7797 4.8162 22.7797 5.56385V5.7778C22.7797 7.00337 22.4203 8.19024 21.7405 9.21004C21.6973 9.27475 21.6841 9.3549 21.704 9.43008C21.724 9.50526 21.7752 9.56822 21.8448 9.60301L22.8534 10.1073C22.8058 10.2986 22.7797 10.4975 22.7797 10.7013V16.6825H20.6102ZM24.1356 18.852C23.687 18.852 23.322 18.487 23.322 18.0384V14.513H24.4068V18.852H24.1356ZM24.9492 17.7672V12.6147H24.4068V13.9706H23.322V10.7013C23.322 9.97761 23.7241 9.32702 24.3714 9.00337L26.2621 8.05801C26.516 8.26143 26.8124 8.38626 27.1186 8.43243V10.9876H27.661V8.43243C27.9672 8.38626 28.2636 8.26143 28.5175 8.05801L30.4082 9.00337C31.0555 9.32702 31.4576 9.97761 31.4576 10.7013V13.9706H30.3729V12.6147H29.8305V17.7672H24.9492ZM30.6441 18.852H30.3729V14.513H31.4576V18.0384C31.4576 18.487 31.0927 18.852 30.6441 18.852Z"/>
</mask>
<path d="M30.6508 8.51826L28.8706 7.62817L29.4206 6.80319C29.6888 6.40091 29.8305 5.93279 29.8305 5.44934V2.83267C30.4928 2.34579 30.9153 1.56246 30.9153 0.682491C30.9153 0.53273 30.7938 0.411305 30.6441 0.411305H27.3898C26.044 0.411305 24.9492 1.50618 24.9492 2.85198V5.44934C24.9492 5.93279 25.0909 6.40091 25.359 6.80319L25.909 7.62817L24.1288 8.51826C23.6488 8.75828 23.2746 9.13863 23.043 9.59572L22.3559 9.25218C22.9889 8.20315 23.322 7.00847 23.322 5.7778V5.56385C23.322 4.51711 22.4705 3.66554 21.4237 3.66554C20.377 3.66554 19.5254 4.51711 19.5254 5.56385V5.7778C19.5254 7.00847 19.8585 8.20315 20.4915 9.25218L18.9831 10.0064L17.5266 9.2782C18.1186 8.56653 18.4407 7.67889 18.4407 6.74165V6.10622C18.4407 4.76042 17.3458 3.66554 16 3.66554C14.6542 3.66554 13.5593 4.76042 13.5593 6.10622V6.74165C13.5593 7.67889 13.8814 8.56653 14.4734 9.2782L13.2881 9.87082L12.0508 9.25218C12.6839 8.20315 13.0169 7.00847 13.0169 5.7778V5.56385C13.0169 4.51711 12.1654 3.66554 11.1186 3.66554C10.0719 3.66554 9.22034 4.51711 9.22034 5.56385V5.7778C9.22034 7.00847 9.55343 8.20315 10.1864 9.25218L8.83643 9.92718C8.67038 9.66784 8.45475 9.44024 8.19761 9.25761L8.79462 7.76512C9.08223 7.04614 8.99748 6.23222 8.56793 5.58782C8.29992 5.1859 8.20451 4.70365 8.29932 4.22987L8.45187 3.46666C8.60798 2.6864 8.36527 1.88459 7.8025 1.32183C7.22405 0.743339 6.49874 0.332718 5.70518 0.13436C4.98874 -0.0447646 4.23153 -0.0447977 3.51523 0.134327C2.72153 0.332718 1.99629 0.743371 1.41784 1.32186C0.855071 1.88459 0.612354 2.6864 0.768472 3.46662L0.921081 4.2299C1.01582 4.70365 0.920418 5.1859 0.65241 5.58785C0.222855 6.23221 0.138109 7.04614 0.425715 7.76509L1.02273 9.25761C0.384352 9.71101 0 10.4421 0 11.2436V18.5808C0 19.2707 0.518323 19.8408 1.18583 19.9249L0.544492 25.0556L1.08263 25.1229L2.13768 16.6825H7.08266L8.13771 25.1229L8.67585 25.0556L8.03451 19.9249C8.70201 19.8408 9.22034 19.2707 9.22034 18.5808V17.2249H11.3898V17.4961C11.3898 18.2437 11.9981 18.852 12.7458 18.852H13.0169V25.0893H13.5593V18.3096H18.4407V25.0893H18.9831V18.852H19.2542C20.0019 18.852 20.6102 18.2437 20.6102 17.4961V17.2249H22.7797V18.0384C22.7797 18.7861 23.3879 19.3944 24.1356 19.3944H24.4068V25.0893H24.9492V18.3096H29.8305V25.0893H30.3729V19.3944H30.6441C31.3918 19.3944 32 18.7861 32 18.0384V10.7013C32 9.77085 31.4831 8.93438 30.6508 8.51826ZM25.4915 2.85198C25.4915 1.80524 26.3431 0.953679 27.3898 0.953679H30.3559C30.2332 1.92604 29.4584 2.69802 28.4584 2.79802L25.4915 3.0947V2.85198ZM25.8103 6.50234C25.6018 6.18948 25.4915 5.82537 25.4915 5.44934V3.63977L28.5124 3.33768C28.7864 3.31028 29.0466 3.24208 29.2881 3.14043V5.44934C29.2881 5.82537 29.1779 6.18948 28.9693 6.50234L28.2669 7.55595C27.7785 8.0281 27.0012 8.0281 26.5127 7.55595L25.8103 6.50234ZM16 4.20792C16.9546 4.20792 17.7466 4.91634 17.8786 5.83503H14.1214C14.2534 4.91634 15.0454 4.20792 16 4.20792ZM14.1017 6.74165V6.37741H17.8983V6.74165C17.8983 7.65849 17.5412 8.52045 16.893 9.16869C16.4006 9.66108 15.5994 9.66108 15.107 9.16869C14.4588 8.52045 14.1017 7.65849 14.1017 6.74165ZM1.10368 5.88873C1.45207 5.36625 1.57607 4.73937 1.45293 4.12353L1.30025 3.36026C1.17982 2.75823 1.36712 2.13959 1.80131 1.70537C2.31031 1.19636 2.94842 0.835068 3.64678 0.660512C4.27695 0.502937 4.94333 0.502937 5.57362 0.660512C6.27191 0.835068 6.91002 1.19636 7.41903 1.7054C7.85322 2.13959 8.04052 2.75823 7.92002 3.36029L7.76748 4.1235C7.64427 4.73936 7.76827 5.36625 8.11666 5.8887C8.4471 6.38439 8.51231 7.01055 8.29105 7.56368L7.72208 8.9861L6.08475 8.16743C6.71776 7.1184 7.05085 5.92372 7.05085 4.69305V4.4791C7.05085 4.43699 7.04105 4.39548 7.02225 4.35781L5.9375 2.18832C5.87712 2.06762 5.73682 2.00966 5.60918 2.05233L2.35494 3.13707C2.24417 3.17398 2.16949 3.27763 2.16949 3.39436V4.69305C2.16949 5.92372 2.50258 7.1184 3.13559 8.16743L1.49826 8.9861L0.929292 7.56365C0.708026 7.01055 0.773238 6.38439 1.10368 5.88873ZM5.46928 8.12529C5.45576 8.14557 5.44627 8.16765 5.43872 8.19034L5.43763 8.18997C5.29105 8.62969 4.91413 8.78637 4.61017 8.78637C4.30621 8.78637 3.92929 8.62969 3.78271 8.18997L3.78161 8.19034C3.77407 8.16765 3.76458 8.14557 3.75106 8.12529C3.07124 7.10549 2.71186 5.91862 2.71186 4.69305V3.5898L5.55754 2.64125L6.50848 4.54313V4.69305C6.50848 5.91862 6.1491 7.10549 5.46928 8.12529ZM1.59176 9.54574L3.39703 8.64311C3.64741 9.06723 4.09665 9.32875 4.61017 9.32875C5.12369 9.32875 5.57293 9.06723 5.82331 8.64311L7.62858 9.54574C8.27589 9.8694 8.67797 10.52 8.67797 11.2436V14.513H7.59322V14.2858L7.73815 13.851C8.00834 13.0403 7.9467 12.173 7.56462 11.4087L7.07945 11.6512C7.39685 12.2859 7.44803 13.0063 7.22358 13.6795L7.06475 14.1561C7.05555 14.1837 7.05085 14.2127 7.05085 14.2418V16.1401H2.16949V14.2418C2.16949 14.2127 2.16479 14.1837 2.15559 14.1561L1.99676 13.6795C1.77231 13.0063 1.82349 12.2859 2.14089 11.6512L1.65572 11.4087C1.27364 12.173 1.212 13.0403 1.48219 13.851L1.62712 14.2858V14.513H0.542372V11.2436C0.542372 10.52 0.944451 9.8694 1.59176 9.54574ZM1.25305 19.3871C0.852936 19.3363 0.542373 18.9945 0.542373 18.5808V15.0554H1.62712V16.3944L1.25305 19.3871ZM7.96729 19.3871L7.59322 16.3944V15.0554H8.67797V18.5808C8.67797 18.9945 8.3674 19.3363 7.96729 19.3871ZM9.22034 16.6825V11.2436C9.22034 10.9546 9.17029 10.6747 9.07655 10.4135L10.6976 9.60301C10.7671 9.56822 10.8184 9.50526 10.8384 9.43008C10.8583 9.3549 10.8451 9.27475 10.8019 9.21004C10.1221 8.19024 9.76271 7.00337 9.76271 5.7778V5.56385C9.76271 4.8162 10.371 4.20792 11.1186 4.20792C11.8663 4.20792 12.4746 4.8162 12.4746 5.56385V5.7778C12.4746 7.00337 12.1152 8.19024 11.4354 9.21004C11.3922 9.27475 11.379 9.3549 11.3989 9.43008C11.4189 9.50526 11.4701 9.56822 11.5397 9.60301L12.6842 10.1752C11.8846 10.6003 11.3898 11.4189 11.3898 12.3284V16.6825H9.22034ZM12.7458 18.3096C12.2971 18.3096 11.9322 17.9446 11.9322 17.4961V12.3284C11.9322 12.2342 11.9394 12.1414 11.9526 12.0503L12.1716 12.1963C12.7009 12.5492 13.0169 13.1396 13.0169 13.7758V18.3096H12.7458ZM13.5593 17.7672V13.7758C13.5593 12.9579 13.153 12.1987 12.4725 11.745L12.1177 11.5085C12.2958 11.1352 12.5943 10.8241 12.9816 10.6305L14.8723 9.68512C15.2007 9.94824 15.6003 10.0801 16 10.0801C16.3997 10.0801 16.7993 9.94824 17.1277 9.68512L19.0184 10.6305C19.4057 10.8241 19.7042 11.1352 19.8823 11.5085L19.5275 11.745C18.847 12.1987 18.4407 12.9579 18.4407 13.7758V17.7672H13.5593ZM20.0678 17.4961C20.0678 17.9446 19.7029 18.3096 19.2542 18.3096H18.9831V13.7758C18.9831 13.1396 19.2991 12.5492 19.8284 12.1963L20.0474 12.0503C20.0606 12.1414 20.0678 12.2342 20.0678 12.3284V17.4961ZM20.6102 16.6825V12.3284C20.6102 11.5159 20.2159 10.7753 19.5618 10.3234L21.0026 9.60301C21.0722 9.56822 21.1235 9.50526 21.1435 9.43008C21.1634 9.3549 21.1502 9.27475 21.107 9.21004C20.4272 8.19024 20.0678 7.00337 20.0678 5.7778V5.56385C20.0678 4.8162 20.676 4.20792 21.4237 4.20792C22.1714 4.20792 22.7797 4.8162 22.7797 5.56385V5.7778C22.7797 7.00337 22.4203 8.19024 21.7405 9.21004C21.6973 9.27475 21.6841 9.3549 21.704 9.43008C21.724 9.50526 21.7752 9.56822 21.8448 9.60301L22.8534 10.1073C22.8058 10.2986 22.7797 10.4975 22.7797 10.7013V16.6825H20.6102ZM24.1356 18.852C23.687 18.852 23.322 18.487 23.322 18.0384V14.513H24.4068V18.852H24.1356ZM24.9492 17.7672V12.6147H24.4068V13.9706H23.322V10.7013C23.322 9.97761 23.7241 9.32702 24.3714 9.00337L26.2621 8.05801C26.516 8.26143 26.8124 8.38626 27.1186 8.43243V10.9876H27.661V8.43243C27.9672 8.38626 28.2636 8.26143 28.5175 8.05801L30.4082 9.00337C31.0555 9.32702 31.4576 9.97761 31.4576 10.7013V13.9706H30.3729V12.6147H29.8305V17.7672H24.9492ZM30.6441 18.852H30.3729V14.513H31.4576V18.0384C31.4576 18.487 31.0927 18.852 30.6441 18.852Z" stroke="#111827" stroke-width="2" mask="url(#path-1-inside-1_806_10118)"/>
<path d="M27.661 20.2075H27.1187V25.0889H27.661V20.2075Z" fill="#111827"/>
<path d="M16.2712 20.2075H15.7288V25.0889H16.2712V20.2075Z" fill="#111827"/>
<path d="M11.3898 19.6655H10.8474V25.0893H11.3898V19.6655Z" fill="#111827"/>
<path d="M21.6949 19.6655H21.1525V25.0893H21.6949V19.6655Z" fill="#111827"/>
</svg>
