<svg width="50" height="50" viewBox="0 0 50 50" fill="none" xmlns="http://www.w3.org/2000/svg">
<g id="Layer_1_1_">
<g id="Group">
<path id="Vector" d="M43.4734 19.7125L41.2242 17.4633C40.5523 16.7914 39.6227 16.4062 38.6719 16.4062C37.7211 16.4062 36.7914 16.7914 36.1187 17.4641L35.432 18.1508C34.6688 18.9125 33.2992 18.9125 32.5359 18.1508L31.8492 17.4641C31.4687 17.082 31.25 16.5547 31.25 16.0156C31.25 15.4766 31.4688 14.9492 31.85 14.5672L32.5367 13.8805C33.2086 13.2086 33.5938 12.2789 33.5938 11.3281C33.5938 10.3773 33.2086 9.44766 32.5359 8.775L30.2867 6.52578C29.6148 5.85391 28.6852 5.46875 27.7344 5.46875H27.5711C26.7406 5.46875 25.9289 5.75781 25.2867 6.28281L22.9508 8.19063C21.7703 9.15469 21.0938 10.5813 21.0938 12.1047V12.2406C21.0938 13.1055 21.318 13.9625 21.743 14.718C24.6687 19.9203 28.9078 24.3148 34.0008 27.4281L35.2062 28.1641C36 28.65 36.9117 28.9062 37.8422 28.9062C39.3469 28.9062 40.7617 28.243 41.725 27.0883L43.6945 24.725C44.2336 24.0773 44.5305 23.2562 44.5305 22.4133V22.2656C44.5312 21.3148 44.1461 20.3852 43.4734 19.7125ZM40.1203 18.5687L42.3695 20.818C42.75 21.1992 42.9688 21.7266 42.9688 22.2656V22.4125C42.9688 22.7211 42.8922 23.0211 42.7602 23.2953L37.7 18.2352C38.4719 17.8414 39.4961 17.9461 40.1203 18.5687ZM27.7344 7.03125C28.2734 7.03125 28.8008 7.25 29.1828 7.63125L31.432 9.88047C31.8125 10.2617 32.0312 10.7891 32.0312 11.3281C32.0312 11.6719 31.9336 12.007 31.7703 12.3063L26.6984 7.23438C26.9703 7.10625 27.2672 7.03125 27.5711 7.03125H27.7344ZM40.5242 26.0883C39.8594 26.8859 38.882 27.3438 37.8422 27.3438C37.1992 27.3438 36.5695 27.1664 36.0219 26.8313L34.8156 26.0938C29.9492 23.1203 25.9 18.9211 23.1047 13.9516C22.8109 13.4297 22.6562 12.8391 22.6562 12.2406V12.1047C22.6562 11.0523 23.1242 10.0672 23.9398 9.40078L25.4352 8.17969L30.7336 13.4781C30.0688 14.1492 29.6875 15.0719 29.6875 16.0156C29.6875 16.9664 30.0727 17.8961 30.7453 18.5687L31.432 19.2555C32.1039 19.9273 33.0336 20.3125 33.9844 20.3125C34.9281 20.3125 35.8508 19.9313 36.5219 19.2672L41.8047 24.55L40.5242 26.0883Z" fill="#111827"/>
<path id="Vector_2" d="M7.03125 44.5312H5.46875V46.0938H7.03125V44.5312Z" fill="#111827"/>
<path id="Vector_3" d="M26.5625 44.5312H8.59375V46.0938H26.5625V44.5312Z" fill="#111827"/>
<path id="Vector_4" d="M29.6875 44.5312H28.125V46.0938H29.6875V44.5312Z" fill="#111827"/>
<path id="Vector_5" d="M49.2188 17.1875C49.2188 8.14141 41.8586 0.78125 32.8125 0.78125C28.3555 0.78125 24.3125 2.57344 21.3523 5.46875H6.25C4.09609 5.46875 2.34375 7.22109 2.34375 9.375V45.3125C2.34375 47.4664 4.09609 49.2188 6.25 49.2188H35.1562H36.7188H37.5V47.6562H36.7188H35.1562C33.8641 47.6562 32.8125 46.6047 32.8125 45.3125C32.8125 44.0203 33.8641 42.9688 35.1562 42.9688H36.7188H37.5V32.9031C44.268 30.8797 49.2188 24.6047 49.2188 17.1875ZM6.25 7.03125H8.59375V41.4062H6.25C5.36719 41.4062 4.56094 41.7117 3.90625 42.2078V9.375C3.90625 8.08281 4.95781 7.03125 6.25 7.03125ZM32.0516 47.6562H6.25C4.95781 47.6562 3.90625 46.6047 3.90625 45.3125C3.90625 44.0203 4.95781 42.9688 6.25 42.9688H32.0516C31.5555 43.6234 31.25 44.4297 31.25 45.3125C31.25 46.1953 31.5555 47.0016 32.0516 47.6562ZM35.9375 41.4062H35.1562H10.1562V7.03125H19.9523C17.7391 9.82812 16.4062 13.3523 16.4062 17.1875C16.4062 26.2336 23.7664 33.5938 32.8125 33.5938C33.882 33.5938 34.925 33.4836 35.9375 33.2867V41.4062ZM32.8125 32.0312C24.6273 32.0312 17.9688 25.3727 17.9688 17.1875C17.9688 9.00234 24.6273 2.34375 32.8125 2.34375C40.9977 2.34375 47.6562 9.00234 47.6562 17.1875C47.6562 25.3727 40.9977 32.0312 32.8125 32.0312Z" fill="#111827"/>
</g>
</g>
</svg>
