<svg width="31" height="32" viewBox="0 0 31 32" fill="none" xmlns="http://www.w3.org/2000/svg">
<path d="M26.823 12.616L25.3835 11.1765C24.9535 10.7465 24.3585 10.5 23.75 10.5C23.1415 10.5 22.5465 10.7465 22.116 11.177L21.6765 11.6165C21.188 12.104 20.3115 12.104 19.823 11.6165L19.3835 11.177C19.14 10.9325 19 10.595 19 10.25C19 9.905 19.14 9.5675 19.384 9.323L19.8235 8.8835C20.2535 8.4535 20.5 7.8585 20.5 7.25C20.5 6.6415 20.2535 6.0465 19.823 5.616L18.3835 4.1765C17.9535 3.7465 17.3585 3.5 16.75 3.5H16.6455C16.114 3.5 15.5945 3.685 15.1835 4.021L13.6885 5.242C12.933 5.859 12.5 6.772 12.5 7.747V7.834C12.5 8.3875 12.6435 8.936 12.9155 9.4195C14.788 12.749 17.501 15.5615 20.7605 17.554L21.532 18.025C22.04 18.336 22.6235 18.5 23.219 18.5C24.182 18.5 25.0875 18.0755 25.704 17.3365L26.9645 15.824C27.3095 15.4095 27.4995 14.884 27.4995 14.3445V14.25C27.5 13.6415 27.2535 13.0465 26.823 12.616ZM24.677 11.884L26.1165 13.3235C26.36 13.5675 26.5 13.905 26.5 14.25V14.344C26.5 14.5415 26.451 14.7335 26.3665 14.909L23.128 11.6705C23.622 11.4185 24.2775 11.4855 24.677 11.884ZM16.75 4.5C17.095 4.5 17.4325 4.64 17.677 4.884L19.1165 6.3235C19.36 6.5675 19.5 6.905 19.5 7.25C19.5 7.47 19.4375 7.6845 19.333 7.876L16.087 4.63C16.261 4.548 16.451 4.5 16.6455 4.5H16.75ZM24.9355 16.6965C24.51 17.207 23.8845 17.5 23.219 17.5C22.8075 17.5 22.4045 17.3865 22.054 17.172L21.282 16.7C18.1675 14.797 15.576 12.1095 13.787 8.929C13.599 8.595 13.5 8.217 13.5 7.834V7.747C13.5 7.0735 13.7995 6.443 14.3215 6.0165L15.2785 5.235L18.6695 8.626C18.244 9.0555 18 9.646 18 10.25C18 10.8585 18.2465 11.4535 18.677 11.884L19.1165 12.3235C19.5465 12.7535 20.1415 13 20.75 13C21.354 13 21.9445 12.756 22.374 12.331L25.755 15.712L24.9355 16.6965Z" fill="#111827"/>
<path d="M3.5 28.5H2.5V29.5H3.5V28.5Z" fill="#111827"/>
<path d="M16 28.5H4.5V29.5H16V28.5Z" fill="#111827"/>
<path d="M18 28.5H17V29.5H18V28.5Z" fill="#111827"/>
<path d="M30.5 11C30.5 5.2105 25.7895 0.5 20 0.5C17.1475 0.5 14.56 1.647 12.6655 3.5H3C1.6215 3.5 0.5 4.6215 0.5 6V29C0.5 30.3785 1.6215 31.5 3 31.5H21.5H22.5H23V30.5H22.5H21.5C20.673 30.5 20 29.827 20 29C20 28.173 20.673 27.5 21.5 27.5H22.5H23V21.058C27.3315 19.763 30.5 15.747 30.5 11ZM3 4.5H4.5V26.5H3C2.435 26.5 1.919 26.6955 1.5 27.013V6C1.5 5.173 2.173 4.5 3 4.5ZM19.513 30.5H3C2.173 30.5 1.5 29.827 1.5 29C1.5 28.173 2.173 27.5 3 27.5H19.513C19.1955 27.919 19 28.435 19 29C19 29.565 19.1955 30.081 19.513 30.5ZM22 26.5H21.5H5.5V4.5H11.7695C10.353 6.29 9.5 8.5455 9.5 11C9.5 16.7895 14.2105 21.5 20 21.5C20.6845 21.5 21.352 21.4295 22 21.3035V26.5ZM20 20.5C14.7615 20.5 10.5 16.2385 10.5 11C10.5 5.7615 14.7615 1.5 20 1.5C25.2385 1.5 29.5 5.7615 29.5 11C29.5 16.2385 25.2385 20.5 20 20.5Z" fill="#111827"/>
</svg>
