<svg width="38" height="38" viewBox="0 0 38 38" fill="none" xmlns="http://www.w3.org/2000/svg">
<path d="M35.3123 19.6313L37.1248 0.937508C37.1335 0.850335 37.1239 0.762294 37.0964 0.679098C37.0689 0.595901 37.0243 0.519407 36.9654 0.45458C36.9064 0.389752 36.8345 0.338039 36.7543 0.302797C36.6741 0.267554 36.5874 0.249569 36.4998 0.250008H28.9998C28.8374 0.249925 28.6814 0.31302 28.5648 0.425939C28.4481 0.538858 28.38 0.692738 28.3748 0.855008L27.7698 19.625H27.1248C27.0454 19.6257 26.9669 19.6416 26.8935 19.6719L23.7685 20.9219C23.6895 20.9558 23.6184 21.0058 23.5598 21.0688C23.308 20.9436 23.031 20.8773 22.7498 20.875H21.4998C21.1696 20.8769 20.846 20.9669 20.5623 21.1356C20.2785 20.9669 19.9549 20.8769 19.6248 20.875H18.3748C18.0446 20.8769 17.721 20.9669 17.4373 21.1356C17.1535 20.9669 16.8299 20.8769 16.4998 20.875H15.2498C14.9679 20.8762 14.6901 20.9416 14.4373 21.0663C14.3786 21.0033 14.3075 20.9533 14.2285 20.9194L11.1035 19.6694C11.0308 19.6403 10.9531 19.6252 10.8748 19.625H10.2298L9.62477 0.855008C9.61958 0.692738 9.55144 0.538858 9.43479 0.425939C9.31814 0.31302 9.16212 0.249925 8.99977 0.250008H1.49977C1.41216 0.249569 1.32544 0.267554 1.24523 0.302797C1.16502 0.338039 1.09311 0.389752 1.03418 0.45458C0.975242 0.519407 0.930596 0.595901 0.903135 0.679098C0.875673 0.762294 0.86601 0.850335 0.874772 0.937508L2.68727 19.6313C2.04675 19.6447 1.43606 19.9045 0.982119 20.3566C0.528177 20.8087 0.265904 21.4183 0.24981 22.0588C0.233716 22.6992 0.46504 23.3213 0.895701 23.7956C1.32636 24.2699 1.92324 24.56 2.56227 24.6056L0.890397 30.7038C0.434148 32.3031 0.618522 33.2038 1.62477 34.375L3.51165 36.8906C3.81049 37.2092 4.18012 37.4531 4.59065 37.6023C5.00118 37.7516 5.44107 37.8022 5.87477 37.75H10.2498C10.9128 37.75 11.5487 37.4866 12.0175 37.0178C12.4864 36.5489 12.7498 35.913 12.7498 35.25V28.2681C12.7516 27.6253 12.6258 26.9885 12.3798 26.3946C12.1338 25.8007 11.7725 25.2614 11.3166 24.8081L11.101 24.5919L13.8904 24.0344C14.0646 24.2204 14.2751 24.3688 14.5089 24.4704C14.7427 24.572 14.9949 24.6246 15.2498 24.625H16.4998C16.8299 24.6231 17.1535 24.5331 17.4373 24.3644C17.721 24.5331 18.0446 24.6231 18.3748 24.625H19.6248C19.9549 24.6231 20.2785 24.5331 20.5623 24.3644C20.846 24.5331 21.1696 24.6231 21.4998 24.625H22.7498C23.0047 24.6246 23.2568 24.572 23.4906 24.4704C23.7244 24.3688 23.9349 24.2204 24.1091 24.0344L26.8985 24.5919L26.6829 24.8081C26.2271 25.2614 25.8657 25.8007 25.6197 26.3946C25.3737 26.9885 25.248 27.6253 25.2498 28.2681V35.25C25.2498 35.913 25.5132 36.5489 25.982 37.0178C26.4508 37.4866 27.0867 37.75 27.7498 37.75H32.1248C32.5616 37.8021 33.0046 37.7499 33.4174 37.5978C33.8302 37.4457 34.2011 37.198 34.4998 36.875L36.3498 34.4069C37.381 33.2031 37.5654 32.3031 37.111 30.71L35.4373 24.6056C36.0763 24.56 36.6732 24.2699 37.1038 23.7956C37.5345 23.3213 37.7658 22.6992 37.7497 22.0588C37.7336 21.4183 37.4714 20.8087 37.0174 20.3566C36.5635 19.9045 35.9528 19.6447 35.3123 19.6313ZM2.18727 1.50001H8.3929L8.9779 19.625H3.94227L2.18727 1.50001ZM1.49977 22.125C1.49977 21.7935 1.63147 21.4755 1.86589 21.2411C2.10031 21.0067 2.41825 20.875 2.74977 20.875H10.2498V23.375H2.74977C2.41825 23.375 2.10031 23.2433 1.86589 23.0089C1.63147 22.7745 1.49977 22.4565 1.49977 22.125ZM11.4998 28.2681V35.25C11.4998 35.5815 11.3681 35.8995 11.1337 36.1339C10.8992 36.3683 10.5813 36.5 10.2498 36.5C9.91825 36.5 9.60031 36.3683 9.36589 36.1339C9.13147 35.8995 8.99977 35.5815 8.99977 35.25V31.5C8.99977 31.3648 8.95591 31.2332 8.87477 31.125L6.99977 28.625L5.99977 29.375L7.12477 30.875C6.86256 30.8758 6.60347 30.9319 6.3644 31.0396C6.12533 31.1473 5.91164 31.3042 5.73727 31.5H3.99977V32.75H5.24977V34.625H6.49977V32.75C6.49977 32.5842 6.56562 32.4253 6.68283 32.3081C6.80004 32.1909 6.95901 32.125 7.12477 32.125C7.29053 32.125 7.4495 32.1909 7.56671 32.3081C7.68392 32.4253 7.74977 32.5842 7.74977 32.75V35.25C7.75236 35.6902 7.87232 36.1217 8.09727 36.5H5.87477C5.21102 36.5 4.74977 36.4375 4.49977 36.125L2.59977 33.5931C1.84977 32.7181 1.75227 32.2394 2.09477 31.04L3.85165 24.625H9.36602L10.4329 25.6919C10.7722 26.0294 11.0413 26.4309 11.2244 26.8731C11.4075 27.3154 11.5011 27.7895 11.4998 28.2681ZM13.3748 22.8625L11.4998 23.2375V21.175L13.3748 21.925V22.8625ZM16.4998 23.375H15.2498C15.084 23.375 14.925 23.3092 14.8078 23.1919C14.6906 23.0747 14.6248 22.9158 14.6248 22.75C14.6248 22.5842 14.6906 22.4253 14.8078 22.3081C14.925 22.1909 15.084 22.125 15.2498 22.125H16.4998C16.5364 22.1288 16.5726 22.1361 16.6079 22.1469C16.4637 22.536 16.4637 22.964 16.6079 23.3531C16.5726 23.3639 16.5364 23.3712 16.4998 23.375ZM19.6248 23.375H18.3748C18.3381 23.3712 18.3019 23.3639 18.2666 23.3531C18.4108 22.964 18.4108 22.536 18.2666 22.1469C18.3019 22.1361 18.3381 22.1288 18.3748 22.125H19.6248C19.6614 22.1288 19.6976 22.1361 19.7329 22.1469C19.5887 22.536 19.5887 22.964 19.7329 23.3531C19.6976 23.3639 19.6614 23.3712 19.6248 23.375ZM22.7498 23.375H21.4998C21.4631 23.3712 21.4269 23.3639 21.3916 23.3531C21.5358 22.964 21.5358 22.536 21.3916 22.1469C21.4269 22.1361 21.4631 22.1288 21.4998 22.125H22.7498C22.9155 22.125 23.0745 22.1909 23.1917 22.3081C23.3089 22.4253 23.3748 22.5842 23.3748 22.75C23.3748 22.9158 23.3089 23.0747 23.1917 23.1919C23.0745 23.3092 22.9155 23.375 22.7498 23.375ZM26.4998 23.2375L24.6248 22.8625V21.925L26.4998 21.175V23.2375ZM29.6054 1.50001H35.8123L34.0573 19.625H29.0204L29.6054 1.50001ZM35.9066 31.0463C36.2473 32.2394 36.1523 32.7156 35.3748 33.625L33.5116 36.1094C33.2498 36.4375 32.7885 36.5 32.1248 36.5H29.9023C30.1272 36.1217 30.2472 35.6902 30.2498 35.25V32.75C30.2498 32.5842 30.3156 32.4253 30.4328 32.3081C30.55 32.1909 30.709 32.125 30.8748 32.125C31.0405 32.125 31.1995 32.1909 31.3167 32.3081C31.4339 32.4253 31.4998 32.5842 31.4998 32.75V34.625H32.7498V32.75H33.9998V31.5H32.2623C32.0879 31.3042 31.8742 31.1473 31.6351 31.0396C31.3961 30.9319 31.137 30.8758 30.8748 30.875L31.9998 29.375L30.9998 28.625L29.1248 31.125C29.0436 31.2332 28.9998 31.3648 28.9998 31.5V35.25C28.9998 35.5815 28.8681 35.8995 28.6337 36.1339C28.3992 36.3683 28.0813 36.5 27.7498 36.5C27.4182 36.5 27.1003 36.3683 26.8659 36.1339C26.6315 35.8995 26.4998 35.5815 26.4998 35.25V28.2681C26.4984 27.7895 26.592 27.3154 26.7752 26.8731C26.9583 26.4309 27.2273 26.0294 27.5666 25.6919L28.6335 24.625H34.1479L35.9066 31.0463ZM35.2498 23.375H27.7498V20.875H35.2498C35.5813 20.875 35.8992 21.0067 36.1337 21.2411C36.3681 21.4755 36.4998 21.7935 36.4998 22.125C36.4998 22.4565 36.3681 22.7745 36.1337 23.0089C35.8992 23.2433 35.5813 23.375 35.2498 23.375Z" fill="black"/>
</svg>
