<svg width="20" height="21" viewBox="0 0 20 21" fill="none" xmlns="http://www.w3.org/2000/svg">
<path fill-rule="evenodd" clip-rule="evenodd" d="M6.04913 3.29101C6.34865 3.64045 6.30819 4.16653 5.95876 4.46605L3.7254 6.38042L6.00569 8.66077C6.33112 8.98621 6.33111 9.51385 6.00567 9.83928C5.68023 10.1647 5.15259 10.1647 4.82716 9.83926L1.91057 6.9226C1.74645 6.75846 1.65821 6.53331 1.66712 6.30137C1.67603 6.06942 1.78127 5.8517 1.9575 5.70064L4.87409 3.20064C5.22352 2.90112 5.7496 2.94158 6.04913 3.29101Z" fill="black"/>
<path fill-rule="evenodd" clip-rule="evenodd" d="M1.6665 6.33333C1.6665 5.8731 2.0396 5.5 2.49984 5.5H12.0806C15.3961 5.5 18.1993 8.19539 18.3285 11.5092C18.4651 15.012 15.5829 18 12.0806 18H4.99917C4.53893 18 4.16584 17.6269 4.16584 17.1667C4.16584 16.7064 4.53893 16.3333 4.99917 16.3333H12.0806C14.6393 16.3333 16.7628 14.1294 16.6631 11.5741C16.5688 9.15495 14.5009 7.16667 12.0806 7.16667H2.49984C2.0396 7.16667 1.6665 6.79357 1.6665 6.33333Z" fill="black"/>
</svg>
