<svg width="18" height="18" viewBox="0 0 18 18" fill="none" xmlns="http://www.w3.org/2000/svg">
<path fill-rule="evenodd" clip-rule="evenodd" d="M7.12529 2.22471C4.75047 2.22471 2.82529 4.14988 2.82529 6.52471C2.82529 8.89953 4.75047 10.8247 7.12529 10.8247C9.50012 10.8247 11.4253 8.89953 11.4253 6.52471C11.4253 4.14988 9.50012 2.22471 7.12529 2.22471ZM0.675293 6.52471C0.675293 2.96247 3.56306 0.074707 7.12529 0.074707C10.6875 0.074707 13.5753 2.96247 13.5753 6.52471C13.5753 7.91773 13.1337 9.2076 12.3828 10.262L17.5604 15.4396C17.9802 15.8594 17.9802 16.54 17.5604 16.9598C17.1406 17.3797 16.46 17.3797 16.0402 16.9598L10.8626 11.7823C9.80819 12.5331 8.51831 12.9747 7.12529 12.9747C3.56306 12.9747 0.675293 10.0869 0.675293 6.52471Z" fill="#9CA3AF"/>
</svg>
