<svg width="40" height="40" viewBox="0 0 40 40" fill="none" xmlns="http://www.w3.org/2000/svg">
<g id="Frame" clip-path="url(#clip0_787_9420)">
<g id="Outline">
<g id="Outline_2">
<path id="Vector" d="M9.05833 10.1717C7.89633 10.4727 6.86723 11.1511 6.13267 12.1005C5.3981 13.0498 4.99969 14.2163 5 15.4167V34.5833C5.00176 36.0194 5.57301 37.3961 6.58845 38.4115C7.60389 39.427 8.98062 39.9982 10.4167 40H29.5833C31.0194 39.9982 32.3961 39.427 33.4115 38.4115C34.427 37.3961 34.9982 36.0194 35 34.5833V15.4167C35.0003 14.2163 34.6019 13.0498 33.8673 12.1005C33.1328 11.1511 32.1037 10.4727 30.9417 10.1717C30.6735 10.1034 30.4355 9.94805 30.2651 9.72997C30.0946 9.5119 30.0014 9.24343 30 8.96667V8.33333H31.25C31.8025 8.33333 32.3324 8.11384 32.7231 7.72314C33.1138 7.33244 33.3333 6.80253 33.3333 6.25V2.08333C33.3333 1.5308 33.1138 1.0009 32.7231 0.610194C32.3324 0.219493 31.8025 0 31.25 0L8.75 0C8.19747 0 7.66756 0.219493 7.27686 0.610194C6.88616 1.0009 6.66667 1.5308 6.66667 2.08333V6.25C6.66667 6.80253 6.88616 7.33244 7.27686 7.72314C7.66756 8.11384 8.19747 8.33333 8.75 8.33333H10V8.96667C9.99859 9.24343 9.90536 9.5119 9.73494 9.72997C9.56452 9.94805 9.32655 10.1034 9.05833 10.1717ZM29.5833 39.1667H10.4167C9.27392 39.1649 8.17296 38.7368 7.32914 37.9662C6.48533 37.1956 5.95937 36.1379 5.85417 35H34.1458C34.0408 36.138 33.5149 37.1958 32.6711 37.9664C31.8272 38.7371 30.7261 39.1651 29.5833 39.1667ZM34.1667 34.1667H5.83333V16.6667H34.1667V34.1667ZM29.1667 0.833333H31.25C31.5815 0.833333 31.8995 0.965029 32.1339 1.19945C32.3683 1.43387 32.5 1.75181 32.5 2.08333V6.25C32.5 6.58152 32.3683 6.89946 32.1339 7.13388C31.8995 7.3683 31.5815 7.5 31.25 7.5H29.1667V0.833333ZM23.3333 0.833333H28.3333V7.5H23.3333V0.833333ZM17.5 0.833333H22.5V7.5H17.5V0.833333ZM11.6667 0.833333H16.6667V7.5H11.6667V0.833333ZM8.75 7.5C8.41848 7.5 8.10054 7.3683 7.86612 7.13388C7.6317 6.89946 7.5 6.58152 7.5 6.25V2.08333C7.5 1.75181 7.6317 1.43387 7.86612 1.19945C8.10054 0.965029 8.41848 0.833333 8.75 0.833333H10.8333V7.5H8.75ZM10.8333 8.96667V8.33333H29.1667V8.96667C29.1679 9.42828 29.3225 9.87641 29.6061 10.2407C29.8896 10.6049 30.2861 10.8647 30.7333 10.9792C31.7164 11.234 32.5869 11.808 33.2083 12.6112C33.8298 13.4144 34.1668 14.4012 34.1667 15.4167V15.8333H5.83333V15.4167C5.83316 14.4012 6.17025 13.4144 6.79167 12.6112C7.41309 11.808 8.28365 11.234 9.26667 10.9792C9.71387 10.8647 10.1104 10.6049 10.3939 10.2407C10.6775 9.87641 10.8321 9.42828 10.8333 8.96667Z" fill="black"/>
<path id="Vector_2" d="M21.6667 21.6669H23.8275L20.4217 25.5594C20.2114 25.8006 20.0747 26.0969 20.0277 26.4133C19.9807 26.7298 20.0253 27.0531 20.1563 27.345C20.2873 27.6368 20.4991 27.8851 20.7668 28.0603C21.0345 28.2355 21.3468 28.3303 21.6667 28.3336H27.5C27.942 28.3336 28.366 28.158 28.6785 27.8454C28.9911 27.5329 29.1667 27.1089 29.1667 26.6669C29.1667 26.2249 28.9911 25.8009 28.6785 25.4884C28.366 25.1758 27.942 25.0002 27.5 25.0002H25.3392L28.745 21.1086C28.9618 20.8698 29.1025 20.5718 29.1493 20.2527C29.196 19.9336 29.1467 19.6078 29.0075 19.3169C28.8858 19.0193 28.6763 18.7659 28.4071 18.5902C28.1378 18.4145 27.8214 18.325 27.5 18.3336H21.6667C21.2246 18.3336 20.8007 18.5092 20.4882 18.8217C20.1756 19.1343 20 19.5582 20 20.0002C20 20.4423 20.1756 20.8662 20.4882 21.1787C20.8007 21.4913 21.2246 21.6669 21.6667 21.6669ZM21.6667 19.1669H27.5142C27.6715 19.1728 27.8241 19.2228 27.9544 19.3111C28.0848 19.3994 28.1878 19.5226 28.2517 19.6665C28.3156 19.8104 28.3378 19.9694 28.3158 20.1253C28.2939 20.2812 28.2286 20.4279 28.1275 20.5486L24.1083 25.1427C24.0557 25.203 24.0215 25.2771 24.0099 25.3562C23.9982 25.4353 24.0096 25.5162 24.0426 25.589C24.0757 25.6619 24.129 25.7236 24.1962 25.767C24.2634 25.8104 24.3417 25.8335 24.4217 25.8336H27.5C27.721 25.8336 27.933 25.9214 28.0893 26.0776C28.2455 26.2339 28.3333 26.4459 28.3333 26.6669C28.3333 26.8879 28.2455 27.0999 28.0893 27.2562C27.933 27.4124 27.721 27.5002 27.5 27.5002H21.6525C21.4942 27.5034 21.3387 27.4576 21.2073 27.3692C21.076 27.2807 20.975 27.1539 20.9183 27.0061C20.8469 26.8633 20.8202 26.7023 20.8418 26.5441C20.8634 26.3859 20.9321 26.2379 21.0392 26.1194L25.0583 21.5252C25.1112 21.465 25.1456 21.3908 25.1574 21.3116C25.1692 21.2323 25.1579 21.1513 25.1248 21.0783C25.0918 21.0053 25.0384 20.9434 24.971 20.9C24.9036 20.8566 24.8251 20.8335 24.745 20.8336H21.6667C21.4457 20.8336 21.2337 20.7458 21.0774 20.5895C20.9211 20.4332 20.8333 20.2212 20.8333 20.0002C20.8333 19.7792 20.9211 19.5673 21.0774 19.411C21.2337 19.2547 21.4457 19.1669 21.6667 19.1669Z" fill="black"/>
<path id="Vector_3" d="M12.2502 27.046H13.8077L11.1902 30.106C11.0047 30.3162 10.8854 30.5764 10.8473 30.8541C10.8092 31.1318 10.854 31.4146 10.976 31.6669C11.0827 31.9158 11.2606 32.1277 11.4873 32.276C11.7139 32.4242 11.9794 32.5023 12.2502 32.5002C13.4169 32.4794 16.9169 32.5002 16.9169 32.5002C17.2986 32.5002 17.6646 32.3486 17.9345 32.0787C18.2044 31.8088 18.356 31.4427 18.356 31.061C18.356 30.6794 18.2044 30.3133 17.9345 30.0434C17.6646 29.7735 17.2986 29.6219 16.9169 29.6219H15.3594L17.9769 26.5619C18.1625 26.3517 18.2819 26.0913 18.32 25.8134C18.3581 25.5356 18.3133 25.2526 18.191 25.0002C18.088 24.7486 17.911 24.5343 17.6835 24.3855C17.456 24.2367 17.1887 24.1604 16.9169 24.1669H12.2502C11.8685 24.1669 11.5025 24.3185 11.2326 24.5884C10.9627 24.8583 10.811 25.2244 10.811 25.606C10.811 25.9877 10.9627 26.3538 11.2326 26.6237C11.5025 26.8936 11.8685 27.0452 12.2502 27.0452V27.046ZM12.2502 25.0002H16.931C17.0392 25.0025 17.1443 25.0366 17.2332 25.0983C17.3222 25.1599 17.391 25.2464 17.431 25.3469C17.4851 25.4527 17.5061 25.5723 17.4912 25.6901C17.4763 25.808 17.4263 25.9187 17.3477 26.0077L14.1327 29.766C14.0809 29.8266 14.0476 29.9007 14.0366 29.9796C14.0257 30.0585 14.0376 30.1389 14.0709 30.2112C14.1042 30.2835 14.1576 30.3448 14.2247 30.3878C14.2917 30.4307 14.3697 30.4536 14.4494 30.4535H16.9169C17.0778 30.4535 17.2321 30.5175 17.3458 30.6312C17.4596 30.745 17.5235 30.8993 17.5235 31.0602C17.5235 31.2211 17.4596 31.3754 17.3458 31.4892C17.2321 31.603 17.0778 31.6669 16.9169 31.6669H12.236C12.1267 31.6696 12.0194 31.6374 11.9295 31.5751C11.8396 31.5128 11.7719 31.4235 11.736 31.3202C11.6822 31.2144 11.6614 31.0948 11.6762 30.977C11.6911 30.8592 11.7409 30.7485 11.8194 30.6594L15.0344 26.901C15.0861 26.8405 15.1195 26.7664 15.1304 26.6875C15.1414 26.6086 15.1295 26.5282 15.0962 26.4559C15.0629 26.3836 15.0095 26.3223 14.9424 26.2793C14.8753 26.2364 14.7974 26.2135 14.7177 26.2135H12.2502C12.0893 26.2135 11.935 26.1496 11.8212 26.0359C11.7075 25.9221 11.6435 25.7678 11.6435 25.6069C11.6435 25.446 11.7075 25.2917 11.8212 25.1779C11.935 25.0641 12.0893 25.0002 12.2502 25.0002Z" fill="black"/>
</g>
</g>
</g>
<defs>
<clipPath id="clip0_787_9420">
<rect width="40" height="40" fill="white"/>
</clipPath>
</defs>
</svg>
