<svg width="40" height="40" viewBox="0 0 40 40" fill="none" xmlns="http://www.w3.org/2000/svg">
<path d="M16.9191 27.6983C15.5852 28.1633 14.3711 28.9162 13.3663 29.9208C11.5963 31.6975 10.6216 34.0522 10.6216 36.5498C10.6216 37.5837 11.4626 38.4248 12.4966 38.4248H27.4966C28.5183 38.4396 29.3848 37.5605 29.3716 36.5498C29.4233 32.6424 26.783 28.9389 23.0741 27.6983C29.4937 24.423 27.2414 14.7576 19.9965 14.6748C12.7498 14.7581 10.5011 24.425 16.9191 27.6983ZM25.7412 30.8033C27.2762 32.3439 28.1216 34.3849 28.1216 36.5498C28.1216 36.7164 28.0578 36.8702 27.9302 36.9954C27.8173 37.1107 27.6635 37.1748 27.4966 37.1748H25.6216V35.9248C25.6216 35.5793 25.3417 35.2998 24.9966 35.2998C24.6514 35.2998 24.3716 35.5793 24.3716 35.9248V37.1748H15.6216V35.9248C15.6216 35.5793 15.3417 35.2998 14.9966 35.2998C14.6514 35.2998 14.3716 35.5793 14.3716 35.9248V37.1748H12.4966C12.152 37.1748 11.8716 36.8947 11.8716 36.5498C11.8242 33.0861 14.2198 29.8201 17.5354 28.8093C17.9923 31.602 22.0017 31.6002 22.4577 28.8093C23.6952 29.2044 24.8205 29.8828 25.7412 30.8033ZM18.7466 28.4248V28.3061C19.5664 28.4628 20.4267 28.4628 21.2466 28.3061C21.3339 30.0311 18.8088 30.1492 18.7466 28.4248ZM25.6216 21.5498C25.6216 24.0168 24.0389 26.1732 21.6836 26.916C18.186 28.1019 14.2727 25.2534 14.3717 21.5497C14.6805 14.088 25.3134 14.0892 25.6216 21.5498Z" fill="black"/>
<path d="M18.4974 25.7996C19.1639 25.2778 20.4523 25.0087 21.4969 25.7997C21.7708 26.0054 22.1637 25.9529 22.3718 25.6745C23.0957 24.47 20.2798 23.9841 19.997 24.0498C18.9078 24.0498 18.1195 24.5197 17.7466 24.7999C17.0958 25.2937 17.8415 26.2877 18.4974 25.7996Z" fill="black"/>
<path d="M30.6216 9.6748C29.5876 9.6748 28.7466 10.5159 28.7466 11.5498C28.7605 12.3702 29.9824 12.3722 29.9966 11.5498C29.9966 11.2053 30.277 10.9248 30.6216 10.9248C33.0937 10.8602 33.0938 7.23924 30.6216 7.1748H29.3716C29.0264 7.1748 28.7466 7.45465 28.7466 7.7998C28.7466 8.14496 29.0264 8.4248 29.3716 8.4248H30.6216C31.4427 8.4396 31.443 9.66004 30.6216 9.6748Z" fill="black"/>
<path d="M29.3716 12.7998C28.5506 12.8153 28.5506 14.0342 29.3717 14.0498C30.1927 14.0339 30.1925 12.8154 29.3716 12.7998Z" fill="black"/>
<path d="M23.7513 13.0011C23.9098 16.9452 28.963 18.6479 31.4738 15.6031C34.8182 19.6558 40.9091 15.1663 37.999 10.7685C40.3809 7.53032 36.741 3.02459 33.0732 4.69699C32.3418 0.545149 26.4281 0.531411 25.6736 4.67501C20.9929 4.66547 19.5535 10.9742 23.7513 13.0011ZM25.6218 5.9247C25.9435 5.90529 26.3771 6.10132 26.6596 5.83102C26.8211 5.69289 26.8997 5.48297 26.872 5.27163C27.0752 1.7087 32.284 2.17772 31.8278 5.71692C31.7144 6.27474 32.4338 6.6778 32.852 6.29424C34.6051 4.72117 37.5431 6.06692 37.4967 8.42478C37.4967 9.13668 37.2269 9.81752 36.7371 10.3418C36.5128 10.582 36.5128 10.9549 36.7371 11.1951C38.4196 12.9204 37.0951 15.9721 34.6841 15.9247C33.538 15.9247 32.5163 15.2384 32.0814 14.176C31.9007 13.6773 31.1416 13.6719 30.9391 14.1434C29.4632 17.1994 24.8189 16.0187 25.0065 12.6232C25.0233 12.3444 24.853 12.0883 24.5896 11.9959C21.307 10.8188 22.131 5.95328 25.6218 5.9247Z" fill="black"/>
<path d="M29.9967 17.1748C27.5243 17.2396 27.5248 20.8603 29.9967 20.9248C32.4691 20.86 32.4686 17.2392 29.9967 17.1748ZM29.9967 18.4248C30.818 18.4395 30.8179 19.6602 29.9967 19.6748C29.1754 19.66 29.1755 18.4394 29.9967 18.4248Z" fill="black"/>
<path d="M27.4966 21.5498C27.5123 22.3708 28.7308 22.3707 28.7466 21.5498C28.7307 20.7288 27.5122 20.7289 27.4966 21.5498Z" fill="black"/>
<path d="M10.6216 9.0498C9.58764 9.0498 8.74658 9.89087 8.74658 10.9248C8.76054 11.7452 9.98239 11.7472 9.99658 10.9248C9.99658 10.5803 10.277 10.2998 10.6216 10.2998C13.0937 10.2352 13.0938 6.61424 10.6215 6.5498H9.37158C8.55028 6.5638 8.55001 7.78584 9.37162 7.7998H10.6216C11.4427 7.8146 11.443 9.03504 10.6216 9.0498Z" fill="black"/>
<path d="M9.37164 12.1748C8.55056 12.1903 8.55064 13.4092 9.37164 13.4248C10.1927 13.4089 10.1925 12.1904 9.37164 12.1748Z" fill="black"/>
<path d="M5.30902 17.1747C6.58985 17.1747 7.76294 16.5815 8.51947 15.6028C11.0311 18.6493 16.0841 16.9433 16.2419 13.0011C20.4416 10.9719 18.9983 4.66529 14.3196 4.67502C13.5637 0.528594 7.65003 0.547975 6.92004 4.69699C3.18709 3.07655 -0.362218 7.45422 1.9942 10.7685C0.0754821 13.3617 2.07923 17.237 5.30902 17.1747ZM7.14137 6.29432C7.5598 6.68011 8.27803 6.27281 8.16546 5.71686C7.70808 2.18242 12.9148 1.70494 13.1212 5.27046C13.0935 5.48172 13.1718 5.69279 13.3336 5.83103C13.6157 6.1018 14.0498 5.90515 14.3715 5.92472C17.8587 5.9531 18.6895 10.8174 15.4035 11.9959C15.1403 12.0884 14.97 12.3444 14.9868 12.6233C15.1735 16.0165 10.5319 17.2018 9.05413 14.143C8.84562 13.6556 8.08584 13.6935 7.91186 14.1758C6.74681 17.0024 2.512 16.1723 2.49655 13.1122C2.49651 12.4002 2.76629 11.7194 3.25609 11.1951C3.4804 10.9549 3.4804 10.582 3.25609 10.3418C0.90052 7.72969 4.43316 4.04834 7.14137 6.29432Z" fill="black"/>
<path d="M9.9967 17.1748C7.52428 17.2396 7.52477 20.8603 9.99677 20.9248C12.4691 20.86 12.4686 17.2392 9.9967 17.1748ZM9.9967 19.6748C9.17539 19.66 9.17551 18.4394 9.99674 18.4248C10.818 18.4395 10.8179 19.6602 9.9967 19.6748Z" fill="black"/>
<path d="M12.4966 21.5498C12.4807 20.7288 11.2622 20.7289 11.2466 21.5498C11.2623 22.3708 12.4808 22.3707 12.4966 21.5498Z" fill="black"/>
</svg>
